<svg width="378" height="496" viewBox="0 0 378 496" fill="none" xmlns="http://www.w3.org/2000/svg">
<path d="M290.929 152.048C302.246 160.384 321.308 155.334 333.53 140.752C345.751 126.169 346.47 107.582 335.176 99.2461C323.859 90.8884 304.797 95.9596 292.575 110.542C280.354 125.125 279.635 143.712 290.929 152.048Z" fill="url(#paint0_radial_1_66820)"/>
<path d="M290.165 151.438L286.71 148.87L329.519 95.067L335.363 99.3764L290.165 151.438Z" fill="#573B1C"/>
<path d="M285.57 148.087C296.887 156.423 315.95 151.373 328.171 136.791C340.392 122.208 341.134 103.621 329.817 95.2849C318.501 86.9489 299.438 91.9984 287.217 106.581C274.995 121.163 274.253 139.751 285.57 148.087Z" fill="url(#paint1_linear_1_66820)"/>
<path d="M287.22 146.106C297.679 153.832 315.327 149.153 326.643 135.659C337.937 122.165 338.633 104.97 328.151 97.2437C317.692 89.5172 300.044 94.1966 288.727 107.691C277.41 121.185 276.738 138.379 287.197 146.106L287.22 146.106Z" fill="#FFFF3C"/>
<path style="mix-blend-mode:multiply" d="M287.22 146.106C297.679 153.832 315.327 149.153 326.643 135.659C337.937 122.165 338.633 104.97 328.151 97.2437C317.692 89.5172 300.044 94.1966 288.727 107.691C277.41 121.185 276.738 138.379 287.197 146.106L287.22 146.106Z" fill="url(#paint2_radial_1_66820)"/>
<path d="M288.748 144.843C298.743 152.222 315.44 147.912 326.061 135.245C336.683 122.578 337.193 106.319 327.198 98.9412C317.203 91.5629 300.506 95.8723 289.885 108.54C279.263 121.228 278.753 137.465 288.748 144.843Z" fill="url(#paint3_linear_1_66820)"/>
<g clip-path="url(#clip0_1_66820)">
<path d="M318.971 107.891C318.52 107.73 318.235 107.688 317.677 107.704C316.787 107.728 315.792 107.968 315.021 108.347C314.6 108.551 313.799 109.047 313.482 109.296C313.261 109.471 313.03 109.786 312.407 110.763C312.088 111.262 311.925 111.526 311.052 112.945C310.224 114.29 309.797 114.949 309.714 115.008C309.647 115.058 309.887 114.437 310.741 112.352C311.965 109.364 312.149 108.841 312.263 108.003C312.428 106.759 311.987 105.416 311.075 104.395C310.618 103.884 310.158 103.633 309.436 103.5C308.806 103.386 308.197 103.424 307.431 103.635C306.742 103.823 306.317 104.003 305.262 104.547C304.272 105.058 303.691 105.385 303.441 105.573C303.354 105.639 303.289 105.666 303.213 105.67C303.081 105.676 303.025 105.691 302.286 105.893C301.462 106.12 301.099 106.234 300.732 106.386C299.971 106.7 299.484 107.03 298.998 107.564C298.672 107.921 298.525 108.135 298.255 108.642C297.927 109.263 297.743 109.754 297.717 110.091C297.693 110.382 297.793 111.077 297.912 111.459C298.098 112.053 298.667 113.006 299.163 113.559C299.816 114.284 300.518 114.843 302.164 115.951C303.495 116.847 303.984 117.202 304.091 117.347L304.142 117.415L304.03 117.462C303.894 117.516 303.773 117.499 303.418 117.366C303.038 117.226 302.544 117.001 301.628 116.55C299.943 115.718 299.197 115.404 298.597 115.276C297.795 115.106 296.524 115.332 295.604 115.806C294.637 116.307 294.049 116.902 293.192 118.249C292.888 118.724 292.638 119.195 292.598 119.365C292.539 119.605 292.565 120.279 292.664 121.13C292.738 121.747 292.821 122.153 292.989 122.705L293.149 123.232L293.093 123.765C293.062 124.058 293.033 124.411 293.029 124.55C293.005 125.377 293.112 126.498 293.282 127.203C293.441 127.869 293.622 128.203 294.053 128.633C294.635 129.217 295.656 129.878 296.182 130.01C296.783 130.165 297.689 130.072 298.482 129.778C298.838 129.646 299.274 129.386 299.696 129.048C300.217 128.632 300.871 127.849 302.104 126.157C303.007 124.922 303.518 124.249 303.749 124.003C303.979 123.757 304.166 123.686 304.404 123.753L304.488 123.777L304.373 123.964C304.223 124.208 303.251 125.871 302.746 126.749C302.318 127.49 301.687 128.705 301.534 129.08C301.151 130.01 300.865 131.211 300.756 132.343C300.678 133.168 300.713 133.675 300.899 134.473C301.044 135.095 301.157 135.402 301.367 135.738C301.53 135.998 301.679 136.166 302.029 136.473C302.333 136.744 302.344 136.747 302.459 136.616C302.494 136.576 302.605 136.434 302.706 136.302C302.947 135.983 303.005 135.846 303.031 135.533C303.05 135.313 303.041 135.244 302.906 134.662C302.671 133.638 302.638 133.306 302.702 132.603C302.848 130.993 303.212 129.804 304.206 127.687C304.69 126.651 305.158 125.801 305.421 125.476C305.575 125.281 305.579 125.28 305.547 125.44C305.385 126.244 305.203 126.948 304.888 127.962C304.466 129.337 304.436 129.513 304.489 130.437C304.561 131.7 304.707 132.503 305.032 133.415C305.318 134.219 305.602 134.667 306.098 135.099C306.752 135.668 307.345 135.88 308.146 135.831C308.566 135.805 308.842 135.748 309.07 135.642C309.185 135.589 309.395 135.512 309.537 135.47C310.087 135.317 310.383 135.136 311.366 134.354C312.069 133.797 312.474 133.526 313.137 133.174C313.632 132.913 314.001 132.786 314.377 132.744L314.699 132.709L314.903 132.552C315.016 132.465 315.209 132.323 315.336 132.238C315.711 131.98 315.958 131.723 316.374 131.157C316.767 130.621 317.046 130.177 317.348 129.61C317.69 128.964 317.721 128.866 317.773 128.245C317.88 126.938 317.637 126.034 316.937 125.125C316.591 124.679 316.252 124.346 315.82 124.028C315.262 123.616 315.099 123.523 312.88 122.343C311.648 121.688 310.7 121.172 310.69 121.152C310.677 121.124 310.681 121.117 310.713 121.114C310.799 121.106 311.289 121.282 312.613 121.788C314.362 122.457 314.846 122.605 315.499 122.661C316.549 122.754 317.402 122.698 318.386 122.473C319.502 122.218 320.199 121.825 320.905 121.055C321.376 120.545 321.966 119.71 322.285 119.111C322.539 118.63 322.619 118.354 322.667 117.768C322.737 116.921 322.638 116.352 322.3 115.637C322.205 115.436 321.991 114.977 321.826 114.619C321.397 113.695 321.325 113.379 321.265 112.204C321.233 111.533 321.19 111.124 321.118 110.721C320.946 109.775 320.533 108.969 319.965 108.475C319.772 108.305 319.22 107.982 318.971 107.891Z" fill="#FDFACC"/>
</g>
<g clip-path="url(#clip1_1_66820)">
<path d="M318.971 107.891C318.52 107.73 318.235 107.688 317.677 107.704C316.787 107.728 315.792 107.968 315.021 108.347C314.6 108.551 313.799 109.047 313.482 109.296C313.261 109.471 313.03 109.786 312.407 110.763C312.088 111.262 311.925 111.526 311.052 112.945C310.224 114.29 309.797 114.949 309.714 115.008C309.647 115.058 309.887 114.437 310.741 112.352C311.965 109.364 312.149 108.841 312.263 108.003C312.428 106.759 311.987 105.416 311.075 104.395C310.618 103.884 310.158 103.633 309.436 103.5C308.806 103.386 308.197 103.424 307.431 103.635C306.742 103.823 306.317 104.003 305.262 104.547C304.272 105.058 303.691 105.385 303.441 105.573C303.354 105.639 303.289 105.666 303.213 105.67C303.081 105.676 303.025 105.691 302.286 105.893C301.462 106.12 301.099 106.234 300.732 106.386C299.971 106.7 299.484 107.03 298.998 107.564C298.672 107.921 298.525 108.135 298.255 108.642C297.927 109.263 297.743 109.754 297.717 110.091C297.693 110.382 297.793 111.077 297.912 111.459C298.098 112.053 298.667 113.006 299.163 113.559C299.816 114.284 300.518 114.843 302.164 115.951C303.495 116.847 303.984 117.202 304.091 117.347L304.142 117.415L304.03 117.462C303.894 117.516 303.773 117.499 303.418 117.366C303.038 117.226 302.544 117.001 301.628 116.55C299.943 115.718 299.197 115.404 298.597 115.276C297.795 115.106 296.524 115.332 295.604 115.806C294.637 116.307 294.049 116.902 293.192 118.249C292.888 118.724 292.638 119.195 292.598 119.365C292.539 119.605 292.565 120.279 292.664 121.13C292.738 121.747 292.821 122.153 292.989 122.705L293.149 123.232L293.093 123.765C293.062 124.058 293.033 124.411 293.029 124.55C293.005 125.377 293.112 126.498 293.282 127.203C293.441 127.869 293.622 128.203 294.053 128.633C294.635 129.217 295.656 129.878 296.182 130.01C296.783 130.165 297.689 130.072 298.482 129.778C298.838 129.646 299.274 129.386 299.696 129.048C300.217 128.632 300.871 127.849 302.104 126.157C303.007 124.922 303.518 124.249 303.749 124.003C303.979 123.757 304.166 123.686 304.404 123.753L304.488 123.777L304.373 123.964C304.223 124.208 303.251 125.871 302.746 126.749C302.318 127.49 301.687 128.705 301.534 129.08C301.151 130.01 300.865 131.211 300.756 132.343C300.678 133.168 300.713 133.675 300.899 134.473C301.044 135.095 301.157 135.402 301.367 135.738C301.53 135.998 301.679 136.166 302.029 136.473C302.333 136.744 302.344 136.747 302.459 136.616C302.494 136.576 302.605 136.434 302.706 136.302C302.947 135.983 303.005 135.846 303.031 135.533C303.05 135.313 303.041 135.244 302.906 134.662C302.671 133.638 302.638 133.306 302.702 132.603C302.848 130.993 303.212 129.804 304.206 127.687C304.69 126.651 305.158 125.801 305.421 125.476C305.575 125.281 305.579 125.28 305.547 125.44C305.385 126.244 305.203 126.948 304.888 127.962C304.466 129.337 304.436 129.513 304.489 130.437C304.561 131.7 304.707 132.503 305.032 133.415C305.318 134.219 305.602 134.667 306.098 135.099C306.752 135.668 307.345 135.88 308.146 135.831C308.566 135.805 308.842 135.748 309.07 135.642C309.185 135.589 309.395 135.512 309.537 135.47C310.087 135.317 310.383 135.136 311.366 134.354C312.069 133.797 312.474 133.526 313.137 133.174C313.632 132.913 314.001 132.786 314.377 132.744L314.699 132.709L314.903 132.552C315.016 132.465 315.209 132.323 315.336 132.238C315.711 131.98 315.958 131.723 316.374 131.157C316.767 130.621 317.046 130.177 317.348 129.61C317.69 128.964 317.721 128.866 317.773 128.245C317.88 126.938 317.637 126.034 316.937 125.125C316.591 124.679 316.252 124.346 315.82 124.028C315.262 123.616 315.099 123.523 312.88 122.343C311.648 121.688 310.7 121.172 310.69 121.152C310.677 121.124 310.681 121.117 310.713 121.114C310.799 121.106 311.289 121.282 312.613 121.788C314.362 122.457 314.846 122.605 315.499 122.661C316.549 122.754 317.402 122.698 318.386 122.473C319.502 122.218 320.199 121.825 320.905 121.055C321.376 120.545 321.966 119.71 322.285 119.111C322.539 118.63 322.619 118.354 322.667 117.768C322.737 116.921 322.638 116.352 322.3 115.637C322.205 115.436 321.991 114.977 321.826 114.619C321.397 113.695 321.325 113.379 321.265 112.204C321.233 111.533 321.19 111.124 321.118 110.721C320.946 109.775 320.533 108.969 319.965 108.475C319.772 108.305 319.22 107.982 318.971 107.891Z" fill="#7E6935"/>
</g>
<path style="mix-blend-mode:overlay" d="M377.031 135.981C374.531 177.08 337.969 209.727 294.088 209.954C248.249 210.208 210.301 174.988 210.06 131.967C209.789 88.9463 247.315 53.331 293.154 53.1049C338.993 52.8505 376.941 88.0701 377.182 131.091L377.061 135.981L377.031 135.981Z" fill="url(#paint4_radial_1_66820)"/>
<g clip-path="url(#clip2_1_66820)">
<path d="M341.783 479.375C329.497 486.536 311.763 479.556 302.199 463.783C292.614 448.019 294.829 429.433 307.116 422.273C319.402 415.113 337.115 422.101 346.7 437.865C356.264 453.638 354.069 472.215 341.783 479.375Z" fill="url(#paint5_radial_1_66820)"/>
<path d="M342.641 478.868L346.397 476.641L313.247 418.697L306.917 422.399L342.641 478.868Z" fill="#573B1C"/>
<path d="M347.62 475.988C335.334 483.149 317.621 476.161 308.036 460.396C298.451 444.632 300.667 426.046 312.932 418.895C325.218 411.734 342.952 418.714 352.516 434.487C362.101 450.251 359.885 468.837 347.62 475.988Z" fill="url(#paint6_linear_1_66820)"/>
<path d="M346.319 473.855C334.957 480.482 318.543 474.021 309.699 459.426C300.834 444.84 302.861 427.635 314.232 421.028C325.595 414.4 342.008 420.861 350.852 435.456C359.717 450.042 357.682 467.228 346.319 473.855Z" fill="#FFFF3C"/>
<path style="mix-blend-mode:multiply" d="M346.319 473.855C334.957 480.482 318.543 474.021 309.699 459.426C300.834 444.84 302.861 427.635 314.232 421.028C325.595 414.4 342.008 420.861 350.852 435.456C359.717 450.042 357.682 467.228 346.319 473.855Z" fill="url(#paint7_radial_1_66820)"/>
<path d="M345.033 472.438C334.192 478.762 318.635 472.773 310.318 459.062C301.98 445.359 304.047 429.115 314.888 422.79C325.729 416.465 341.285 422.455 349.602 436.166C357.919 449.878 355.874 466.113 345.025 472.418L345.033 472.438Z" fill="url(#paint8_linear_1_66820)"/>
<g clip-path="url(#clip3_1_66820)">
<path d="M329.65 429.847C329.214 430.101 328.988 430.301 328.622 430.76C328.038 431.492 327.557 432.454 327.338 433.331C327.217 433.807 327.073 434.787 327.059 435.211C327.05 435.506 327.146 435.906 327.51 437.069C327.695 437.664 327.796 437.974 328.345 439.636C328.865 441.213 329.105 442.004 329.097 442.111C329.091 442.198 328.756 441.584 327.658 439.485C326.086 436.476 325.789 435.973 325.193 435.314C324.305 434.338 322.926 433.782 321.487 433.823C320.767 433.843 320.254 434.043 319.657 434.533C319.139 434.962 318.757 435.477 318.407 436.236C318.092 436.917 317.948 437.381 317.671 438.597C317.41 439.738 317.279 440.427 317.26 440.756C317.255 440.87 317.232 440.941 317.184 441.005C317.1 441.115 317.073 441.17 316.735 441.901C316.359 442.717 316.205 443.085 316.078 443.484C315.815 444.308 315.75 444.924 315.85 445.676C315.916 446.18 315.988 446.443 316.213 447.004C316.49 447.688 316.76 448.169 317.013 448.418C317.231 448.635 317.858 449.026 318.245 449.189C318.848 449.442 320.001 449.631 320.781 449.607C321.806 449.573 322.732 449.388 324.738 448.817C326.361 448.355 326.977 448.202 327.166 448.215L327.255 448.22L327.217 448.341C327.168 448.488 327.072 448.573 326.726 448.768C326.355 448.979 325.84 449.224 324.856 449.653C323.045 450.444 322.287 450.83 321.778 451.226C321.098 451.755 320.418 452.929 320.176 453.99C319.923 455.107 320.003 455.983 320.505 457.585C320.681 458.151 320.889 458.671 321 458.819C321.153 459.028 321.711 459.464 322.463 459.962C323.008 460.32 323.391 460.529 323.95 460.768L324.482 460.997L324.872 461.403C325.087 461.626 325.351 461.889 325.459 461.987C326.108 462.566 327.082 463.24 327.764 463.582C328.407 463.905 328.798 463.987 329.436 463.932C330.299 463.86 331.523 463.487 331.986 463.154C332.517 462.776 333.056 461.985 333.358 461.149C333.494 460.773 333.579 460.247 333.594 459.678C333.613 458.978 333.427 457.921 332.902 455.783C332.521 454.221 332.326 453.353 332.285 453.001C332.244 452.65 332.313 452.451 332.528 452.306L332.605 452.255L332.677 452.473C332.771 452.759 333.449 454.668 333.812 455.669C334.119 456.515 334.667 457.845 334.865 458.223C335.353 459.161 336.125 460.204 336.961 461.06C337.571 461.681 338.002 461.998 338.77 462.388C339.368 462.694 339.692 462.811 340.104 462.87C340.424 462.916 340.659 462.91 341.144 462.836C341.567 462.776 341.577 462.769 341.551 462.588C341.541 462.533 341.503 462.348 341.465 462.177C341.372 461.766 341.301 461.627 341.067 461.394C340.904 461.229 340.842 461.189 340.282 460.904C339.3 460.399 339.01 460.2 338.489 459.672C337.293 458.463 336.585 457.365 335.556 455.132C335.052 454.04 334.685 453.088 334.602 452.656C334.55 452.4 334.551 452.397 334.659 452.53C335.195 453.205 335.637 453.829 336.239 454.769C337.059 456.041 337.18 456.184 337.959 456.767C339.023 457.566 339.767 457.993 340.721 458.35C341.561 458.665 342.113 458.741 342.797 458.635C343.697 458.495 344.27 458.162 344.773 457.486C345.037 457.13 345.178 456.87 345.248 456.615C345.283 456.486 345.363 456.266 345.426 456.123C345.675 455.578 345.73 455.217 345.768 453.896C345.797 452.954 345.854 452.445 346.02 451.674C346.145 451.099 346.293 450.716 346.514 450.386L346.705 450.103L346.717 449.833C346.723 449.683 346.74 449.432 346.758 449.272C346.805 448.796 346.765 448.423 346.593 447.705C346.428 447.026 346.261 446.501 346.009 445.874C345.721 445.161 345.664 445.07 345.199 444.607C344.221 443.635 343.33 443.217 342.125 443.164C341.532 443.14 341.034 443.186 340.486 443.318C339.776 443.487 339.591 443.555 337.139 444.538C335.777 445.084 334.72 445.496 334.697 445.49C334.666 445.482 334.663 445.475 334.682 445.446C334.735 445.372 335.207 445.097 336.512 444.377C338.234 443.424 338.682 443.136 339.169 442.649C339.956 441.868 340.489 441.145 340.975 440.201C341.526 439.132 341.683 438.306 341.543 437.216C341.452 436.492 341.18 435.452 340.915 434.789C340.7 434.26 340.533 434.009 340.094 433.572C339.46 432.942 338.936 432.636 338.132 432.422C337.906 432.363 337.393 432.224 336.993 432.113C335.959 431.832 335.656 431.676 334.671 430.928C334.11 430.499 333.752 430.256 333.379 430.04C332.502 429.537 331.575 429.323 330.793 429.445C330.525 429.484 329.891 429.709 329.65 429.847Z" fill="#FDFACC"/>
</g>
<g clip-path="url(#clip4_1_66820)">
<path d="M329.65 429.847C329.214 430.101 328.988 430.301 328.622 430.76C328.038 431.492 327.557 432.454 327.338 433.331C327.217 433.807 327.073 434.787 327.059 435.211C327.05 435.506 327.146 435.906 327.51 437.069C327.695 437.664 327.796 437.974 328.345 439.636C328.865 441.213 329.105 442.004 329.097 442.111C329.091 442.198 328.756 441.584 327.658 439.485C326.086 436.476 325.789 435.973 325.193 435.314C324.305 434.338 322.926 433.782 321.487 433.823C320.767 433.843 320.254 434.043 319.657 434.533C319.139 434.962 318.757 435.477 318.407 436.236C318.092 436.917 317.948 437.381 317.671 438.597C317.41 439.738 317.279 440.427 317.26 440.756C317.255 440.87 317.232 440.941 317.184 441.005C317.1 441.115 317.073 441.17 316.735 441.901C316.359 442.717 316.205 443.085 316.078 443.484C315.815 444.308 315.75 444.924 315.85 445.676C315.916 446.18 315.988 446.443 316.213 447.004C316.49 447.688 316.76 448.169 317.013 448.418C317.231 448.635 317.858 449.026 318.245 449.189C318.848 449.442 320.001 449.631 320.781 449.607C321.806 449.573 322.732 449.388 324.738 448.817C326.361 448.355 326.977 448.202 327.166 448.215L327.255 448.22L327.217 448.341C327.168 448.488 327.072 448.573 326.726 448.768C326.355 448.979 325.84 449.224 324.856 449.653C323.045 450.444 322.287 450.83 321.778 451.226C321.098 451.755 320.418 452.929 320.176 453.99C319.923 455.107 320.003 455.983 320.505 457.585C320.681 458.151 320.889 458.671 321 458.819C321.153 459.028 321.711 459.464 322.463 459.962C323.008 460.32 323.391 460.529 323.95 460.768L324.482 460.997L324.872 461.403C325.087 461.626 325.351 461.889 325.459 461.987C326.108 462.566 327.082 463.24 327.764 463.582C328.407 463.905 328.798 463.987 329.436 463.932C330.299 463.86 331.523 463.487 331.986 463.154C332.517 462.776 333.056 461.985 333.358 461.149C333.494 460.773 333.579 460.247 333.594 459.678C333.613 458.978 333.427 457.921 332.902 455.783C332.521 454.221 332.326 453.353 332.285 453.001C332.244 452.65 332.313 452.451 332.528 452.306L332.605 452.255L332.677 452.473C332.771 452.759 333.449 454.668 333.812 455.669C334.119 456.515 334.667 457.845 334.865 458.223C335.353 459.161 336.125 460.204 336.961 461.06C337.571 461.681 338.002 461.998 338.77 462.388C339.368 462.694 339.692 462.811 340.104 462.87C340.424 462.916 340.659 462.91 341.144 462.836C341.567 462.776 341.577 462.769 341.551 462.588C341.541 462.533 341.503 462.348 341.465 462.177C341.372 461.766 341.301 461.627 341.067 461.394C340.904 461.229 340.842 461.189 340.282 460.904C339.3 460.399 339.01 460.2 338.489 459.672C337.293 458.463 336.585 457.365 335.556 455.132C335.052 454.04 334.685 453.088 334.602 452.656C334.55 452.4 334.551 452.397 334.659 452.53C335.195 453.205 335.637 453.829 336.239 454.769C337.059 456.041 337.18 456.184 337.959 456.767C339.023 457.566 339.767 457.993 340.721 458.35C341.561 458.665 342.113 458.741 342.797 458.635C343.697 458.495 344.27 458.162 344.773 457.486C345.037 457.13 345.178 456.87 345.248 456.615C345.283 456.486 345.363 456.266 345.426 456.123C345.675 455.578 345.73 455.217 345.768 453.896C345.797 452.954 345.854 452.445 346.02 451.674C346.145 451.099 346.293 450.716 346.514 450.386L346.705 450.103L346.717 449.833C346.723 449.683 346.74 449.432 346.758 449.272C346.805 448.796 346.765 448.423 346.593 447.705C346.428 447.026 346.261 446.501 346.009 445.874C345.721 445.161 345.664 445.07 345.199 444.607C344.221 443.635 343.33 443.217 342.125 443.164C341.532 443.14 341.034 443.186 340.486 443.318C339.776 443.487 339.591 443.555 337.139 444.538C335.777 445.084 334.72 445.496 334.697 445.49C334.666 445.482 334.663 445.475 334.682 445.446C334.735 445.372 335.207 445.097 336.512 444.377C338.234 443.424 338.682 443.136 339.169 442.649C339.956 441.868 340.489 441.145 340.975 440.201C341.526 439.132 341.683 438.306 341.543 437.216C341.452 436.492 341.18 435.452 340.915 434.789C340.7 434.26 340.533 434.009 340.094 433.572C339.46 432.942 338.936 432.636 338.132 432.422C337.906 432.363 337.393 432.224 336.993 432.113C335.959 431.832 335.656 431.676 334.671 430.928C334.11 430.499 333.752 430.256 333.379 430.04C332.502 429.537 331.575 429.323 330.793 429.445C330.525 429.484 329.891 429.709 329.65 429.847Z" fill="#7E6935"/>
</g>
<path style="mix-blend-mode:overlay" d="M387.782 439.056C394.18 458.323 383.439 479.971 363.398 488.124C342.467 496.649 318.637 487.492 310.632 467.848C302.613 448.209 313.252 425.026 334.188 416.514C355.119 407.989 378.949 417.146 386.954 436.79L387.796 439.05L387.782 439.056Z" fill="url(#paint9_radial_1_66820)"/>
<path style="mix-blend-mode:overlay" d="M345.841 421.881C352.239 441.149 341.498 462.797 321.457 470.95C300.526 479.475 276.696 470.318 268.691 450.674C260.672 431.035 271.31 407.852 292.247 399.34C313.178 390.815 337.008 399.971 345.013 419.616L345.855 421.876L345.841 421.881Z" fill="url(#paint10_radial_1_66820)"/>
</g>
<path d="M232.605 354.423C247.302 365.249 272.058 358.691 287.93 339.753C303.802 320.814 304.736 296.675 290.068 285.849C275.371 274.995 250.615 281.581 234.743 300.519C218.871 319.457 217.937 343.597 232.605 354.423Z" fill="url(#paint11_radial_1_66820)"/>
<path d="M231.612 353.631L227.124 350.295L282.721 280.422L290.311 286.018L231.612 353.631Z" fill="#573B1C"/>
<path d="M225.648 349.278C240.345 360.104 265.101 353.546 280.973 334.608C296.845 315.67 297.809 291.531 283.111 280.705C268.414 269.879 243.658 276.437 227.786 295.375C211.914 314.313 210.95 338.452 225.648 349.278Z" fill="url(#paint12_linear_1_66820)"/>
<path d="M227.785 346.706C241.368 356.74 264.287 350.663 278.985 333.138C293.652 315.613 294.555 293.283 280.942 283.248C267.359 273.214 244.44 279.291 229.743 296.816C215.046 314.341 214.172 336.671 227.755 346.706L227.785 346.706Z" fill="#FFFF3C"/>
<path style="mix-blend-mode:multiply" d="M227.785 346.706C241.368 356.74 264.287 350.663 278.985 333.138C293.652 315.613 294.555 293.283 280.942 283.248C267.359 273.214 244.44 279.291 229.743 296.816C215.046 314.341 214.172 336.671 227.755 346.706L227.785 346.706Z" fill="url(#paint13_radial_1_66820)"/>
<path d="M229.772 345.066C242.753 354.649 264.437 349.052 278.231 332.601C292.025 316.15 292.687 295.035 279.707 285.453C266.726 275.871 245.042 281.468 231.248 297.918C217.454 314.398 216.792 335.484 229.772 345.066Z" fill="url(#paint14_linear_1_66820)"/>
<g clip-path="url(#clip5_1_66820)">
<path d="M269.026 297.077C268.439 296.868 268.07 296.813 267.345 296.833C266.189 296.865 264.897 297.176 263.894 297.669C263.349 297.933 262.308 298.577 261.897 298.902C261.61 299.128 261.309 299.538 260.501 300.807C260.086 301.455 259.874 301.797 258.741 303.64C257.666 305.386 257.11 306.243 257.003 306.319C256.915 306.384 257.228 305.578 258.337 302.87C259.926 298.99 260.165 298.31 260.313 297.221C260.528 295.606 259.954 293.862 258.77 292.536C258.177 291.872 257.579 291.547 256.642 291.374C255.824 291.226 255.033 291.276 254.037 291.549C253.144 291.793 252.591 292.027 251.222 292.734C249.936 293.397 249.181 293.822 248.856 294.066C248.744 294.152 248.658 294.187 248.56 294.191C248.389 294.2 248.316 294.219 247.356 294.481C246.285 294.776 245.815 294.924 245.338 295.122C244.35 295.53 243.717 295.958 243.085 296.652C242.663 297.116 242.472 297.393 242.121 298.052C241.695 298.859 241.456 299.496 241.422 299.934C241.391 300.311 241.521 301.215 241.676 301.71C241.917 302.481 242.656 303.72 243.3 304.438C244.148 305.378 245.06 306.105 247.198 307.544C248.926 308.708 249.562 309.168 249.7 309.357L249.766 309.446L249.621 309.506C249.444 309.576 249.287 309.554 248.827 309.382C248.333 309.2 247.691 308.908 246.502 308.321C244.313 307.241 243.344 306.833 242.565 306.668C241.524 306.447 239.873 306.74 238.679 307.355C237.422 308.007 236.659 308.779 235.545 310.529C235.151 311.145 234.826 311.757 234.774 311.978C234.698 312.29 234.731 313.164 234.86 314.27C234.956 315.071 235.063 315.598 235.283 316.316L235.49 317L235.417 317.692C235.378 318.073 235.34 318.531 235.333 318.711C235.303 319.786 235.442 321.241 235.662 322.157C235.87 323.022 236.104 323.456 236.664 324.014C237.42 324.772 238.746 325.631 239.429 325.802C240.209 326.003 241.385 325.883 242.416 325.501C242.879 325.33 243.444 324.992 243.993 324.553C244.669 324.013 245.519 322.996 247.12 320.798C248.292 319.195 248.957 318.32 249.256 318.001C249.555 317.682 249.797 317.589 250.106 317.677L250.216 317.708L250.067 317.95C249.872 318.267 248.609 320.427 247.953 321.567C247.398 322.53 246.578 324.107 246.379 324.594C245.882 325.803 245.511 327.362 245.37 328.832C245.268 329.903 245.313 330.562 245.555 331.598C245.743 332.406 245.89 332.805 246.162 333.241C246.374 333.579 246.567 333.797 247.023 334.196C247.417 334.547 247.432 334.551 247.581 334.382C247.626 334.329 247.77 334.146 247.901 333.974C248.215 333.56 248.29 333.381 248.324 332.975C248.349 332.69 248.337 332.599 248.161 331.844C247.856 330.514 247.813 330.082 247.897 329.17C248.086 327.078 248.559 325.535 249.849 322.786C250.478 321.441 251.086 320.337 251.427 319.914C251.628 319.661 251.632 319.659 251.591 319.867C251.381 320.911 251.144 321.825 250.735 323.142C250.187 324.928 250.149 325.157 250.218 326.356C250.311 327.998 250.5 329.04 250.923 330.225C251.294 331.268 251.662 331.85 252.307 332.411C253.156 333.15 253.926 333.425 254.966 333.363C255.512 333.328 255.87 333.254 256.166 333.117C256.316 333.048 256.588 332.948 256.774 332.893C257.487 332.695 257.871 332.459 259.149 331.444C260.062 330.72 260.588 330.369 261.449 329.912C262.091 329.573 262.571 329.407 263.058 329.352L263.477 329.308L263.742 329.104C263.889 328.991 264.139 328.806 264.305 328.695C264.791 328.361 265.112 328.027 265.652 327.292C266.163 326.596 266.525 326.02 266.917 325.283C267.361 324.444 267.402 324.316 267.469 323.51C267.608 321.813 267.293 320.639 266.383 319.459C265.934 318.879 265.494 318.446 264.933 318.033C264.208 317.498 263.996 317.378 261.115 315.845C259.515 314.994 258.284 314.324 258.271 314.298C258.254 314.262 258.258 314.253 258.301 314.249C258.412 314.239 259.048 314.467 260.767 315.125C263.039 315.993 263.667 316.185 264.516 316.258C265.88 316.379 266.988 316.306 268.266 316.014C269.714 315.682 270.62 315.173 271.537 314.173C272.149 313.511 272.915 312.426 273.329 311.648C273.658 311.023 273.762 310.665 273.826 309.903C273.916 308.803 273.787 308.065 273.349 307.135C273.225 306.875 272.947 306.279 272.733 305.813C272.176 304.614 272.082 304.204 272.004 302.678C271.962 301.807 271.906 301.276 271.813 300.752C271.59 299.523 271.054 298.477 270.316 297.835C270.065 297.614 269.348 297.195 269.026 297.077Z" fill="#FDFACC"/>
</g>
<g clip-path="url(#clip6_1_66820)">
<path d="M269.026 297.077C268.439 296.868 268.07 296.813 267.345 296.833C266.189 296.865 264.897 297.176 263.894 297.669C263.349 297.933 262.308 298.577 261.897 298.902C261.61 299.128 261.309 299.538 260.501 300.807C260.086 301.455 259.874 301.797 258.741 303.64C257.666 305.386 257.11 306.243 257.003 306.319C256.915 306.384 257.228 305.578 258.337 302.87C259.926 298.99 260.165 298.31 260.313 297.221C260.528 295.606 259.954 293.862 258.77 292.536C258.177 291.872 257.579 291.547 256.642 291.374C255.824 291.226 255.033 291.276 254.037 291.549C253.144 291.793 252.591 292.027 251.222 292.734C249.936 293.397 249.181 293.822 248.856 294.066C248.744 294.152 248.658 294.187 248.56 294.191C248.389 294.2 248.316 294.219 247.356 294.481C246.285 294.776 245.815 294.924 245.338 295.122C244.35 295.53 243.717 295.958 243.085 296.652C242.663 297.116 242.472 297.393 242.121 298.052C241.695 298.859 241.456 299.496 241.422 299.934C241.391 300.311 241.521 301.215 241.676 301.71C241.917 302.481 242.656 303.72 243.3 304.438C244.148 305.378 245.06 306.105 247.198 307.544C248.926 308.708 249.562 309.168 249.7 309.357L249.766 309.446L249.621 309.506C249.444 309.576 249.287 309.554 248.827 309.382C248.333 309.2 247.691 308.908 246.502 308.321C244.313 307.241 243.344 306.833 242.565 306.668C241.524 306.447 239.873 306.74 238.679 307.355C237.422 308.007 236.659 308.779 235.545 310.529C235.151 311.145 234.826 311.757 234.774 311.978C234.698 312.29 234.731 313.164 234.86 314.27C234.956 315.071 235.063 315.598 235.283 316.316L235.49 317L235.417 317.692C235.378 318.073 235.34 318.531 235.333 318.711C235.303 319.786 235.442 321.241 235.662 322.157C235.87 323.022 236.104 323.456 236.664 324.014C237.42 324.772 238.746 325.631 239.429 325.802C240.209 326.003 241.385 325.883 242.416 325.501C242.879 325.33 243.444 324.992 243.993 324.553C244.669 324.013 245.519 322.996 247.12 320.798C248.292 319.195 248.957 318.32 249.256 318.001C249.555 317.682 249.797 317.589 250.106 317.677L250.216 317.708L250.067 317.95C249.872 318.267 248.609 320.427 247.953 321.567C247.398 322.53 246.578 324.107 246.379 324.594C245.882 325.803 245.511 327.362 245.37 328.832C245.268 329.903 245.313 330.562 245.555 331.598C245.743 332.406 245.89 332.805 246.162 333.241C246.374 333.579 246.567 333.797 247.023 334.196C247.417 334.547 247.432 334.551 247.581 334.382C247.626 334.329 247.77 334.146 247.901 333.974C248.215 333.56 248.29 333.381 248.324 332.975C248.349 332.69 248.337 332.599 248.161 331.844C247.856 330.514 247.813 330.082 247.897 329.17C248.086 327.078 248.559 325.535 249.849 322.786C250.478 321.441 251.086 320.337 251.427 319.914C251.628 319.661 251.632 319.659 251.591 319.867C251.381 320.911 251.144 321.825 250.735 323.142C250.187 324.928 250.149 325.157 250.218 326.356C250.311 327.998 250.5 329.04 250.923 330.225C251.294 331.268 251.662 331.85 252.307 332.411C253.156 333.15 253.926 333.425 254.966 333.363C255.512 333.328 255.87 333.254 256.166 333.117C256.316 333.048 256.588 332.948 256.774 332.893C257.487 332.695 257.871 332.459 259.149 331.444C260.062 330.72 260.588 330.369 261.449 329.912C262.091 329.573 262.571 329.407 263.058 329.352L263.477 329.308L263.742 329.104C263.889 328.991 264.139 328.806 264.305 328.695C264.791 328.361 265.112 328.027 265.652 327.292C266.163 326.596 266.525 326.02 266.917 325.283C267.361 324.444 267.402 324.316 267.469 323.51C267.608 321.813 267.293 320.639 266.383 319.459C265.934 318.879 265.494 318.446 264.933 318.033C264.208 317.498 263.996 317.378 261.115 315.845C259.515 314.994 258.284 314.324 258.271 314.298C258.254 314.262 258.258 314.253 258.301 314.249C258.412 314.239 259.048 314.467 260.767 315.125C263.039 315.993 263.667 316.185 264.516 316.258C265.88 316.379 266.988 316.306 268.266 316.014C269.714 315.682 270.62 315.173 271.537 314.173C272.149 313.511 272.915 312.426 273.329 311.648C273.658 311.023 273.762 310.665 273.826 309.903C273.916 308.803 273.787 308.065 273.349 307.135C273.225 306.875 272.947 306.279 272.733 305.813C272.176 304.614 272.082 304.204 272.004 302.678C271.962 301.807 271.906 301.276 271.813 300.752C271.59 299.523 271.054 298.477 270.316 297.835C270.065 297.614 269.348 297.195 269.026 297.077Z" fill="#7E6935"/>
</g>
<path style="mix-blend-mode:overlay" d="M318.502 310.801C316.002 351.899 279.439 384.547 235.558 384.773C189.72 385.027 151.772 349.808 151.531 306.787C151.26 263.766 188.786 228.15 234.625 227.924C280.463 227.67 318.411 262.89 318.652 305.911L318.532 310.801L318.502 310.801Z" fill="url(#paint15_radial_1_66820)"/>
<path d="M37.368 158.636C59.0056 175.417 96.3747 166.503 120.881 138.693C145.387 110.883 147.684 74.7181 126.092 57.9381C104.455 41.1146 67.0853 50.0707 42.5793 77.8808C18.0733 105.691 15.7756 141.856 37.368 158.636Z" fill="url(#paint16_radial_1_66820)"/>
<path d="M35.9081 157.411L29.3027 152.243L115.275 49.5261L126.448 58.201L35.9081 157.411Z" fill="#573B1C"/>
<path d="M27.1262 150.663C48.7638 167.444 86.1328 158.53 110.639 130.72C135.145 102.91 137.488 66.7461 115.85 49.965C94.2124 33.1839 56.8434 42.0976 32.3374 69.9076C7.83144 97.7177 5.48858 133.881 27.1262 150.663Z" fill="url(#paint17_linear_1_66820)"/>
<path d="M30.4285 146.884C50.4245 162.437 85.0206 154.176 107.713 128.441C130.359 102.706 132.545 69.2529 112.504 53.699C92.508 38.1462 57.9118 46.4075 35.2198 72.1418C12.5278 97.8761 10.3874 131.33 30.3833 146.883L30.4285 146.884Z" fill="#FFFF3C"/>
<path style="mix-blend-mode:multiply" d="M30.4285 146.884C50.4245 162.437 85.0206 154.176 107.713 128.441C130.359 102.706 132.545 69.2529 112.504 53.699C92.508 38.1462 57.9118 46.4075 35.2198 72.1418C12.5278 97.8761 10.3874 131.33 30.3833 146.883L30.4285 146.884Z" fill="url(#paint18_radial_1_66820)"/>
<path d="M33.469 144.499C52.5785 159.352 85.3048 151.765 106.602 127.608C127.899 103.451 129.678 71.8113 110.568 56.9591C91.459 42.1069 58.7326 49.6936 37.4355 73.8507C16.1373 98.0503 14.3595 129.647 33.469 144.499Z" fill="url(#paint19_linear_1_66820)"/>
<g clip-path="url(#clip7_1_66820)">
<path d="M94.1166 73.9926C93.2449 73.658 92.693 73.5619 91.6054 73.5651C89.8705 73.5696 87.9218 73.9888 86.4 74.6896C85.5715 75.0659 83.9875 75.9934 83.358 76.4644C82.9199 76.7933 82.4531 77.3968 81.194 79.2698C80.5482 80.2262 80.2174 80.7319 78.4497 83.4525C76.7719 86.0318 75.9074 87.2953 75.7436 87.4066C75.6101 87.5 76.1086 86.3034 77.8723 82.2831C80.4002 76.5238 80.784 75.5127 81.0456 73.8857C81.4281 71.4717 80.6329 68.8356 78.9064 66.8027C78.0412 65.7852 77.1574 65.2749 75.7582 64.9801C74.537 64.7276 73.3496 64.7733 71.8459 65.1469C70.4965 65.4795 69.6586 65.8097 67.5793 66.8185C65.6261 67.7646 64.4791 68.3742 63.9816 68.7278C63.8103 68.8522 63.6814 68.9017 63.5329 68.9052C63.2766 68.9119 63.1665 68.937 61.7172 69.2947C60.1008 69.6978 59.3898 69.9017 58.6668 70.1804C57.1704 70.7558 56.2049 71.3748 55.2323 72.3912C54.581 73.0711 54.2846 73.4799 53.7342 74.4552C53.0656 75.6489 52.6824 76.5963 52.6159 77.2512C52.5548 77.816 52.7167 79.1757 52.9305 79.9246C53.2629 81.0896 54.3253 82.9747 55.265 84.075C56.5016 85.5173 57.8426 86.6403 60.9941 88.8778C63.5431 90.6882 64.4786 91.4021 64.6797 91.6901L64.7751 91.8254L64.5552 91.9108C64.2872 92.0098 64.052 91.9701 63.3687 91.6952C62.6345 91.4032 61.6827 90.9419 59.9213 90.0181C56.6792 88.3171 55.2418 87.6691 54.08 87.3919C52.5264 87.0216 50.0404 87.3996 48.2261 88.2786C46.3172 89.209 45.144 90.3392 43.4092 92.9212C42.7946 93.8312 42.284 94.7359 42.1988 95.066C42.0731 95.5303 42.0899 96.843 42.2424 98.5058C42.3557 99.7101 42.4976 100.506 42.8 101.59L43.0853 102.623L42.9506 103.659C42.8768 104.228 42.803 104.914 42.7869 105.184C42.7016 106.794 42.856 108.981 43.1515 110.364C43.4309 111.668 43.7655 112.328 44.5845 113.185C45.6899 114.35 47.6475 115.687 48.6646 115.97C49.8269 116.3 51.5959 116.163 53.155 115.629C53.8555 115.39 54.7158 114.904 55.5555 114.266C56.5889 113.482 57.9016 111.988 60.3845 108.752C62.2018 106.391 63.2311 105.104 63.6918 104.637C64.1525 104.169 64.5191 104.039 64.9789 104.182L65.1419 104.233L64.9097 104.591C64.6051 105.059 62.6319 108.251 61.6056 109.935C60.7364 111.359 59.4494 113.693 59.1323 114.416C58.342 116.211 57.7276 118.534 57.4608 120.734C57.2687 122.337 57.3112 123.326 57.6365 124.889C57.8883 126.107 58.0929 126.711 58.4859 127.375C58.791 127.891 59.0726 128.224 59.7405 128.839C60.3187 129.381 60.3404 129.387 60.5712 129.139C60.6402 129.062 60.8632 128.792 61.0661 128.54C61.5519 127.93 61.6708 127.665 61.7366 127.056C61.7853 126.63 61.7711 126.494 61.5354 125.354C61.1266 123.349 61.0789 122.7 61.238 121.335C61.6 118.206 62.3658 115.909 64.4031 111.833C65.3968 109.84 66.3488 108.207 66.8763 107.585C67.1871 107.213 67.1934 107.211 67.1244 107.521C66.7707 109.079 66.3806 110.441 65.719 112.401C64.8302 115.059 64.7641 115.4 64.823 117.202C64.9018 119.667 65.1472 121.236 65.7365 123.029C66.2549 124.607 66.7849 125.494 67.7309 126.359C68.9769 127.499 70.1214 127.941 71.6831 127.885C72.504 127.853 73.0436 127.756 73.492 127.561C73.7194 127.463 74.1316 127.323 74.4113 127.248C75.4884 126.977 76.0736 126.638 78.0274 125.163C79.4235 124.112 80.2252 123.604 81.533 122.951C82.5088 122.466 83.2348 122.236 83.9677 122.172L84.5979 122.12L85.0021 121.825C85.2262 121.66 85.6092 121.393 85.8613 121.233C86.6036 120.75 87.097 120.261 87.9344 119.179C88.7254 118.154 89.2911 117.303 89.9062 116.213C90.6022 114.971 90.6687 114.782 90.7991 113.575C91.0711 111.035 90.6419 109.263 89.3215 107.459C88.6697 106.573 88.0253 105.907 87.1998 105.267C86.1323 104.438 85.8193 104.25 81.5555 101.844C79.188 100.509 77.3668 99.4581 77.3486 99.4188C77.3239 99.3641 77.3313 99.3508 77.3947 99.3459C77.5622 99.3356 78.5078 99.7004 81.0614 100.751C84.4359 102.137 85.3708 102.449 86.6402 102.589C88.681 102.821 90.3454 102.754 92.2729 102.363C94.4574 101.92 95.8341 101.19 97.2473 99.7236C98.1887 98.7536 99.3783 97.1556 100.028 96.0038C100.545 95.0793 100.714 94.5465 100.838 93.4059C101.014 91.76 100.849 90.6484 100.225 89.2379C100.05 88.8421 99.6554 87.9389 99.352 87.2325C98.5606 85.413 98.4346 84.795 98.3743 82.5035C98.3449 81.1953 98.2804 80.3968 98.1601 79.6075C97.871 77.7571 97.1062 76.1679 96.0231 75.1787C95.6551 74.8373 94.5959 74.1816 94.1166 73.9926Z" fill="#FDFACC"/>
</g>
<g clip-path="url(#clip8_1_66820)">
<path d="M94.1166 73.9926C93.2449 73.658 92.693 73.5619 91.6054 73.5651C89.8705 73.5696 87.9218 73.9888 86.4 74.6896C85.5715 75.0659 83.9875 75.9934 83.358 76.4644C82.9199 76.7933 82.4531 77.3968 81.194 79.2698C80.5482 80.2262 80.2174 80.7319 78.4497 83.4525C76.7719 86.0318 75.9074 87.2953 75.7436 87.4066C75.6101 87.5 76.1086 86.3034 77.8723 82.2831C80.4002 76.5238 80.784 75.5127 81.0456 73.8857C81.4281 71.4717 80.6329 68.8356 78.9064 66.8027C78.0412 65.7852 77.1574 65.2749 75.7582 64.9801C74.537 64.7276 73.3496 64.7733 71.8459 65.1469C70.4965 65.4795 69.6586 65.8097 67.5793 66.8185C65.6261 67.7646 64.4791 68.3742 63.9816 68.7278C63.8103 68.8522 63.6814 68.9017 63.5329 68.9052C63.2766 68.9119 63.1665 68.937 61.7172 69.2947C60.1008 69.6978 59.3898 69.9017 58.6668 70.1804C57.1704 70.7558 56.2049 71.3748 55.2323 72.3912C54.581 73.0711 54.2846 73.4799 53.7342 74.4552C53.0656 75.6489 52.6824 76.5963 52.6159 77.2512C52.5548 77.816 52.7167 79.1757 52.9305 79.9246C53.2629 81.0896 54.3253 82.9747 55.265 84.075C56.5016 85.5173 57.8426 86.6403 60.9941 88.8778C63.5431 90.6882 64.4786 91.4021 64.6797 91.6901L64.7751 91.8254L64.5552 91.9108C64.2872 92.0098 64.052 91.9701 63.3687 91.6952C62.6345 91.4032 61.6827 90.9419 59.9213 90.0181C56.6792 88.3171 55.2418 87.6691 54.08 87.3919C52.5264 87.0216 50.0404 87.3996 48.2261 88.2786C46.3172 89.209 45.144 90.3392 43.4092 92.9212C42.7946 93.8312 42.284 94.7359 42.1988 95.066C42.0731 95.5303 42.0899 96.843 42.2424 98.5058C42.3557 99.7101 42.4976 100.506 42.8 101.59L43.0853 102.623L42.9506 103.659C42.8768 104.228 42.803 104.914 42.7869 105.184C42.7016 106.794 42.856 108.981 43.1515 110.364C43.4309 111.668 43.7655 112.328 44.5845 113.185C45.6899 114.35 47.6475 115.687 48.6646 115.97C49.8269 116.3 51.5959 116.163 53.155 115.629C53.8555 115.39 54.7158 114.904 55.5555 114.266C56.5889 113.482 57.9016 111.988 60.3845 108.752C62.2018 106.391 63.2311 105.104 63.6918 104.637C64.1525 104.169 64.5191 104.039 64.9789 104.182L65.1419 104.233L64.9097 104.591C64.6051 105.059 62.6319 108.251 61.6056 109.935C60.7364 111.359 59.4494 113.693 59.1323 114.416C58.342 116.211 57.7276 118.534 57.4608 120.734C57.2687 122.337 57.3112 123.326 57.6365 124.889C57.8883 126.107 58.0929 126.711 58.4859 127.375C58.791 127.891 59.0726 128.224 59.7405 128.839C60.3187 129.381 60.3404 129.387 60.5712 129.139C60.6402 129.062 60.8632 128.792 61.0661 128.54C61.5519 127.93 61.6708 127.665 61.7366 127.056C61.7853 126.63 61.7711 126.494 61.5354 125.354C61.1266 123.349 61.0789 122.7 61.238 121.335C61.6 118.206 62.3658 115.909 64.4031 111.833C65.3968 109.84 66.3488 108.207 66.8763 107.585C67.1871 107.213 67.1934 107.211 67.1244 107.521C66.7707 109.079 66.3806 110.441 65.719 112.401C64.8302 115.059 64.7641 115.4 64.823 117.202C64.9018 119.667 65.1472 121.236 65.7365 123.029C66.2549 124.607 66.7849 125.494 67.7309 126.359C68.9769 127.499 70.1214 127.941 71.6831 127.885C72.504 127.853 73.0436 127.756 73.492 127.561C73.7194 127.463 74.1316 127.323 74.4113 127.248C75.4884 126.977 76.0736 126.638 78.0274 125.163C79.4235 124.112 80.2252 123.604 81.533 122.951C82.5088 122.466 83.2348 122.236 83.9677 122.172L84.5979 122.12L85.0021 121.825C85.2262 121.66 85.6092 121.393 85.8613 121.233C86.6036 120.75 87.097 120.261 87.9344 119.179C88.7254 118.154 89.2911 117.303 89.9062 116.213C90.6022 114.971 90.6687 114.782 90.7991 113.575C91.0711 111.035 90.6419 109.263 89.3215 107.459C88.6697 106.573 88.0253 105.907 87.1998 105.267C86.1323 104.438 85.8193 104.25 81.5555 101.844C79.188 100.509 77.3668 99.4581 77.3486 99.4188C77.3239 99.3641 77.3313 99.3508 77.3947 99.3459C77.5622 99.3356 78.5078 99.7004 81.0614 100.751C84.4359 102.137 85.3708 102.449 86.6402 102.589C88.681 102.821 90.3454 102.754 92.2729 102.363C94.4574 101.92 95.8341 101.19 97.2473 99.7236C98.1887 98.7536 99.3783 97.1556 100.028 96.0038C100.545 95.0793 100.714 94.5465 100.838 93.4059C101.014 91.76 100.849 90.6484 100.225 89.2379C100.05 88.8421 99.6554 87.9389 99.352 87.2325C98.5606 85.413 98.4346 84.795 98.3743 82.5035C98.3449 81.1953 98.2804 80.3968 98.1601 79.6075C97.871 77.7571 97.1062 76.1679 96.0231 75.1787C95.6551 74.8373 94.5959 74.1816 94.1166 73.9926Z" fill="#7E6935"/>
</g>
<path style="mix-blend-mode:overlay" d="M173.755 76.0042C170.238 117.029 132.877 148.76 89.0038 147.898C43.1729 147.017 6.10981 110.867 6.93556 67.8536C7.73121 24.839 46.129 -9.83528 91.9592 -8.92528C137.79 -8.04353 174.853 28.1057 174.027 71.1195L173.786 76.005L173.755 76.0042Z" fill="url(#paint20_radial_1_66820)"/>
<g clip-path="url(#clip9_1_66820)">
<path d="M75.5371 344.44C53.5419 347.684 31.8694 327.241 27.1689 298.79C22.4326 270.339 36.4623 244.658 58.4576 241.414C80.4528 238.171 102.089 258.614 106.825 287.065C111.526 315.516 97.5323 341.197 75.5371 344.44Z" fill="url(#paint21_radial_1_66820)"/>
<path d="M77.0785 344.204L83.8242 343.157L69.4358 239.793L58.0974 241.482L77.0785 344.204Z" fill="#573B1C"/>
<path d="M85.9781 342.921C63.9828 346.165 42.3465 325.721 37.6101 297.27C32.8738 268.819 46.9035 243.138 68.8628 239.895C90.8581 236.651 112.53 257.094 117.231 285.545C121.967 313.996 107.937 339.677 85.9781 342.921Z" fill="url(#paint22_linear_1_66820)"/>
<path d="M85.3327 339.068C64.988 342.076 44.9305 323.153 40.5888 296.831C36.2113 270.508 49.1645 246.72 69.5092 243.746C89.8539 240.739 109.911 259.662 114.253 285.984C118.631 312.307 105.677 336.061 85.3327 339.068Z" fill="#FFFF3C"/>
<path style="mix-blend-mode:multiply" d="M85.3327 339.068C64.988 342.076 44.9305 323.153 40.5888 296.831C36.2113 270.508 49.1645 246.72 69.5092 243.746C89.8539 240.739 109.911 259.662 114.253 285.984C118.631 312.307 105.677 336.061 85.3327 339.068Z" fill="url(#paint23_radial_1_66820)"/>
<path d="M84.291 336.263C64.8793 339.136 45.7904 321.396 41.6999 296.661C37.5736 271.927 50.0243 249.558 69.4361 246.686C88.8479 243.814 107.937 261.553 112.027 286.288C116.118 311.022 103.703 333.391 84.291 336.23L84.291 336.263Z" fill="url(#paint24_linear_1_66820)"/>
<g clip-path="url(#clip10_1_66820)">
<path d="M86.7453 265.513C85.966 265.628 85.5207 265.787 84.7229 266.24C83.45 266.962 82.192 268.078 81.3645 269.224C80.9117 269.844 80.1324 271.182 79.8652 271.79C79.6797 272.213 79.5869 272.85 79.4385 274.748C79.3605 275.719 79.3272 276.228 79.1564 278.96C78.9932 281.551 78.8818 282.838 78.8076 282.988C78.7482 283.112 78.6184 282.026 78.2473 278.34C77.7166 273.06 77.5793 272.157 77.0969 270.853C76.377 268.921 74.6996 267.313 72.5881 266.535C71.5305 266.146 70.6695 266.137 69.5191 266.501C68.5172 266.821 67.6637 267.347 66.7137 268.245C65.8602 269.049 65.3814 269.639 64.2719 271.242C63.2291 272.747 62.6391 273.671 62.4201 274.137C62.3459 274.299 62.2717 274.389 62.1641 274.453C61.9785 274.565 61.908 274.629 60.9914 275.492C59.9709 276.459 59.533 276.903 59.1174 277.408C58.2564 278.451 57.8037 279.306 57.5105 280.457C57.3139 281.226 57.2656 281.649 57.2656 282.594C57.2693 283.749 57.3807 284.604 57.6033 285.113C57.7926 285.553 58.4754 286.485 58.943 286.947C59.6703 287.665 61.2326 288.61 62.3793 289.029C63.8859 289.577 65.3369 289.846 68.5803 290.184C71.2039 290.457 72.1873 290.594 72.4545 290.722L72.5807 290.782L72.4545 290.936C72.2986 291.12 72.1094 291.189 71.4934 291.27C70.8328 291.36 69.9422 291.415 68.2648 291.466C65.1773 291.561 63.8525 291.68 62.884 291.958C61.5889 292.33 59.9189 293.639 58.9504 295.037C57.9336 296.512 57.5402 297.829 57.3361 300.445C57.2619 301.369 57.2619 302.246 57.3361 302.523C57.4363 302.917 57.993 303.875 58.7945 305.033C59.3771 305.871 59.8113 306.397 60.483 307.069L61.1213 307.71L61.4516 308.527C61.6334 308.976 61.8635 309.51 61.9637 309.715C62.5686 310.934 63.5891 312.477 64.3795 313.371C65.1254 314.213 65.6449 314.56 66.6023 314.85C67.8975 315.248 69.8902 315.419 70.7549 315.205C71.7457 314.966 72.9889 314.132 73.9129 313.093C74.3285 312.627 74.759 311.913 75.1115 311.096C75.5457 310.091 75.8908 308.45 76.3732 305.042C76.7295 302.553 76.9522 301.181 77.0969 300.646C77.2416 300.112 77.4568 299.864 77.8539 299.778L77.9949 299.749L77.9727 300.108C77.943 300.578 77.8168 303.742 77.7611 305.405C77.7129 306.812 77.7352 309.061 77.802 309.724C77.9652 311.37 78.4773 313.332 79.1936 315.06C79.7168 316.317 80.1584 317.027 81.0453 318.04C81.7355 318.831 82.1363 319.19 82.7004 319.515C83.1383 319.767 83.4834 319.896 84.2293 320.071C84.8787 320.229 84.8973 320.225 84.9641 319.947C84.9826 319.862 85.0346 319.571 85.0791 319.301C85.183 318.651 85.1607 318.408 84.9566 317.933C84.8156 317.6 84.7488 317.506 84.1031 316.766C82.9713 315.462 82.667 315.004 82.218 313.935C81.1863 311.485 80.7967 309.48 80.6037 305.64C80.5072 303.763 80.5295 302.169 80.6594 301.493C80.7336 301.091 80.7373 301.087 80.8152 301.343C81.2012 302.635 81.4795 303.798 81.8061 305.512C82.2551 307.834 82.3479 308.112 83.1383 309.412C84.2182 311.19 85.0494 312.242 86.2258 313.315C87.2611 314.26 88.0182 314.692 89.0721 314.936C90.46 315.257 91.4842 315.107 92.6086 314.419C93.1986 314.055 93.5549 313.76 93.8035 313.431C93.9297 313.264 94.1746 312.99 94.349 312.819C95.0281 312.174 95.3176 311.682 96.1414 309.788C96.7314 308.437 97.11 307.731 97.8002 306.709C98.316 305.948 98.7539 305.478 99.266 305.127L99.7076 304.828L99.882 304.443C99.9785 304.229 100.149 303.875 100.268 303.652C100.613 302.99 100.773 302.425 100.94 301.284C101.096 300.202 101.159 299.342 101.159 298.286C101.155 297.085 101.125 296.918 100.721 295.977C99.8672 293.998 98.817 292.873 97.0988 292.095C96.2527 291.714 95.5031 291.492 94.6311 291.364C93.5029 291.197 93.1949 291.189 89.0646 291.189C86.7713 291.189 84.9975 291.171 84.9678 291.15C84.927 291.12 84.927 291.107 84.9715 291.077C85.0902 291 85.9363 290.876 88.2482 290.59C91.3023 290.209 92.1188 290.051 93.1096 289.628C94.7053 288.952 95.9002 288.213 97.1545 287.127C98.5758 285.895 99.2846 284.788 99.715 283.125C100.004 282.021 100.216 280.354 100.216 279.238C100.212 278.344 100.116 277.883 99.7336 276.993C99.1807 275.71 98.598 274.962 97.5553 274.184C97.2621 273.966 96.5979 273.466 96.082 273.072C94.7461 272.063 94.3973 271.661 93.4027 270.002C92.8387 269.053 92.4602 268.493 92.0445 267.963C91.0648 266.723 89.8439 265.872 88.6379 265.594C88.226 265.496 87.1758 265.453 86.7453 265.513Z" fill="#FDFACC"/>
</g>
<g clip-path="url(#clip11_1_66820)">
<path d="M86.7453 265.513C85.966 265.628 85.5207 265.787 84.7229 266.24C83.45 266.962 82.192 268.078 81.3645 269.224C80.9117 269.844 80.1324 271.182 79.8652 271.79C79.6797 272.213 79.5869 272.85 79.4385 274.748C79.3605 275.719 79.3272 276.228 79.1564 278.96C78.9932 281.551 78.8818 282.838 78.8076 282.988C78.7482 283.112 78.6184 282.026 78.2473 278.34C77.7166 273.06 77.5793 272.157 77.0969 270.853C76.377 268.921 74.6996 267.313 72.5881 266.535C71.5305 266.146 70.6695 266.137 69.5191 266.501C68.5172 266.821 67.6637 267.347 66.7137 268.245C65.8602 269.049 65.3814 269.639 64.2719 271.242C63.2291 272.747 62.6391 273.671 62.4201 274.137C62.3459 274.299 62.2717 274.389 62.1641 274.453C61.9785 274.565 61.908 274.629 60.9914 275.492C59.9709 276.459 59.533 276.903 59.1174 277.408C58.2564 278.451 57.8037 279.306 57.5105 280.457C57.3139 281.226 57.2656 281.649 57.2656 282.594C57.2693 283.749 57.3807 284.604 57.6033 285.113C57.7926 285.553 58.4754 286.485 58.943 286.947C59.6703 287.665 61.2326 288.61 62.3793 289.029C63.8859 289.577 65.3369 289.846 68.5803 290.184C71.2039 290.457 72.1873 290.594 72.4545 290.722L72.5807 290.782L72.4545 290.936C72.2986 291.12 72.1094 291.189 71.4934 291.27C70.8328 291.36 69.9422 291.415 68.2648 291.466C65.1773 291.561 63.8525 291.68 62.884 291.958C61.5889 292.33 59.9189 293.639 58.9504 295.037C57.9336 296.512 57.5402 297.829 57.3361 300.445C57.2619 301.369 57.2619 302.246 57.3361 302.523C57.4363 302.917 57.993 303.875 58.7945 305.033C59.3771 305.871 59.8113 306.397 60.483 307.069L61.1213 307.71L61.4516 308.527C61.6334 308.976 61.8635 309.51 61.9637 309.715C62.5686 310.934 63.5891 312.477 64.3795 313.371C65.1254 314.213 65.6449 314.56 66.6023 314.85C67.8975 315.248 69.8902 315.419 70.7549 315.205C71.7457 314.966 72.9889 314.132 73.9129 313.093C74.3285 312.627 74.759 311.913 75.1115 311.096C75.5457 310.091 75.8908 308.45 76.3732 305.042C76.7295 302.553 76.9522 301.181 77.0969 300.646C77.2416 300.112 77.4568 299.864 77.8539 299.778L77.9949 299.749L77.9727 300.108C77.943 300.578 77.8168 303.742 77.7611 305.405C77.7129 306.812 77.7352 309.061 77.802 309.724C77.9652 311.37 78.4773 313.332 79.1936 315.06C79.7168 316.317 80.1584 317.027 81.0453 318.04C81.7355 318.831 82.1363 319.19 82.7004 319.515C83.1383 319.767 83.4834 319.896 84.2293 320.071C84.8787 320.229 84.8973 320.225 84.9641 319.947C84.9826 319.862 85.0346 319.571 85.0791 319.301C85.183 318.651 85.1607 318.408 84.9566 317.933C84.8156 317.6 84.7488 317.506 84.1031 316.766C82.9713 315.462 82.667 315.004 82.218 313.935C81.1863 311.485 80.7967 309.48 80.6037 305.64C80.5072 303.763 80.5295 302.169 80.6594 301.493C80.7336 301.091 80.7373 301.087 80.8152 301.343C81.2012 302.635 81.4795 303.798 81.8061 305.512C82.2551 307.834 82.3479 308.112 83.1383 309.412C84.2182 311.19 85.0494 312.242 86.2258 313.315C87.2611 314.26 88.0182 314.692 89.0721 314.936C90.46 315.257 91.4842 315.107 92.6086 314.419C93.1986 314.055 93.5549 313.76 93.8035 313.431C93.9297 313.264 94.1746 312.99 94.349 312.819C95.0281 312.174 95.3176 311.682 96.1414 309.788C96.7314 308.437 97.11 307.731 97.8002 306.709C98.316 305.948 98.7539 305.478 99.266 305.127L99.7076 304.828L99.882 304.443C99.9785 304.229 100.149 303.875 100.268 303.652C100.613 302.99 100.773 302.425 100.94 301.284C101.096 300.202 101.159 299.342 101.159 298.286C101.155 297.085 101.125 296.918 100.721 295.977C99.8672 293.998 98.817 292.873 97.0988 292.095C96.2527 291.714 95.5031 291.492 94.6311 291.364C93.5029 291.197 93.1949 291.189 89.0646 291.189C86.7713 291.189 84.9975 291.171 84.9678 291.15C84.927 291.12 84.927 291.107 84.9715 291.077C85.0902 291 85.9363 290.876 88.2482 290.59C91.3023 290.209 92.1188 290.051 93.1096 289.628C94.7053 288.952 95.9002 288.213 97.1545 287.127C98.5758 285.895 99.2846 284.788 99.715 283.125C100.004 282.021 100.216 280.354 100.216 279.238C100.212 278.344 100.116 277.883 99.7336 276.993C99.1807 275.71 98.598 274.962 97.5553 274.184C97.2621 273.966 96.5979 273.466 96.082 273.072C94.7461 272.063 94.3973 271.661 93.4027 270.002C92.8387 269.053 92.4602 268.493 92.0445 267.963C91.0648 266.723 89.8439 265.872 88.6379 265.594C88.226 265.496 87.1758 265.453 86.7453 265.513Z" fill="#7E6935"/>
</g>
<path style="mix-blend-mode:overlay" d="M165.747 312.688C163.82 344.368 135.637 369.534 101.812 369.708C66.4778 369.904 37.2262 342.756 37.0405 309.594C36.8315 276.432 65.7581 248.978 101.092 248.804C136.426 248.608 165.678 275.756 165.863 308.919L165.77 312.688L165.747 312.688Z" fill="url(#paint25_radial_1_66820)"/>
<path style="mix-blend-mode:overlay" d="M114.88 263.371C112.953 295.051 84.7695 320.217 50.9445 320.391C15.6106 320.587 -13.641 293.439 -13.8267 260.277C-14.0356 227.115 14.8909 199.661 50.2249 199.487C85.5588 199.291 114.81 226.439 114.996 259.601L114.903 263.371L114.88 263.371Z" fill="url(#paint26_radial_1_66820)"/>
</g>
<defs>
<radialGradient id="paint0_radial_1_66820" cx="0" cy="0" r="1" gradientTransform="matrix(-19.3519 23.0969 24.6096 18.1624 312.712 125.709)" gradientUnits="userSpaceOnUse">
<stop stop-color="#FDFAC1"/>
<stop offset="0.11" stop-color="#F5EFAF"/>
<stop offset="0.33" stop-color="#E3D283"/>
<stop offset="0.37" stop-color="#E0CD7A"/>
<stop offset="0.69" stop-color="#D5AB2E"/>
<stop offset="1" stop-color="#65371C"/>
</radialGradient>
<linearGradient id="paint1_linear_1_66820" x1="329.488" y1="95.3681" x2="288.663" y2="150.684" gradientUnits="userSpaceOnUse">
<stop stop-color="#E9BD37"/>
<stop offset="0.25" stop-color="#FDFAC1"/>
<stop offset="0.31" stop-color="#F2EBAF"/>
<stop offset="0.42" stop-color="#D7C582"/>
<stop offset="0.57" stop-color="#AC893B"/>
<stop offset="0.6" stop-color="#A68030"/>
<stop offset="0.87" stop-color="#E0CD7A"/>
<stop offset="1" stop-color="#FDFAC1"/>
</linearGradient>
<radialGradient id="paint2_radial_1_66820" cx="0" cy="0" r="1" gradientTransform="matrix(-17.9041 21.3689 22.7684 16.8036 307.373 121.767)" gradientUnits="userSpaceOnUse">
<stop stop-color="#FDFAC1"/>
<stop offset="0.11" stop-color="#F5EFAF"/>
<stop offset="0.33" stop-color="#E3D283"/>
<stop offset="0.37" stop-color="#E0CD7A"/>
<stop offset="0.69" stop-color="#A95823"/>
<stop offset="1" stop-color="#5A3A19"/>
</radialGradient>
<linearGradient id="paint3_linear_1_66820" x1="266.595" y1="131.877" x2="319.95" y2="117.26" gradientUnits="userSpaceOnUse">
<stop stop-color="#EDC73D"/>
<stop offset="0.25" stop-color="#FDFACC"/>
<stop offset="0.31" stop-color="#F4EDBA"/>
<stop offset="0.42" stop-color="#DDCC8D"/>
<stop offset="0.57" stop-color="#BA9846"/>
<stop offset="0.6" stop-color="#B4903A"/>
<stop offset="0.87" stop-color="#E6D48A"/>
<stop offset="1" stop-color="#FDFACC"/>
</linearGradient>
<radialGradient id="paint4_radial_1_66820" cx="0" cy="0" r="1" gradientTransform="matrix(83.5443 -0.451616 0.481191 78.4089 293.568 131.513)" gradientUnits="userSpaceOnUse">
<stop stop-color="white"/>
<stop offset="0.03" stop-color="white" stop-opacity="0.88"/>
<stop offset="0.09" stop-color="white" stop-opacity="0.64"/>
<stop offset="0.15" stop-color="white" stop-opacity="0.45"/>
<stop offset="0.21" stop-color="white" stop-opacity="0.29"/>
<stop offset="0.26" stop-color="white" stop-opacity="0.18"/>
<stop offset="0.3" stop-color="white" stop-opacity="0.11"/>
<stop offset="0.34" stop-color="white" stop-opacity="0.09"/>
<stop offset="0.4" stop-color="white" stop-opacity="0.05"/>
<stop offset="0.51" stop-color="white" stop-opacity="0.01"/>
<stop offset="0.66" stop-color="white" stop-opacity="0"/>
</radialGradient>
<radialGradient id="paint5_radial_1_66820" cx="0" cy="0" r="1" gradientTransform="matrix(15.169 24.9787 -26.7378 15.5701 324.174 450.736)" gradientUnits="userSpaceOnUse">
<stop stop-color="#FDFAC1"/>
<stop offset="0.11" stop-color="#F5EFAF"/>
<stop offset="0.33" stop-color="#E3D283"/>
<stop offset="0.37" stop-color="#E0CD7A"/>
<stop offset="0.69" stop-color="#D5AB2E"/>
<stop offset="1" stop-color="#65371C"/>
</radialGradient>
<linearGradient id="paint6_linear_1_66820" x1="312.66" y1="418.796" x2="346.271" y2="476.515" gradientUnits="userSpaceOnUse">
<stop stop-color="#E9BD37"/>
<stop offset="0.25" stop-color="#FDFAC1"/>
<stop offset="0.31" stop-color="#F2EBAF"/>
<stop offset="0.42" stop-color="#D7C582"/>
<stop offset="0.57" stop-color="#AC893B"/>
<stop offset="0.6" stop-color="#A68030"/>
<stop offset="0.87" stop-color="#E0CD7A"/>
<stop offset="1" stop-color="#FDFAC1"/>
</linearGradient>
<radialGradient id="paint7_radial_1_66820" cx="0" cy="0" r="1" gradientTransform="matrix(14.0341 23.1099 -24.7374 14.4052 329.997 447.346)" gradientUnits="userSpaceOnUse">
<stop stop-color="#FDFAC1"/>
<stop offset="0.11" stop-color="#F5EFAF"/>
<stop offset="0.33" stop-color="#E3D283"/>
<stop offset="0.37" stop-color="#E0CD7A"/>
<stop offset="0.69" stop-color="#A95823"/>
<stop offset="1" stop-color="#5A3A19"/>
</radialGradient>
<linearGradient id="paint8_linear_1_66820" x1="367.998" y1="461.583" x2="319.049" y2="440.211" gradientUnits="userSpaceOnUse">
<stop stop-color="#EDC73D"/>
<stop offset="0.25" stop-color="#FDFACC"/>
<stop offset="0.31" stop-color="#F4EDBA"/>
<stop offset="0.42" stop-color="#DDCC8D"/>
<stop offset="0.57" stop-color="#BA9846"/>
<stop offset="0.6" stop-color="#B4903A"/>
<stop offset="0.87" stop-color="#E6D48A"/>
<stop offset="1" stop-color="#FDFACC"/>
</linearGradient>
<radialGradient id="paint9_radial_1_66820" cx="0" cy="0" r="1" gradientTransform="matrix(38.1509 -15.5322 14.609 35.7953 348.766 452.321)" gradientUnits="userSpaceOnUse">
<stop stop-color="white"/>
<stop offset="0.03" stop-color="white" stop-opacity="0.88"/>
<stop offset="0.09" stop-color="white" stop-opacity="0.64"/>
<stop offset="0.15" stop-color="white" stop-opacity="0.45"/>
<stop offset="0.21" stop-color="white" stop-opacity="0.29"/>
<stop offset="0.26" stop-color="white" stop-opacity="0.18"/>
<stop offset="0.3" stop-color="white" stop-opacity="0.11"/>
<stop offset="0.34" stop-color="white" stop-opacity="0.09"/>
<stop offset="0.4" stop-color="white" stop-opacity="0.05"/>
<stop offset="0.51" stop-color="white" stop-opacity="0.01"/>
<stop offset="0.66" stop-color="white" stop-opacity="0"/>
</radialGradient>
<radialGradient id="paint10_radial_1_66820" cx="0" cy="0" r="1" gradientTransform="matrix(38.1509 -15.5322 14.609 35.7953 306.825 435.147)" gradientUnits="userSpaceOnUse">
<stop stop-color="white"/>
<stop offset="0.03" stop-color="white" stop-opacity="0.88"/>
<stop offset="0.09" stop-color="white" stop-opacity="0.64"/>
<stop offset="0.15" stop-color="white" stop-opacity="0.45"/>
<stop offset="0.21" stop-color="white" stop-opacity="0.29"/>
<stop offset="0.26" stop-color="white" stop-opacity="0.18"/>
<stop offset="0.3" stop-color="white" stop-opacity="0.11"/>
<stop offset="0.34" stop-color="white" stop-opacity="0.09"/>
<stop offset="0.4" stop-color="white" stop-opacity="0.05"/>
<stop offset="0.51" stop-color="white" stop-opacity="0.01"/>
<stop offset="0.66" stop-color="white" stop-opacity="0"/>
</radialGradient>
<radialGradient id="paint11_radial_1_66820" cx="0" cy="0" r="1" gradientTransform="matrix(-25.1324 29.996 31.9605 23.5875 260.895 320.216)" gradientUnits="userSpaceOnUse">
<stop stop-color="#FDFAC1"/>
<stop offset="0.11" stop-color="#F5EFAF"/>
<stop offset="0.33" stop-color="#E3D283"/>
<stop offset="0.37" stop-color="#E0CD7A"/>
<stop offset="0.69" stop-color="#D5AB2E"/>
<stop offset="1" stop-color="#65371C"/>
</radialGradient>
<linearGradient id="paint12_linear_1_66820" x1="282.684" y1="280.813" x2="229.665" y2="352.652" gradientUnits="userSpaceOnUse">
<stop stop-color="#E9BD37"/>
<stop offset="0.25" stop-color="#FDFAC1"/>
<stop offset="0.31" stop-color="#F2EBAF"/>
<stop offset="0.42" stop-color="#D7C582"/>
<stop offset="0.57" stop-color="#AC893B"/>
<stop offset="0.6" stop-color="#A68030"/>
<stop offset="0.87" stop-color="#E0CD7A"/>
<stop offset="1" stop-color="#FDFAC1"/>
</linearGradient>
<radialGradient id="paint13_radial_1_66820" cx="0" cy="0" r="1" gradientTransform="matrix(-23.2521 27.7518 29.5694 21.8228 253.958 315.097)" gradientUnits="userSpaceOnUse">
<stop stop-color="#FDFAC1"/>
<stop offset="0.11" stop-color="#F5EFAF"/>
<stop offset="0.33" stop-color="#E3D283"/>
<stop offset="0.37" stop-color="#E0CD7A"/>
<stop offset="0.69" stop-color="#A95823"/>
<stop offset="1" stop-color="#5A3A19"/>
</radialGradient>
<linearGradient id="paint14_linear_1_66820" x1="201.002" y1="328.227" x2="270.295" y2="309.244" gradientUnits="userSpaceOnUse">
<stop stop-color="#EDC73D"/>
<stop offset="0.25" stop-color="#FDFACC"/>
<stop offset="0.31" stop-color="#F4EDBA"/>
<stop offset="0.42" stop-color="#DDCC8D"/>
<stop offset="0.57" stop-color="#BA9846"/>
<stop offset="0.6" stop-color="#B4903A"/>
<stop offset="0.87" stop-color="#E6D48A"/>
<stop offset="1" stop-color="#FDFACC"/>
</linearGradient>
<radialGradient id="paint15_radial_1_66820" cx="0" cy="0" r="1" gradientTransform="matrix(83.5443 -0.451616 0.481191 78.4089 235.039 306.332)" gradientUnits="userSpaceOnUse">
<stop stop-color="white"/>
<stop offset="0.03" stop-color="white" stop-opacity="0.88"/>
<stop offset="0.09" stop-color="white" stop-opacity="0.64"/>
<stop offset="0.15" stop-color="white" stop-opacity="0.45"/>
<stop offset="0.21" stop-color="white" stop-opacity="0.29"/>
<stop offset="0.26" stop-color="white" stop-opacity="0.18"/>
<stop offset="0.3" stop-color="white" stop-opacity="0.11"/>
<stop offset="0.34" stop-color="white" stop-opacity="0.09"/>
<stop offset="0.4" stop-color="white" stop-opacity="0.05"/>
<stop offset="0.51" stop-color="white" stop-opacity="0.01"/>
<stop offset="0.66" stop-color="white" stop-opacity="0"/>
</radialGradient>
<radialGradient id="paint16_radial_1_66820" cx="0" cy="0" r="1" gradientTransform="matrix(-38.8044 44.048 47.0511 36.5604 81.0646 108.391)" gradientUnits="userSpaceOnUse">
<stop stop-color="#FDFAC1"/>
<stop offset="0.11" stop-color="#F5EFAF"/>
<stop offset="0.33" stop-color="#E3D283"/>
<stop offset="0.37" stop-color="#E0CD7A"/>
<stop offset="0.69" stop-color="#D5AB2E"/>
<stop offset="1" stop-color="#65371C"/>
</radialGradient>
<linearGradient id="paint17_linear_1_66820" x1="115.205" y1="50.1112" x2="33.0251" y2="155.871" gradientUnits="userSpaceOnUse">
<stop stop-color="#E9BD37"/>
<stop offset="0.25" stop-color="#FDFAC1"/>
<stop offset="0.31" stop-color="#F2EBAF"/>
<stop offset="0.42" stop-color="#D7C582"/>
<stop offset="0.57" stop-color="#AC893B"/>
<stop offset="0.6" stop-color="#A68030"/>
<stop offset="0.87" stop-color="#E0CD7A"/>
<stop offset="1" stop-color="#FDFAC1"/>
</linearGradient>
<radialGradient id="paint18_radial_1_66820" cx="0" cy="0" r="1" gradientTransform="matrix(-35.9013 40.7525 43.531 33.8251 70.8527 100.456)" gradientUnits="userSpaceOnUse">
<stop stop-color="#FDFAC1"/>
<stop offset="0.11" stop-color="#F5EFAF"/>
<stop offset="0.33" stop-color="#E3D283"/>
<stop offset="0.37" stop-color="#E0CD7A"/>
<stop offset="0.69" stop-color="#A95823"/>
<stop offset="1" stop-color="#5A3A19"/>
</radialGradient>
<linearGradient id="paint19_linear_1_66820" x1="-9.04868" y1="118.177" x2="95.5692" y2="92.2875" gradientUnits="userSpaceOnUse">
<stop stop-color="#EDC73D"/>
<stop offset="0.25" stop-color="#FDFACC"/>
<stop offset="0.31" stop-color="#F4EDBA"/>
<stop offset="0.42" stop-color="#DDCC8D"/>
<stop offset="0.57" stop-color="#BA9846"/>
<stop offset="0.6" stop-color="#B4903A"/>
<stop offset="0.87" stop-color="#E6D48A"/>
<stop offset="1" stop-color="#FDFACC"/>
</linearGradient>
<radialGradient id="paint20_radial_1_66820" cx="0" cy="0" r="1" gradientTransform="matrix(83.5298 1.61908 -1.46295 78.3967 90.4293 69.4685)" gradientUnits="userSpaceOnUse">
<stop stop-color="white"/>
<stop offset="0.03" stop-color="white" stop-opacity="0.88"/>
<stop offset="0.09" stop-color="white" stop-opacity="0.64"/>
<stop offset="0.15" stop-color="white" stop-opacity="0.45"/>
<stop offset="0.21" stop-color="white" stop-opacity="0.29"/>
<stop offset="0.26" stop-color="white" stop-opacity="0.18"/>
<stop offset="0.3" stop-color="white" stop-opacity="0.11"/>
<stop offset="0.34" stop-color="white" stop-opacity="0.09"/>
<stop offset="0.4" stop-color="white" stop-opacity="0.05"/>
<stop offset="0.51" stop-color="white" stop-opacity="0.01"/>
<stop offset="0.66" stop-color="white" stop-opacity="0"/>
</radialGradient>
<radialGradient id="paint21_radial_1_66820" cx="0" cy="0" r="1" gradientTransform="matrix(7.47744 45.0699 -47.8592 7.04164 66.6494 292.64)" gradientUnits="userSpaceOnUse">
<stop stop-color="#FDFAC1"/>
<stop offset="0.11" stop-color="#F5EFAF"/>
<stop offset="0.33" stop-color="#E3D283"/>
<stop offset="0.37" stop-color="#E0CD7A"/>
<stop offset="0.69" stop-color="#D5AB2E"/>
<stop offset="1" stop-color="#65371C"/>
</radialGradient>
<linearGradient id="paint22_linear_1_66820" x1="68.5253" y1="239.594" x2="83.7249" y2="342.899" gradientUnits="userSpaceOnUse">
<stop stop-color="#E9BD37"/>
<stop offset="0.25" stop-color="#FDFAC1"/>
<stop offset="0.31" stop-color="#F2EBAF"/>
<stop offset="0.42" stop-color="#D7C582"/>
<stop offset="0.57" stop-color="#AC893B"/>
<stop offset="0.6" stop-color="#A68030"/>
<stop offset="0.87" stop-color="#E0CD7A"/>
<stop offset="1" stop-color="#FDFAC1"/>
</linearGradient>
<radialGradient id="paint23_radial_1_66820" cx="0" cy="0" r="1" gradientTransform="matrix(6.918 41.698 -44.2785 6.51482 77.0722 291.107)" gradientUnits="userSpaceOnUse">
<stop stop-color="#FDFAC1"/>
<stop offset="0.11" stop-color="#F5EFAF"/>
<stop offset="0.33" stop-color="#E3D283"/>
<stop offset="0.37" stop-color="#E0CD7A"/>
<stop offset="0.69" stop-color="#A95823"/>
<stop offset="1" stop-color="#5A3A19"/>
</radialGradient>
<linearGradient id="paint24_linear_1_66820" x1="123.932" y1="333.87" x2="65.3402" y2="274.383" gradientUnits="userSpaceOnUse">
<stop stop-color="#EDC73D"/>
<stop offset="0.25" stop-color="#FDFACC"/>
<stop offset="0.31" stop-color="#F4EDBA"/>
<stop offset="0.42" stop-color="#DDCC8D"/>
<stop offset="0.57" stop-color="#BA9846"/>
<stop offset="0.6" stop-color="#B4903A"/>
<stop offset="0.87" stop-color="#E6D48A"/>
<stop offset="1" stop-color="#FDFACC"/>
</linearGradient>
<radialGradient id="paint25_radial_1_66820" cx="0" cy="0" r="1" gradientTransform="matrix(64.3987 -0.348121 0.370918 60.4402 101.411 309.243)" gradientUnits="userSpaceOnUse">
<stop stop-color="white"/>
<stop offset="0.03" stop-color="white" stop-opacity="0.88"/>
<stop offset="0.09" stop-color="white" stop-opacity="0.64"/>
<stop offset="0.15" stop-color="white" stop-opacity="0.45"/>
<stop offset="0.21" stop-color="white" stop-opacity="0.29"/>
<stop offset="0.26" stop-color="white" stop-opacity="0.18"/>
<stop offset="0.3" stop-color="white" stop-opacity="0.11"/>
<stop offset="0.34" stop-color="white" stop-opacity="0.09"/>
<stop offset="0.4" stop-color="white" stop-opacity="0.05"/>
<stop offset="0.51" stop-color="white" stop-opacity="0.01"/>
<stop offset="0.66" stop-color="white" stop-opacity="0"/>
</radialGradient>
<radialGradient id="paint26_radial_1_66820" cx="0" cy="0" r="1" gradientTransform="matrix(64.3987 -0.348121 0.370918 60.4402 50.5442 259.926)" gradientUnits="userSpaceOnUse">
<stop stop-color="white"/>
<stop offset="0.03" stop-color="white" stop-opacity="0.88"/>
<stop offset="0.09" stop-color="white" stop-opacity="0.64"/>
<stop offset="0.15" stop-color="white" stop-opacity="0.45"/>
<stop offset="0.21" stop-color="white" stop-opacity="0.29"/>
<stop offset="0.26" stop-color="white" stop-opacity="0.18"/>
<stop offset="0.3" stop-color="white" stop-opacity="0.11"/>
<stop offset="0.34" stop-color="white" stop-opacity="0.09"/>
<stop offset="0.4" stop-color="white" stop-opacity="0.05"/>
<stop offset="0.51" stop-color="white" stop-opacity="0.01"/>
<stop offset="0.66" stop-color="white" stop-opacity="0"/>
</radialGradient>
<clipPath id="clip0_1_66820">
<rect width="26.7321" height="33.2944" fill="white" transform="matrix(0.88288 0.469599 -0.469733 0.882808 303.137 99.4392)"/>
</clipPath>
<clipPath id="clip1_1_66820">
<rect width="26.7321" height="33.2944" fill="white" transform="matrix(0.88288 0.469599 -0.469733 0.882808 303.137 99.4392)"/>
</clipPath>
<clipPath id="clip2_1_66820">
<rect width="70.9878" height="72.95" fill="white" transform="matrix(0.928208 -0.372062 0.372179 0.928161 280.961 428.291)"/>
</clipPath>
<clipPath id="clip3_1_66820">
<rect width="28.1042" height="35.0069" fill="white" transform="matrix(0.928208 -0.372062 0.372179 0.928161 312.123 436.843)"/>
</clipPath>
<clipPath id="clip4_1_66820">
<rect width="28.1042" height="35.0069" fill="white" transform="matrix(0.928208 -0.372062 0.372179 0.928161 312.123 436.843)"/>
</clipPath>
<clipPath id="clip5_1_66820">
<rect width="34.717" height="43.2395" fill="white" transform="matrix(0.88288 0.469599 -0.469733 0.882808 248.459 286.1)"/>
</clipPath>
<clipPath id="clip6_1_66820">
<rect width="34.717" height="43.2395" fill="white" transform="matrix(0.88288 0.469599 -0.469733 0.882808 248.459 286.1)"/>
</clipPath>
<clipPath id="clip7_1_66820">
<rect width="52.078" height="64.8624" fill="white" transform="matrix(0.870966 0.491336 -0.491477 0.870895 63.6855 56.7676)"/>
</clipPath>
<clipPath id="clip8_1_66820">
<rect width="52.078" height="64.8624" fill="white" transform="matrix(0.870966 0.491336 -0.491477 0.870895 63.6855 56.7676)"/>
</clipPath>
<clipPath id="clip9_1_66820">
<rect width="110.984" height="114.046" fill="white" transform="translate(17 234.933)"/>
</clipPath>
<clipPath id="clip10_1_66820">
<rect width="43.9375" height="54.7292" fill="white" transform="translate(57.2441 265.47)"/>
</clipPath>
<clipPath id="clip11_1_66820">
<rect width="43.9375" height="54.7292" fill="white" transform="translate(57.2441 265.47)"/>
</clipPath>
</defs>
</svg>
