<svg width="428" height="522" viewBox="0 0 428 522" fill="none" xmlns="http://www.w3.org/2000/svg">
<path d="M112.663 129.53C127.362 140.359 152.123 133.799 167.997 114.855C183.871 95.9102 184.805 71.7629 170.135 60.9334C155.436 50.0757 130.676 56.6639 114.802 75.6084C98.9274 94.553 97.9937 118.7 112.663 129.53Z" fill="url(#paint0_radial_1_66901)"/>
<path d="M111.67 128.738L107.181 125.401L162.786 55.5043L170.377 61.1028L111.67 128.738Z" fill="#573B1C"/>
<path d="M105.704 124.384C120.403 135.213 145.164 128.653 161.038 109.709C176.912 90.7641 177.876 66.6168 163.176 55.7873C148.477 44.9578 123.717 51.5178 107.842 70.4623C91.9683 89.4069 91.0045 113.554 105.704 124.384Z" fill="url(#paint1_linear_1_66901)"/>
<path d="M107.842 121.81C121.427 131.848 144.35 125.769 159.049 108.238C173.719 90.7073 174.622 68.3697 161.007 58.3319C147.422 48.2941 124.5 54.3733 109.8 71.9041C95.1008 89.4349 94.2272 111.772 107.812 121.81L107.842 121.81Z" fill="#FFFF3C"/>
<path style="mix-blend-mode:multiply" d="M107.842 121.81C121.427 131.848 144.35 125.769 159.049 108.238C173.719 90.7073 174.622 68.3697 161.007 58.3319C147.422 48.2941 124.5 54.3733 109.8 71.9041C95.1008 89.4349 94.2272 111.772 107.812 121.81L107.842 121.81Z" fill="url(#paint2_radial_1_66901)"/>
<path d="M109.83 120.17C122.813 129.756 144.5 124.157 158.296 107.701C172.092 91.2444 172.754 70.1226 159.772 60.5373C146.789 50.9519 125.102 56.5504 111.306 73.0067C97.5103 89.4913 96.8476 110.585 109.83 120.17Z" fill="url(#paint3_linear_1_66901)"/>
<g clip-path="url(#clip0_1_66901)">
<path d="M149.088 72.1646C148.502 71.9559 148.132 71.901 147.407 71.9211C146.251 71.9528 144.959 72.2644 143.956 72.7568C143.41 73.0213 142.37 73.6658 141.958 73.9902C141.672 74.2167 141.37 74.6267 140.562 75.8962C140.148 76.5444 139.935 76.887 138.802 78.7299C137.726 80.4771 137.171 81.3338 137.064 81.4106C136.976 81.4751 137.289 80.6692 138.398 77.9599C139.988 74.0787 140.227 73.3983 140.374 72.3094C140.589 70.6937 140.016 68.9495 138.831 67.6228C138.238 66.9588 137.64 66.6332 136.703 66.4598C135.885 66.3117 135.094 66.3618 134.098 66.6356C133.204 66.8797 132.651 67.1137 131.282 67.8205C129.996 68.4836 129.241 68.9089 128.915 69.1528C128.803 69.2386 128.718 69.2737 128.619 69.2785C128.448 69.2872 128.375 69.3058 127.415 69.5682C126.345 69.8636 125.874 70.0113 125.397 70.2091C124.409 70.6174 123.776 71.046 123.144 71.7397C122.721 72.2036 122.531 72.4811 122.18 73.1403C121.754 73.9472 121.514 74.5851 121.481 75.0228C121.449 75.4003 121.58 76.3041 121.735 76.7998C121.975 77.571 122.715 78.8101 123.359 79.5281C124.207 80.4692 125.12 81.1957 127.257 82.6352C128.986 83.7999 129.621 84.2604 129.76 84.4491L129.826 84.5377L129.681 84.5982C129.504 84.6687 129.346 84.6462 128.887 84.4742C128.392 84.2917 127.75 83.9999 126.561 83.4131C124.372 82.3327 123.403 81.9245 122.624 81.7589C121.583 81.5377 119.932 81.8308 118.737 82.4468C117.48 83.0986 116.717 83.8714 115.603 85.6213C115.209 86.2381 114.883 86.8497 114.832 87.0711C114.756 87.3828 114.789 88.2576 114.918 89.3636C115.013 90.1646 115.121 90.6926 115.34 91.4103L115.548 92.0947L115.475 92.7871C115.435 93.1678 115.397 93.6261 115.391 93.8065C115.361 94.8812 115.5 96.3369 115.72 97.2538C115.928 98.1183 116.161 98.5528 116.722 99.1111C117.478 99.8692 118.804 100.728 119.487 100.9C120.267 101.101 121.444 100.98 122.474 100.598C122.937 100.428 123.503 100.089 124.052 99.6502C124.728 99.1103 125.578 98.0929 127.179 95.8943C128.352 94.2903 129.016 93.4154 129.316 93.0962C129.615 92.777 129.857 92.6839 130.166 92.7716L130.276 92.8031L130.127 93.0454C129.931 93.3625 128.669 95.5232 128.013 96.663C127.457 97.6266 126.638 99.204 126.438 99.6912C125.941 100.9 125.57 102.46 125.429 103.931C125.327 105.002 125.372 105.661 125.615 106.697C125.803 107.505 125.949 107.905 126.222 108.341C126.434 108.679 126.627 108.897 127.082 109.296C127.477 109.648 127.491 109.652 127.641 109.482C127.686 109.43 127.83 109.246 127.961 109.075C128.274 108.66 128.349 108.481 128.383 108.075C128.409 107.79 128.397 107.699 128.221 106.943C127.915 105.613 127.873 105.181 127.956 104.269C128.146 102.176 128.618 100.633 129.909 97.8822C130.538 96.5368 131.146 95.4323 131.487 95.0092C131.688 94.7563 131.692 94.7547 131.651 94.9626C131.441 96.0068 131.204 96.9215 130.795 98.239C130.247 100.026 130.208 100.254 130.277 101.454C130.371 103.096 130.56 104.138 130.983 105.324C131.354 106.367 131.722 106.95 132.367 107.511C133.216 108.25 133.986 108.526 135.027 108.463C135.573 108.428 135.931 108.354 136.227 108.217C136.377 108.147 136.649 108.047 136.834 107.993C137.548 107.794 137.932 107.559 139.21 106.543C140.123 105.819 140.649 105.468 141.51 105.011C142.153 104.671 142.633 104.506 143.12 104.451L143.539 104.406L143.804 104.203C143.95 104.089 144.201 103.905 144.367 103.794C144.853 103.46 145.174 103.125 145.714 102.391C146.225 101.694 146.588 101.117 146.98 100.381C147.423 99.5409 147.464 99.4135 147.531 98.6071C147.671 96.9091 147.355 95.7347 146.445 94.554C145.996 93.9745 145.556 93.5411 144.995 93.1279C144.27 92.5928 144.058 92.4726 141.176 90.9395C139.576 90.0883 138.345 89.4179 138.332 89.392C138.315 89.356 138.319 89.347 138.362 89.3427C138.473 89.3331 139.109 89.5606 140.829 90.2188C143.101 91.0869 143.729 91.2796 144.578 91.352C145.942 91.473 147.05 91.4004 148.328 91.1082C149.777 90.7766 150.682 90.267 151.6 89.2664C152.212 88.6041 152.978 87.5192 153.392 86.7406C153.721 86.1157 153.826 85.7577 153.889 84.9954C153.979 83.8952 153.851 83.1569 153.412 82.2269C153.288 81.9659 153.01 81.3703 152.797 80.9044C152.239 79.7045 152.145 79.2946 152.067 77.768C152.025 76.8964 151.969 76.3651 151.876 75.8409C151.653 74.6121 151.117 73.5653 150.378 72.9238C150.128 72.7022 149.411 72.2826 149.088 72.1646Z" fill="#FDFACC"/>
</g>
<g clip-path="url(#clip1_1_66901)">
<path d="M149.088 72.1646C148.502 71.9559 148.132 71.901 147.407 71.9211C146.251 71.9528 144.959 72.2644 143.956 72.7568C143.41 73.0213 142.37 73.6658 141.958 73.9902C141.672 74.2167 141.37 74.6267 140.562 75.8962C140.148 76.5444 139.935 76.887 138.802 78.7299C137.726 80.4771 137.171 81.3338 137.064 81.4106C136.976 81.4751 137.289 80.6692 138.398 77.9599C139.988 74.0787 140.227 73.3983 140.374 72.3094C140.589 70.6937 140.016 68.9495 138.831 67.6228C138.238 66.9588 137.64 66.6332 136.703 66.4598C135.885 66.3117 135.094 66.3618 134.098 66.6356C133.204 66.8797 132.651 67.1137 131.282 67.8205C129.996 68.4836 129.241 68.9089 128.915 69.1528C128.803 69.2386 128.718 69.2737 128.619 69.2785C128.448 69.2872 128.375 69.3058 127.415 69.5682C126.345 69.8636 125.874 70.0113 125.397 70.2091C124.409 70.6174 123.776 71.046 123.144 71.7397C122.721 72.2036 122.531 72.4811 122.18 73.1403C121.754 73.9472 121.514 74.5851 121.481 75.0228C121.449 75.4003 121.58 76.3041 121.735 76.7998C121.975 77.571 122.715 78.8101 123.359 79.5281C124.207 80.4692 125.12 81.1957 127.257 82.6352C128.986 83.7999 129.621 84.2604 129.76 84.4491L129.826 84.5377L129.681 84.5982C129.504 84.6687 129.346 84.6462 128.887 84.4742C128.392 84.2917 127.75 83.9999 126.561 83.4131C124.372 82.3327 123.403 81.9245 122.624 81.7589C121.583 81.5377 119.932 81.8308 118.737 82.4468C117.48 83.0986 116.717 83.8714 115.603 85.6213C115.209 86.2381 114.883 86.8497 114.832 87.0711C114.756 87.3828 114.789 88.2576 114.918 89.3636C115.013 90.1646 115.121 90.6926 115.34 91.4103L115.548 92.0947L115.475 92.7871C115.435 93.1678 115.397 93.6261 115.391 93.8065C115.361 94.8812 115.5 96.3369 115.72 97.2538C115.928 98.1183 116.161 98.5528 116.722 99.1111C117.478 99.8692 118.804 100.728 119.487 100.9C120.267 101.101 121.444 100.98 122.474 100.598C122.937 100.428 123.503 100.089 124.052 99.6502C124.728 99.1103 125.578 98.0929 127.179 95.8943C128.352 94.2903 129.016 93.4154 129.316 93.0962C129.615 92.777 129.857 92.6839 130.166 92.7716L130.276 92.8031L130.127 93.0454C129.931 93.3625 128.669 95.5232 128.013 96.663C127.457 97.6266 126.638 99.204 126.438 99.6912C125.941 100.9 125.57 102.46 125.429 103.931C125.327 105.002 125.372 105.661 125.615 106.697C125.803 107.505 125.949 107.905 126.222 108.341C126.434 108.679 126.627 108.897 127.082 109.296C127.477 109.648 127.491 109.652 127.641 109.482C127.686 109.43 127.83 109.246 127.961 109.075C128.274 108.66 128.349 108.481 128.383 108.075C128.409 107.79 128.397 107.699 128.221 106.943C127.915 105.613 127.873 105.181 127.956 104.269C128.146 102.176 128.618 100.633 129.909 97.8822C130.538 96.5368 131.146 95.4323 131.487 95.0092C131.688 94.7563 131.692 94.7547 131.651 94.9626C131.441 96.0068 131.204 96.9215 130.795 98.239C130.247 100.026 130.208 100.254 130.277 101.454C130.371 103.096 130.56 104.138 130.983 105.324C131.354 106.367 131.722 106.95 132.367 107.511C133.216 108.25 133.986 108.526 135.027 108.463C135.573 108.428 135.931 108.354 136.227 108.217C136.377 108.147 136.649 108.047 136.834 107.993C137.548 107.794 137.932 107.559 139.21 106.543C140.123 105.819 140.649 105.468 141.51 105.011C142.153 104.671 142.633 104.506 143.12 104.451L143.539 104.406L143.804 104.203C143.95 104.089 144.201 103.905 144.367 103.794C144.853 103.46 145.174 103.125 145.714 102.391C146.225 101.694 146.588 101.117 146.98 100.381C147.423 99.5409 147.464 99.4135 147.531 98.6071C147.671 96.9091 147.355 95.7347 146.445 94.554C145.996 93.9745 145.556 93.5411 144.995 93.1279C144.27 92.5928 144.058 92.4726 141.176 90.9395C139.576 90.0883 138.345 89.4179 138.332 89.392C138.315 89.356 138.319 89.347 138.362 89.3427C138.473 89.3331 139.109 89.5606 140.829 90.2188C143.101 91.0869 143.729 91.2796 144.578 91.352C145.942 91.473 147.05 91.4004 148.328 91.1082C149.777 90.7766 150.682 90.267 151.6 89.2664C152.212 88.6041 152.978 87.5192 153.392 86.7406C153.721 86.1157 153.826 85.7577 153.889 84.9954C153.979 83.8952 153.851 83.1569 153.412 82.2269C153.288 81.9659 153.01 81.3703 152.797 80.9044C152.239 79.7045 152.145 79.2946 152.067 77.768C152.025 76.8964 151.969 76.3651 151.876 75.8409C151.653 74.6121 151.117 73.5653 150.378 72.9238C150.128 72.7022 149.411 72.2826 149.088 72.1646Z" fill="#7E6935"/>
</g>
<path style="mix-blend-mode:overlay" d="M198.572 83.8931C196.072 125.006 159.504 157.664 115.617 157.89C69.7712 158.144 31.8176 122.913 31.5766 79.878C31.3055 36.8428 68.8374 1.21575 114.683 0.989538C160.528 0.735054 198.482 35.9663 198.723 79.0015L198.602 83.8931L198.572 83.8931Z" fill="url(#paint4_radial_1_66901)"/>
<path d="M47.6164 509.096C64.0797 521.279 91.8111 513.899 109.59 492.587C127.369 471.274 128.415 444.108 111.985 431.925C95.5219 419.71 67.7906 427.122 50.0115 448.435C32.2324 469.747 31.1867 496.913 47.6164 509.096Z" fill="url(#paint5_radial_1_66901)"/>
<path d="M46.5036 508.205L41.4769 504.451L103.754 425.817L112.256 432.116L46.5036 508.205Z" fill="#573B1C"/>
<path d="M39.8238 503.307C56.2872 515.49 84.0185 508.11 101.798 486.797C119.577 465.485 120.656 438.319 104.193 426.136C87.7294 413.953 59.9981 421.333 42.219 442.645C24.4399 463.958 23.3604 491.123 39.8238 503.307Z" fill="url(#paint6_linear_1_66901)"/>
<path d="M42.218 500.412C57.4331 511.704 83.1065 504.865 99.5699 485.143C116 465.421 117.012 440.291 101.763 428.999C86.5477 417.706 60.8743 424.545 44.4109 444.267C27.9475 463.989 26.9691 489.119 42.1842 500.412L42.218 500.412Z" fill="#FFFF3C"/>
<path style="mix-blend-mode:multiply" d="M42.218 500.412C57.4331 511.704 83.1065 504.865 99.5699 485.143C116 465.421 117.012 440.291 101.763 428.999C86.5477 417.706 60.8743 424.545 44.4109 444.267C27.9475 463.989 26.9691 489.119 42.1842 500.412L42.218 500.412Z" fill="url(#paint7_radial_1_66901)"/>
<path d="M44.4433 498.567C58.9837 509.35 83.2738 503.052 98.7251 484.538C114.176 466.025 114.919 442.263 100.378 431.48C85.8377 420.696 61.5476 426.994 46.0964 445.508C30.6451 464.053 29.9029 487.783 44.4433 498.567Z" fill="url(#paint8_linear_1_66901)"/>
<g clip-path="url(#clip2_1_66901)">
<path d="M88.4129 444.56C87.756 444.325 87.3422 444.264 86.5304 444.286C85.2353 444.322 83.7884 444.673 82.6653 445.226C82.0538 445.524 80.8885 446.249 80.4273 446.614C80.1064 446.869 79.769 447.33 78.8638 448.758C78.3994 449.488 78.1618 449.873 76.8926 451.946C75.6879 453.912 75.0659 454.876 74.9456 454.962C74.8477 455.035 75.1977 454.128 76.4399 451.08C78.2204 446.714 78.4882 445.948 78.6533 444.723C78.8942 442.906 78.2518 440.943 76.9253 439.451C76.2606 438.704 75.5913 438.338 74.5413 438.142C73.625 437.976 72.7395 438.032 71.6238 438.34C70.6227 438.615 70.0033 438.878 68.4697 439.673C67.0292 440.419 66.1842 440.898 65.8194 441.172C65.6938 441.269 65.5985 441.308 65.4877 441.313C65.2965 441.323 65.2148 441.344 64.1395 441.639C62.9403 441.972 62.4133 442.138 61.8787 442.36C60.7723 442.82 60.063 443.302 59.3558 444.082C58.8821 444.604 58.6685 444.916 58.2756 445.658C57.7986 446.566 57.5301 447.283 57.4926 447.776C57.4574 448.2 57.6035 449.217 57.7769 449.775C58.0466 450.642 58.8746 452.037 59.5965 452.844C60.5463 453.903 61.5682 454.72 63.9622 456.34C65.8986 457.65 66.6102 458.168 66.7657 458.38L66.8394 458.48L66.6768 458.548C66.4786 458.627 66.3022 458.602 65.7871 458.409C65.2336 458.203 64.5145 457.875 63.1825 457.215C60.7307 455.999 59.6457 455.54 58.7733 455.354C57.6066 455.105 55.7578 455.435 54.4197 456.128C53.0119 456.861 52.1571 457.73 50.9098 459.699C50.4678 460.393 50.1034 461.081 50.0459 461.33C49.9607 461.681 49.9975 462.665 50.1422 463.909C50.2491 464.81 50.3697 465.404 50.6155 466.212L50.8477 466.982L50.7663 467.761C50.7217 468.189 50.6793 468.704 50.6723 468.907C50.6384 470.116 50.7942 471.754 51.0403 472.786C51.273 473.758 51.535 474.247 52.1623 474.875C53.0091 475.728 54.4952 476.694 55.2597 476.888C56.1335 477.113 57.4516 476.978 58.6056 476.548C59.1241 476.356 59.7573 475.975 60.3723 475.482C61.1293 474.874 62.0815 473.73 63.8751 471.256C65.188 469.452 65.9326 468.467 66.2678 468.108C66.6031 467.749 66.8744 467.644 67.2202 467.743L67.3429 467.779L67.1762 468.051C66.9574 468.408 65.5435 470.839 64.8086 472.121C64.1861 473.205 63.2685 474.98 63.0452 475.528C62.4885 476.888 62.0728 478.642 61.9144 480.297C61.8007 481.502 61.8507 482.244 62.1225 483.41C62.333 484.319 62.4969 484.768 62.8026 485.259C63.0399 485.639 63.2563 485.884 63.7663 486.333C64.208 486.729 64.2242 486.733 64.392 486.543C64.442 486.483 64.6035 486.277 64.7503 486.084C65.1016 485.617 65.1855 485.417 65.2234 484.959C65.2518 484.638 65.2387 484.537 65.0416 483.686C64.6993 482.19 64.6517 481.704 64.7452 480.677C64.9576 478.324 65.4867 476.587 66.9321 473.493C67.637 471.979 68.3174 470.736 68.6997 470.26C68.9248 469.976 68.9295 469.974 68.8838 470.208C68.6485 471.383 68.3825 472.412 67.925 473.894C67.3107 475.904 67.2676 476.161 67.3449 477.511C67.4494 479.358 67.6617 480.531 68.1348 481.864C68.551 483.038 68.963 483.693 69.6853 484.325C70.6365 485.156 71.4991 485.466 72.6639 485.396C73.2761 485.357 73.6771 485.274 74.0082 485.119C74.1762 485.041 74.4813 484.929 74.6887 484.867C75.4878 484.644 75.9184 484.379 77.3496 483.236C78.3723 482.422 78.9614 482.026 79.9256 481.512C80.645 481.13 81.1827 480.944 81.7287 480.883L82.1982 480.832L82.4944 480.603C82.6587 480.475 82.9396 480.268 83.1249 480.143C83.67 479.767 84.0294 479.391 84.6344 478.564C85.2059 477.78 85.6125 477.132 86.0515 476.303C86.5481 475.359 86.5942 475.215 86.6692 474.308C86.8252 472.398 86.472 471.077 85.4529 469.748C84.9499 469.096 84.4566 468.609 83.8285 468.144C83.0162 467.542 82.7791 467.407 79.5516 465.682C77.7595 464.724 76.3805 463.97 76.3662 463.941C76.3467 463.901 76.352 463.891 76.3993 463.886C76.5241 463.875 77.2368 464.131 79.1625 464.871C81.7072 465.848 82.411 466.065 83.3612 466.146C84.889 466.282 86.1302 466.201 87.5618 465.872C89.1844 465.499 90.1986 464.926 91.2264 463.8C91.9112 463.055 92.7697 461.834 93.2336 460.958C93.6022 460.255 93.7188 459.853 93.7898 458.995C93.891 457.757 93.7468 456.927 93.2554 455.88C93.117 455.587 92.8059 454.917 92.5664 454.393C91.9419 453.043 91.8364 452.582 91.7489 450.864C91.7027 449.884 91.6398 449.286 91.5354 448.696C91.2853 447.314 90.685 446.136 89.8581 445.414C89.5771 445.165 88.7742 444.693 88.4129 444.56Z" fill="#FDFACC"/>
</g>
<g clip-path="url(#clip3_1_66901)">
<path d="M88.4129 444.56C87.756 444.325 87.3422 444.264 86.5304 444.286C85.2353 444.322 83.7884 444.673 82.6653 445.226C82.0538 445.524 80.8885 446.249 80.4273 446.614C80.1064 446.869 79.769 447.33 78.8638 448.758C78.3994 449.488 78.1618 449.873 76.8926 451.946C75.6879 453.912 75.0659 454.876 74.9456 454.962C74.8477 455.035 75.1977 454.128 76.4399 451.08C78.2204 446.714 78.4882 445.948 78.6533 444.723C78.8942 442.906 78.2518 440.943 76.9253 439.451C76.2606 438.704 75.5913 438.338 74.5413 438.142C73.625 437.976 72.7395 438.032 71.6238 438.34C70.6227 438.615 70.0033 438.878 68.4697 439.673C67.0292 440.419 66.1842 440.898 65.8194 441.172C65.6938 441.269 65.5985 441.308 65.4877 441.313C65.2965 441.323 65.2148 441.344 64.1395 441.639C62.9403 441.972 62.4133 442.138 61.8787 442.36C60.7723 442.82 60.063 443.302 59.3558 444.082C58.8821 444.604 58.6685 444.916 58.2756 445.658C57.7986 446.566 57.5301 447.283 57.4926 447.776C57.4574 448.2 57.6035 449.217 57.7769 449.775C58.0466 450.642 58.8746 452.037 59.5965 452.844C60.5463 453.903 61.5682 454.72 63.9622 456.34C65.8986 457.65 66.6102 458.168 66.7657 458.38L66.8394 458.48L66.6768 458.548C66.4786 458.627 66.3022 458.602 65.7871 458.409C65.2336 458.203 64.5145 457.875 63.1825 457.215C60.7307 455.999 59.6457 455.54 58.7733 455.354C57.6066 455.105 55.7578 455.435 54.4197 456.128C53.0119 456.861 52.1571 457.73 50.9098 459.699C50.4678 460.393 50.1034 461.081 50.0459 461.33C49.9607 461.681 49.9975 462.665 50.1422 463.909C50.2491 464.81 50.3697 465.404 50.6155 466.212L50.8477 466.982L50.7663 467.761C50.7217 468.189 50.6793 468.704 50.6723 468.907C50.6384 470.116 50.7942 471.754 51.0403 472.786C51.273 473.758 51.535 474.247 52.1623 474.875C53.0091 475.728 54.4952 476.694 55.2597 476.888C56.1335 477.113 57.4516 476.978 58.6056 476.548C59.1241 476.356 59.7573 475.975 60.3723 475.482C61.1293 474.874 62.0815 473.73 63.8751 471.256C65.188 469.452 65.9326 468.467 66.2678 468.108C66.6031 467.749 66.8744 467.644 67.2202 467.743L67.3429 467.779L67.1762 468.051C66.9574 468.408 65.5435 470.839 64.8086 472.121C64.1861 473.205 63.2685 474.98 63.0452 475.528C62.4885 476.888 62.0728 478.642 61.9144 480.297C61.8007 481.502 61.8507 482.244 62.1225 483.41C62.333 484.319 62.4969 484.768 62.8026 485.259C63.0399 485.639 63.2563 485.884 63.7663 486.333C64.208 486.729 64.2242 486.733 64.392 486.543C64.442 486.483 64.6035 486.277 64.7503 486.084C65.1016 485.617 65.1855 485.417 65.2234 484.959C65.2518 484.638 65.2387 484.537 65.0416 483.686C64.6993 482.19 64.6517 481.704 64.7452 480.677C64.9576 478.324 65.4867 476.587 66.9321 473.493C67.637 471.979 68.3174 470.736 68.6997 470.26C68.9248 469.976 68.9295 469.974 68.8838 470.208C68.6485 471.383 68.3825 472.412 67.925 473.894C67.3107 475.904 67.2676 476.161 67.3449 477.511C67.4494 479.358 67.6617 480.531 68.1348 481.864C68.551 483.038 68.963 483.693 69.6853 484.325C70.6365 485.156 71.4991 485.466 72.6639 485.396C73.2761 485.357 73.6771 485.274 74.0082 485.119C74.1762 485.041 74.4813 484.929 74.6887 484.867C75.4878 484.644 75.9184 484.379 77.3496 483.236C78.3723 482.422 78.9614 482.026 79.9256 481.512C80.645 481.13 81.1827 480.944 81.7287 480.883L82.1982 480.832L82.4944 480.603C82.6587 480.475 82.9396 480.268 83.1249 480.143C83.67 479.767 84.0294 479.391 84.6344 478.564C85.2059 477.78 85.6125 477.132 86.0515 476.303C86.5481 475.359 86.5942 475.215 86.6692 474.308C86.8252 472.398 86.472 471.077 85.4529 469.748C84.9499 469.096 84.4566 468.609 83.8285 468.144C83.0162 467.542 82.7791 467.407 79.5516 465.682C77.7595 464.724 76.3805 463.97 76.3662 463.941C76.3467 463.901 76.352 463.891 76.3993 463.886C76.5241 463.875 77.2368 464.131 79.1625 464.871C81.7072 465.848 82.411 466.065 83.3612 466.146C84.889 466.282 86.1302 466.201 87.5618 465.872C89.1844 465.499 90.1986 464.926 91.2264 463.8C91.9112 463.055 92.7697 461.834 93.2336 460.958C93.6022 460.255 93.7188 459.853 93.7898 458.995C93.891 457.757 93.7468 456.927 93.2554 455.88C93.117 455.587 92.8059 454.917 92.5664 454.393C91.9419 453.043 91.8364 452.582 91.7489 450.864C91.7027 449.884 91.6398 449.286 91.5354 448.696C91.2853 447.314 90.685 446.136 89.8581 445.414C89.5771 445.165 88.7742 444.693 88.4129 444.56Z" fill="#7E6935"/>
</g>
<path style="mix-blend-mode:overlay" d="M143.88 433.066C141.821 467.075 111.706 494.09 75.5636 494.277C37.8085 494.487 6.5527 465.344 6.35424 429.745C6.13098 394.146 37.0396 364.675 74.7946 364.488C112.55 364.277 143.805 393.421 144.004 429.02L143.905 433.066L143.88 433.066Z" fill="url(#paint9_radial_1_66901)"/>
<path d="M48.3375 235.146C34.2799 242.581 30.1668 265.197 39.1572 285.694C48.1476 306.191 66.8471 316.77 80.8933 309.36C94.9732 301.937 99.064 279.309 90.0736 258.812C81.0832 238.315 62.3837 227.736 48.3375 235.146Z" fill="url(#paint10_radial_1_66901)"/>
<path d="M49.3494 234.656L53.6613 232.4L87.9133 305.569L80.6557 309.402L49.3494 234.656Z" fill="#573B1C"/>
<path d="M55.0236 231.535C40.966 238.969 36.8528 261.585 45.8433 282.082C54.8338 302.58 73.522 313.183 87.5796 305.748C101.637 298.314 105.75 275.698 96.7599 255.2C87.7694 234.703 69.0812 224.1 55.0236 231.535Z" fill="url(#paint11_linear_1_66901)"/>
<path d="M56.2494 234.306C43.2344 241.165 39.4313 262.105 47.7471 281.08C56.0742 300.032 73.3573 309.85 86.3835 302.967C99.3985 296.108 103.202 275.168 94.8858 256.192C86.57 237.216 69.2756 227.422 56.2607 234.281L56.2494 234.306Z" fill="#FFFF3C"/>
<path style="mix-blend-mode:multiply" d="M56.2494 234.306C43.2344 241.165 39.4313 262.105 47.7471 281.08C56.0742 300.032 73.3573 309.85 86.3835 302.967C99.3985 296.108 103.202 275.168 94.8858 256.192C86.57 237.216 69.2756 227.422 56.2607 234.281L56.2494 234.306Z" fill="url(#paint12_radial_1_66901)"/>
<path d="M56.797 236.579C44.3647 243.137 40.6457 262.886 48.453 280.697C56.2603 298.508 72.675 307.638 85.1072 301.08C97.5395 294.522 101.259 274.772 93.4513 256.961C85.6216 239.139 69.2293 230.021 56.797 236.579Z" fill="url(#paint13_linear_1_66901)"/>
<g clip-path="url(#clip4_1_66901)">
<path d="M79.8851 287.807C80.267 287.417 80.4475 287.141 80.7018 286.546C81.1076 285.597 81.3446 284.423 81.3325 283.411C81.3286 282.86 81.2113 281.755 81.1106 281.289C81.04 280.964 80.831 280.553 80.1377 279.379C79.7844 278.779 79.5951 278.467 78.5738 276.796C77.606 275.211 77.1419 274.411 77.1217 274.293C77.1037 274.196 77.6186 274.778 79.3274 276.784C81.7751 279.658 82.219 280.129 83.0169 280.694C84.2022 281.529 85.7819 281.778 87.2621 281.361C88.0032 281.152 88.4807 280.802 88.9656 280.114C89.3864 279.512 89.6416 278.852 89.7981 277.934C89.9398 277.11 89.9625 276.567 89.9189 275.169C89.8786 273.857 89.8264 273.073 89.7567 272.709C89.7312 272.583 89.7354 272.5 89.7685 272.418C89.8253 272.276 89.8379 272.21 89.99 271.325C90.1573 270.338 90.2169 269.897 90.2398 269.429C90.2879 268.463 90.188 267.775 89.8799 266.98C89.674 266.448 89.5278 266.18 89.1421 265.627C88.6688 264.952 88.2584 264.497 87.9281 264.291C87.6442 264.111 86.8877 263.847 86.4418 263.77C85.7482 263.65 84.5023 263.741 83.7 263.969C82.6471 264.271 81.7383 264.712 79.8148 265.854C78.2587 266.777 77.6614 267.103 77.4619 267.138L77.368 267.156L77.3747 267.013C77.3854 266.841 77.4617 266.723 77.7677 266.421C78.0947 266.096 78.5623 265.695 79.4648 264.972C81.1262 263.642 81.8067 263.025 82.2265 262.462C82.7877 261.709 83.173 260.253 83.1354 259.035C83.0931 257.751 82.7721 256.817 81.8162 255.2C81.4801 254.628 81.1223 254.115 80.968 253.983C80.7522 253.794 80.0548 253.462 79.1405 253.115C78.4777 252.865 78.0239 252.736 77.3801 252.62L76.7669 252.508L76.2517 252.166C75.9683 251.978 75.6235 251.76 75.4846 251.681C74.6541 251.217 73.4622 250.735 72.6622 250.538C71.9077 250.352 71.4803 250.364 70.8345 250.589C69.9592 250.891 68.7923 251.614 68.4035 252.096C67.9558 252.646 67.6117 253.647 67.5271 254.638C67.4885 255.082 67.543 255.678 67.6823 256.302C67.8535 257.07 68.3337 258.174 69.4592 260.369C70.2789 261.974 70.7165 262.87 70.855 263.243C70.9935 263.616 70.9763 263.85 70.7926 264.064L70.7272 264.14L70.5928 263.92C70.4172 263.632 69.195 261.727 68.5467 260.73C67.999 259.886 67.0687 258.578 66.7614 258.217C65.9995 257.32 64.9164 256.382 63.817 255.666C63.0158 255.146 62.4829 254.913 61.581 254.685C60.8781 254.507 60.5108 254.462 60.0676 254.505C59.7236 254.538 59.4812 254.605 58.999 254.811C58.5769 254.986 58.5684 254.996 58.6451 255.187C58.6698 255.245 58.7599 255.436 58.8453 255.613C59.0534 256.036 59.1652 256.17 59.4713 256.363C59.685 256.5 59.7602 256.528 60.4176 256.695C61.5731 256.991 61.9274 257.133 62.611 257.574C64.179 258.583 65.2121 259.597 66.8857 261.766C67.7051 262.826 68.3439 263.769 68.5481 264.218C68.6713 264.484 68.671 264.488 68.5234 264.37C67.7838 263.773 67.1559 263.207 66.2762 262.338C65.0812 261.163 64.9167 261.039 63.9509 260.604C62.6303 260.008 61.7433 259.735 60.6576 259.592C59.7018 259.466 59.1088 259.526 58.4291 259.819C57.5341 260.204 57.0313 260.715 56.6932 261.582C56.5167 262.039 56.441 262.359 56.4386 262.654C56.4372 262.804 56.414 263.065 56.3878 263.238C56.2775 263.896 56.3189 264.304 56.6385 265.753C56.8652 266.789 56.9448 267.358 56.982 268.242C57.0087 268.901 56.9596 269.357 56.8208 269.774L56.6998 270.131L56.7609 270.429C56.795 270.594 56.8459 270.872 56.8713 271.052C56.9518 271.582 57.0944 271.979 57.4685 272.716C57.8242 273.414 58.1403 273.944 58.5714 274.562C59.0639 275.265 59.1484 275.35 59.755 275.734C61.0331 276.541 62.0703 276.766 63.3339 276.512C63.955 276.386 64.4585 276.206 64.9909 275.921C65.6801 275.553 65.8532 275.431 68.1271 273.725C69.3897 272.778 70.3732 272.056 70.3983 272.056C70.433 272.057 70.4382 272.064 70.4259 272.1C70.3919 272.194 69.9768 272.616 68.8209 273.739C67.2948 275.223 66.9099 275.653 66.5372 276.31C65.9345 277.365 65.5786 278.291 65.3314 279.445C65.0516 280.754 65.1134 281.695 65.5554 282.847C65.8463 283.613 66.4106 284.677 66.8661 285.33C67.2329 285.852 67.4746 286.083 68.048 286.446C68.8761 286.969 69.5023 287.167 70.394 287.192C70.6444 287.199 71.2144 287.217 71.6589 287.235C72.8063 287.274 73.1624 287.365 74.3872 287.926C75.0852 288.249 75.5222 288.421 75.9675 288.56C77.013 288.882 78.0325 288.876 78.8099 288.541C79.0769 288.428 79.6725 288.019 79.8851 287.807Z" fill="#FDFACC"/>
</g>
<g clip-path="url(#clip5_1_66901)">
<path d="M79.8851 287.807C80.267 287.417 80.4475 287.141 80.7018 286.546C81.1076 285.597 81.3446 284.423 81.3325 283.411C81.3286 282.86 81.2113 281.755 81.1106 281.289C81.04 280.964 80.831 280.553 80.1377 279.379C79.7844 278.779 79.5951 278.467 78.5738 276.796C77.606 275.211 77.1419 274.411 77.1217 274.293C77.1037 274.196 77.6186 274.778 79.3274 276.784C81.7751 279.658 82.219 280.129 83.0169 280.694C84.2022 281.529 85.7819 281.778 87.2621 281.361C88.0032 281.152 88.4807 280.802 88.9656 280.114C89.3864 279.512 89.6416 278.852 89.7981 277.934C89.9398 277.11 89.9625 276.567 89.9189 275.169C89.8786 273.857 89.8264 273.073 89.7567 272.709C89.7312 272.583 89.7354 272.5 89.7685 272.418C89.8253 272.276 89.8379 272.21 89.99 271.325C90.1573 270.338 90.2169 269.897 90.2398 269.429C90.2879 268.463 90.188 267.775 89.8799 266.98C89.674 266.448 89.5278 266.18 89.1421 265.627C88.6688 264.952 88.2584 264.497 87.9281 264.291C87.6442 264.111 86.8877 263.847 86.4418 263.77C85.7482 263.65 84.5023 263.741 83.7 263.969C82.6471 264.271 81.7383 264.712 79.8148 265.854C78.2587 266.777 77.6614 267.103 77.4619 267.138L77.368 267.156L77.3747 267.013C77.3854 266.841 77.4617 266.723 77.7677 266.421C78.0947 266.096 78.5623 265.695 79.4648 264.972C81.1262 263.642 81.8067 263.025 82.2265 262.462C82.7877 261.709 83.173 260.253 83.1354 259.035C83.0931 257.751 82.7721 256.817 81.8162 255.2C81.4801 254.628 81.1223 254.115 80.968 253.983C80.7522 253.794 80.0548 253.462 79.1405 253.115C78.4777 252.865 78.0239 252.736 77.3801 252.62L76.7669 252.508L76.2517 252.166C75.9683 251.978 75.6235 251.76 75.4846 251.681C74.6541 251.217 73.4622 250.735 72.6622 250.538C71.9077 250.352 71.4803 250.364 70.8345 250.589C69.9592 250.891 68.7923 251.614 68.4035 252.096C67.9558 252.646 67.6117 253.647 67.5271 254.638C67.4885 255.082 67.543 255.678 67.6823 256.302C67.8535 257.07 68.3337 258.174 69.4592 260.369C70.2789 261.974 70.7165 262.87 70.855 263.243C70.9935 263.616 70.9763 263.85 70.7926 264.064L70.7272 264.14L70.5928 263.92C70.4172 263.632 69.195 261.727 68.5467 260.73C67.999 259.886 67.0687 258.578 66.7614 258.217C65.9995 257.32 64.9164 256.382 63.817 255.666C63.0158 255.146 62.4829 254.913 61.581 254.685C60.8781 254.507 60.5108 254.462 60.0676 254.505C59.7236 254.538 59.4812 254.605 58.999 254.811C58.5769 254.986 58.5684 254.996 58.6451 255.187C58.6698 255.245 58.7599 255.436 58.8453 255.613C59.0534 256.036 59.1652 256.17 59.4713 256.363C59.685 256.5 59.7602 256.528 60.4176 256.695C61.5731 256.991 61.9274 257.133 62.611 257.574C64.179 258.583 65.2121 259.597 66.8857 261.766C67.7051 262.826 68.3439 263.769 68.5481 264.218C68.6713 264.484 68.671 264.488 68.5234 264.37C67.7838 263.773 67.1559 263.207 66.2762 262.338C65.0812 261.163 64.9167 261.039 63.9509 260.604C62.6303 260.008 61.7433 259.735 60.6576 259.592C59.7018 259.466 59.1088 259.526 58.4291 259.819C57.5341 260.204 57.0313 260.715 56.6932 261.582C56.5167 262.039 56.441 262.359 56.4386 262.654C56.4372 262.804 56.414 263.065 56.3878 263.238C56.2775 263.896 56.3189 264.304 56.6385 265.753C56.8652 266.789 56.9448 267.358 56.982 268.242C57.0087 268.901 56.9596 269.357 56.8208 269.774L56.6998 270.131L56.7609 270.429C56.795 270.594 56.8459 270.872 56.8713 271.052C56.9518 271.582 57.0944 271.979 57.4685 272.716C57.8242 273.414 58.1403 273.944 58.5714 274.562C59.0639 275.265 59.1484 275.35 59.755 275.734C61.0331 276.541 62.0703 276.766 63.3339 276.512C63.955 276.386 64.4585 276.206 64.9909 275.921C65.6801 275.553 65.8532 275.431 68.1271 273.725C69.3897 272.778 70.3732 272.056 70.3983 272.056C70.433 272.057 70.4382 272.064 70.4259 272.1C70.3919 272.194 69.9768 272.616 68.8209 273.739C67.2948 275.223 66.9099 275.653 66.5372 276.31C65.9345 277.365 65.5786 278.291 65.3314 279.445C65.0516 280.754 65.1134 281.695 65.5554 282.847C65.8463 283.613 66.4106 284.677 66.8661 285.33C67.2329 285.852 67.4746 286.083 68.048 286.446C68.8761 286.969 69.5023 287.167 70.394 287.192C70.6444 287.199 71.2144 287.217 71.6589 287.235C72.8063 287.274 73.1624 287.365 74.3872 287.926C75.0852 288.249 75.5222 288.421 75.9675 288.56C77.013 288.882 78.0325 288.876 78.8099 288.541C79.0769 288.428 79.6725 288.019 79.8851 287.807Z" fill="#7E6935"/>
</g>
<path style="mix-blend-mode:overlay" d="M21.821 337.811C-21.262 312.198 -37.6441 253.607 -15.246 204.945C8.13177 154.101 65.7377 131.707 112.31 155.357C158.898 178.974 177.987 240.282 154.579 291.109C131.201 341.952 73.5951 364.346 27.0227 340.696L21.8054 337.844L21.821 337.811Z" fill="url(#paint14_radial_1_66901)"/>
<path d="M-20.9902 156.707C-10.2596 164.612 7.81526 159.823 19.4034 145.994C30.9916 132.164 31.6731 114.537 20.9645 106.631C10.234 98.7052 -7.84093 103.515 -19.4291 117.344C-31.0172 131.174 -31.6988 148.801 -20.9902 156.707Z" fill="url(#paint15_radial_1_66901)"/>
<path d="M-21.7157 156.128L-24.9921 153.693L15.5994 102.668L21.1406 106.755L-21.7157 156.128Z" fill="#573B1C"/>
<path d="M-26.0711 152.95C-15.3405 160.856 2.73436 156.067 14.3225 142.237C25.9107 128.408 26.6142 110.78 15.8836 102.875C5.15305 94.9692 -12.9218 99.758 -24.51 113.587C-36.0981 127.417 -36.8017 145.045 -26.0711 152.95Z" fill="url(#paint16_linear_1_66901)"/>
<path d="M-24.5089 151.071C-14.5919 158.399 2.1417 153.961 12.8723 141.164C23.5809 128.366 24.2406 112.06 14.3016 104.732C4.38462 97.4047 -12.3489 101.842 -23.0795 114.64C-33.8101 127.437 -34.4479 143.744 -24.5309 151.071L-24.5089 151.071Z" fill="#FFFF3C"/>
<path style="mix-blend-mode:multiply" d="M-24.5089 151.071C-14.5919 158.399 2.1417 153.961 12.8723 141.164C23.5809 128.366 24.2406 112.06 14.3016 104.732C4.38462 97.4047 -12.3489 101.842 -23.0795 114.64C-33.8101 127.437 -34.4479 143.744 -24.5309 151.071L-24.5089 151.071Z" fill="url(#paint17_radial_1_66901)"/>
<path d="M-23.0579 149.874C-13.5807 156.871 2.25125 152.785 12.3222 140.771C22.3931 128.758 22.8768 113.339 13.3996 106.342C3.92238 99.3448 -11.9096 103.432 -21.9805 115.445C-32.0514 127.479 -32.5351 142.877 -23.0579 149.874Z" fill="url(#paint18_linear_1_66901)"/>
<g clip-path="url(#clip6_1_66901)">
<path d="M5.59954 114.83C5.17135 114.678 4.90167 114.638 4.3725 114.652C3.52842 114.675 2.58531 114.903 1.85333 115.262C1.45476 115.455 0.69522 115.926 0.394623 116.163C0.185425 116.328 -0.034448 116.627 -0.624441 117.554C-0.927119 118.027 -1.082 118.277 -1.90924 119.623C-2.69448 120.898 -3.0999 121.524 -3.17825 121.58C-3.24209 121.627 -3.01397 121.038 -2.20432 119.061C-1.04381 116.227 -0.869295 115.731 -0.761651 114.936C-0.604667 113.756 -1.02337 112.483 -1.88797 111.515C-2.32121 111.03 -2.75739 110.792 -3.44179 110.666C-4.039 110.557 -4.61621 110.594 -5.34336 110.794C-5.99588 110.972 -6.39958 111.143 -7.39916 111.659C-8.33808 112.143 -8.88884 112.453 -9.12664 112.631C-9.20846 112.694 -9.27059 112.72 -9.34278 112.723C-9.46741 112.73 -9.5207 112.743 -10.2216 112.935C-11.0032 113.15 -11.3467 113.258 -11.6951 113.403C-12.4163 113.701 -12.8786 114.014 -13.3395 114.52C-13.6482 114.859 -13.7875 115.061 -14.0435 115.542C-14.3544 116.131 -14.5294 116.597 -14.5539 116.917C-14.5768 117.192 -14.4816 117.852 -14.3686 118.214C-14.1928 118.777 -13.6531 119.681 -13.1826 120.205C-12.5635 120.892 -11.8975 121.423 -10.3371 122.474C-9.07496 123.324 -8.61117 123.66 -8.50984 123.798L-8.4618 123.862L-8.56776 123.907C-8.69696 123.958 -8.81189 123.942 -9.14766 123.816C-9.50842 123.683 -9.9771 123.47 -10.8453 123.041C-12.4433 122.253 -13.1505 121.955 -13.7191 121.834C-14.4796 121.672 -15.6846 121.886 -16.5568 122.336C-17.4743 122.812 -18.0315 123.376 -18.8445 124.654C-19.1325 125.104 -19.37 125.55 -19.4075 125.712C-19.4631 125.939 -19.4391 126.578 -19.3448 127.385C-19.2751 127.97 -19.1965 128.356 -19.0363 128.879L-18.885 129.379L-18.938 129.885C-18.9671 130.162 -18.9947 130.497 -18.9993 130.629C-19.0214 131.413 -18.9198 132.476 -18.7594 133.145C-18.6077 133.776 -18.4369 134.094 -18.0281 134.501C-17.4762 135.054 -16.5076 135.682 -16.0093 135.807C-15.4397 135.953 -14.5806 135.866 -13.8285 135.587C-13.4905 135.462 -13.0778 135.215 -12.677 134.895C-12.1836 134.5 -11.5629 133.758 -10.3939 132.153C-9.53814 130.982 -9.05285 130.343 -8.83432 130.11C-8.61579 129.877 -8.43897 129.809 -8.21356 129.873L-8.13363 129.896L-8.24228 130.073C-8.38484 130.305 -9.30642 131.882 -9.78544 132.714C-10.1912 133.417 -10.7892 134.569 -10.9348 134.925C-11.2976 135.807 -11.5686 136.946 -11.6718 138.019C-11.746 138.801 -11.7134 139.283 -11.5362 140.039C-11.399 140.629 -11.2922 140.92 -11.0929 141.239C-10.9382 141.486 -10.7972 141.645 -10.4648 141.936C-10.1769 142.193 -10.1663 142.196 -10.057 142.072C-10.0244 142.034 -9.91913 141.9 -9.82346 141.774C-9.59444 141.472 -9.53974 141.341 -9.5151 141.044C-9.49656 140.836 -9.50509 140.77 -9.63354 140.219C-9.85665 139.248 -9.88768 138.932 -9.82674 138.266C-9.68834 136.739 -9.34345 135.612 -8.40137 133.604C-7.94191 132.622 -7.49844 131.816 -7.24924 131.507C-7.10253 131.322 -7.09949 131.321 -7.12931 131.473C-7.28262 132.235 -7.45598 132.903 -7.75423 133.864C-8.15461 135.169 -8.18267 135.335 -8.13228 136.211C-8.06422 137.41 -7.92584 138.171 -7.61748 139.036C-7.34618 139.798 -7.07762 140.223 -6.60688 140.633C-5.98688 141.172 -5.42467 141.374 -4.66546 141.328C-4.26646 141.302 -4.00508 141.249 -3.78923 141.148C-3.67979 141.098 -3.4809 141.025 -3.34572 140.985C-2.8249 140.84 -2.54424 140.668 -1.61142 139.926C-0.944799 139.398 -0.560854 139.141 0.067588 138.808C0.536528 138.56 0.886995 138.439 1.24282 138.399L1.54884 138.367L1.74194 138.218C1.84901 138.135 2.03211 138.001 2.15284 137.919C2.50819 137.675 2.74239 137.431 3.13677 136.895C3.50926 136.386 3.77426 135.966 4.06042 135.428C4.38407 134.815 4.41414 134.722 4.46299 134.133C4.56468 132.894 4.33448 132.036 3.67024 131.174C3.34241 130.751 3.02086 130.435 2.61145 130.133C2.08205 129.743 1.92749 129.655 -0.17616 128.536C-1.34422 127.914 -2.24304 127.425 -2.25237 127.406C-2.26505 127.38 -2.26158 127.373 -2.23079 127.37C-2.14945 127.363 -1.68492 127.529 -0.429782 128.01C1.22886 128.643 1.68754 128.784 2.30688 128.837C3.30266 128.925 4.11169 128.872 5.0448 128.659C6.10236 128.417 6.76342 128.045 7.43334 127.314C7.87967 126.831 8.43923 126.039 8.74161 125.471C8.98185 125.014 9.05783 124.753 9.10413 124.197C9.17007 123.393 9.07607 122.854 8.75581 122.176C8.66558 121.985 8.46281 121.55 8.30667 121.21C7.89966 120.334 7.8309 120.035 7.77387 118.921C7.74377 118.284 7.70275 117.896 7.63472 117.514C7.47172 116.617 7.08044 115.853 6.54147 115.384C6.35832 115.223 5.83501 114.916 5.59954 114.83Z" fill="#FDFACC"/>
</g>
<g clip-path="url(#clip7_1_66901)">
<path d="M5.59954 114.83C5.17135 114.678 4.90167 114.638 4.3725 114.652C3.52842 114.675 2.58531 114.903 1.85333 115.262C1.45476 115.455 0.69522 115.926 0.394623 116.163C0.185425 116.328 -0.034448 116.627 -0.624441 117.554C-0.927119 118.027 -1.082 118.277 -1.90924 119.623C-2.69448 120.898 -3.0999 121.524 -3.17825 121.58C-3.24209 121.627 -3.01397 121.038 -2.20432 119.061C-1.04381 116.227 -0.869295 115.731 -0.761651 114.936C-0.604667 113.756 -1.02337 112.483 -1.88797 111.515C-2.32121 111.03 -2.75739 110.792 -3.44179 110.666C-4.039 110.557 -4.61621 110.594 -5.34336 110.794C-5.99588 110.972 -6.39958 111.143 -7.39916 111.659C-8.33808 112.143 -8.88884 112.453 -9.12664 112.631C-9.20846 112.694 -9.27059 112.72 -9.34278 112.723C-9.46741 112.73 -9.5207 112.743 -10.2216 112.935C-11.0032 113.15 -11.3467 113.258 -11.6951 113.403C-12.4163 113.701 -12.8786 114.014 -13.3395 114.52C-13.6482 114.859 -13.7875 115.061 -14.0435 115.542C-14.3544 116.131 -14.5294 116.597 -14.5539 116.917C-14.5768 117.192 -14.4816 117.852 -14.3686 118.214C-14.1928 118.777 -13.6531 119.681 -13.1826 120.205C-12.5635 120.892 -11.8975 121.423 -10.3371 122.474C-9.07496 123.324 -8.61117 123.66 -8.50984 123.798L-8.4618 123.862L-8.56776 123.907C-8.69696 123.958 -8.81189 123.942 -9.14766 123.816C-9.50842 123.683 -9.9771 123.47 -10.8453 123.041C-12.4433 122.253 -13.1505 121.955 -13.7191 121.834C-14.4796 121.672 -15.6846 121.886 -16.5568 122.336C-17.4743 122.812 -18.0315 123.376 -18.8445 124.654C-19.1325 125.104 -19.37 125.55 -19.4075 125.712C-19.4631 125.939 -19.4391 126.578 -19.3448 127.385C-19.2751 127.97 -19.1965 128.356 -19.0363 128.879L-18.885 129.379L-18.938 129.885C-18.9671 130.162 -18.9947 130.497 -18.9993 130.629C-19.0214 131.413 -18.9198 132.476 -18.7594 133.145C-18.6077 133.776 -18.4369 134.094 -18.0281 134.501C-17.4762 135.054 -16.5076 135.682 -16.0093 135.807C-15.4397 135.953 -14.5806 135.866 -13.8285 135.587C-13.4905 135.462 -13.0778 135.215 -12.677 134.895C-12.1836 134.5 -11.5629 133.758 -10.3939 132.153C-9.53814 130.982 -9.05285 130.343 -8.83432 130.11C-8.61579 129.877 -8.43897 129.809 -8.21356 129.873L-8.13363 129.896L-8.24228 130.073C-8.38484 130.305 -9.30642 131.882 -9.78544 132.714C-10.1912 133.417 -10.7892 134.569 -10.9348 134.925C-11.2976 135.807 -11.5686 136.946 -11.6718 138.019C-11.746 138.801 -11.7134 139.283 -11.5362 140.039C-11.399 140.629 -11.2922 140.92 -11.0929 141.239C-10.9382 141.486 -10.7972 141.645 -10.4648 141.936C-10.1769 142.193 -10.1663 142.196 -10.057 142.072C-10.0244 142.034 -9.91913 141.9 -9.82346 141.774C-9.59444 141.472 -9.53974 141.341 -9.5151 141.044C-9.49656 140.836 -9.50509 140.77 -9.63354 140.219C-9.85665 139.248 -9.88768 138.932 -9.82674 138.266C-9.68834 136.739 -9.34345 135.612 -8.40137 133.604C-7.94191 132.622 -7.49844 131.816 -7.24924 131.507C-7.10253 131.322 -7.09949 131.321 -7.12931 131.473C-7.28262 132.235 -7.45598 132.903 -7.75423 133.864C-8.15461 135.169 -8.18267 135.335 -8.13228 136.211C-8.06422 137.41 -7.92584 138.171 -7.61748 139.036C-7.34618 139.798 -7.07762 140.223 -6.60688 140.633C-5.98688 141.172 -5.42467 141.374 -4.66546 141.328C-4.26646 141.302 -4.00508 141.249 -3.78923 141.148C-3.67979 141.098 -3.4809 141.025 -3.34572 140.985C-2.8249 140.84 -2.54424 140.668 -1.61142 139.926C-0.944799 139.398 -0.560854 139.141 0.067588 138.808C0.536528 138.56 0.886995 138.439 1.24282 138.399L1.54884 138.367L1.74194 138.218C1.84901 138.135 2.03211 138.001 2.15284 137.919C2.50819 137.675 2.74239 137.431 3.13677 136.895C3.50926 136.386 3.77426 135.966 4.06042 135.428C4.38407 134.815 4.41414 134.722 4.46299 134.133C4.56468 132.894 4.33448 132.036 3.67024 131.174C3.34241 130.751 3.02086 130.435 2.61145 130.133C2.08205 129.743 1.92749 129.655 -0.17616 128.536C-1.34422 127.914 -2.24304 127.425 -2.25237 127.406C-2.26505 127.38 -2.26158 127.373 -2.23079 127.37C-2.14945 127.363 -1.68492 127.529 -0.429782 128.01C1.22886 128.643 1.68754 128.784 2.30688 128.837C3.30266 128.925 4.11169 128.872 5.0448 128.659C6.10236 128.417 6.76342 128.045 7.43334 127.314C7.87967 126.831 8.43923 126.039 8.74161 125.471C8.98185 125.014 9.05783 124.753 9.10413 124.197C9.17007 123.393 9.07607 122.854 8.75581 122.176C8.66558 121.985 8.46281 121.55 8.30667 121.21C7.89966 120.334 7.8309 120.035 7.77387 118.921C7.74377 118.284 7.70275 117.896 7.63472 117.514C7.47172 116.617 7.08044 115.853 6.54147 115.384C6.35832 115.223 5.83501 114.916 5.59954 114.83Z" fill="#7E6935"/>
</g>
<path style="mix-blend-mode:overlay" d="M64.0211 140.905C61.521 182.017 24.9532 214.676 -18.9342 214.902C-64.7796 215.156 -102.733 179.925 -102.974 136.89C-103.245 93.8546 -65.7134 58.2276 -19.868 58.0014C25.9774 57.7469 63.9309 92.9781 64.1719 136.013L64.0513 140.905L64.0211 140.905Z" fill="url(#paint19_radial_1_66901)"/>
<path d="M187.426 300.401C202.031 311.379 226.869 305.053 242.936 286.249C259.002 267.446 260.168 243.293 245.594 232.315C230.99 221.309 206.151 227.663 190.085 246.467C174.019 265.271 172.852 289.424 187.426 300.401Z" fill="url(#paint20_radial_1_66901)"/>
<path d="M186.439 299.599L181.98 296.217L238.291 226.812L245.833 232.487L186.439 299.599Z" fill="#573B1C"/>
<path d="M180.512 295.185C195.117 306.162 219.955 299.837 236.022 281.033C252.088 262.229 253.284 238.077 238.68 227.099C224.076 216.121 199.237 222.447 183.171 241.251C167.105 260.054 165.908 284.207 180.512 295.185Z" fill="url(#paint21_linear_1_66901)"/>
<path d="M182.677 292.631C196.174 302.805 219.17 296.943 234.047 279.543C248.894 262.142 250.013 239.799 236.486 229.624C222.989 219.45 199.994 225.312 185.117 242.712C170.24 260.113 169.15 282.456 182.647 292.63L182.677 292.631Z" fill="#FFFF3C"/>
<path style="mix-blend-mode:multiply" d="M182.677 292.631C196.174 302.805 219.17 296.943 234.047 279.543C248.894 262.142 250.013 239.799 236.486 229.624C222.989 219.45 199.994 225.312 185.117 242.712C170.24 260.113 169.15 282.456 182.647 292.63L182.677 292.631Z" fill="url(#paint22_radial_1_66901)"/>
<path d="M184.681 291.009C197.579 300.725 219.334 295.331 233.296 278.998C247.259 262.664 248.125 241.535 235.227 231.819C222.329 222.103 200.574 227.496 186.611 243.83C172.648 260.192 171.782 281.292 184.681 291.009Z" fill="url(#paint23_linear_1_66901)"/>
<path d="M228.701 252.129C228.577 252.581 228.452 253.033 228.297 253.427C226.47 258.475 222.175 259.961 219.754 260.985C219.754 260.985 219.421 261.123 218.877 261.344C221.896 260.864 225.03 260.866 226.977 262.214C227.007 262.243 227.067 262.272 227.097 262.3C227.306 262.472 227.515 262.644 227.694 262.844C227.992 263.186 228.23 263.585 228.406 264.011C228.406 264.011 228.872 265.685 227.917 267.826C227.579 268.587 227.089 269.402 226.327 270.216C226.327 270.216 224.47 272.179 221.209 272.741C221.209 272.741 219.578 273.065 219.073 275.437C218.568 277.724 216.029 281.605 211.999 280.717C211.698 280.658 211.427 280.57 211.187 280.483C207.973 279.292 208.337 275.957 208.417 273.92C208.417 273.92 208.422 273.326 208.491 272.393C208.528 271.686 208.597 270.809 208.666 269.904C208.767 268.774 208.87 267.53 209.031 266.484C208.845 266.992 208.629 267.471 208.444 267.922C203.79 278.573 196.711 281.221 194.26 282.188C191.628 283.209 190.772 281.305 190.772 281.305C190.772 281.277 190.773 281.249 190.773 281.22C190.589 278.417 195.593 278.352 195.593 278.352C204.21 275.606 207.566 268.309 208.588 265.461C208.497 265.574 208.344 265.742 208.131 265.938C206.183 267.985 200.005 274.037 195.091 274.132C195.031 274.131 194.971 274.13 194.941 274.13C194.669 274.127 194.398 274.125 194.097 274.065C193.646 274.004 193.195 273.887 192.775 273.685C192.775 273.685 191.275 272.878 190.599 271.061C190.334 270.407 190.191 269.585 190.261 268.624C190.261 268.624 190.435 266.164 193.019 263.954C193.019 263.954 194.326 262.778 193.023 260.332C191.661 257.8 190.965 251.823 196.259 249.893C196.652 249.756 197.015 249.646 197.377 249.565C202.028 248.591 203.917 252.825 205.131 255.072C205.131 255.072 205.487 255.726 205.96 256.664C206.049 256.835 206.138 257.006 206.226 257.205C205.174 253.742 204.493 249.35 205.706 245.485C205.706 245.4 205.768 245.316 205.798 245.26C205.923 244.837 206.108 244.442 206.292 244.048C206.6 243.372 206.968 242.753 207.426 242.135C207.426 242.135 209.194 240.086 211.731 239.573C212.637 239.383 213.662 239.422 214.713 239.828C214.713 239.828 217.295 240.871 218.067 245.18C218.067 245.18 218.5 247.221 221.616 246.063C224.792 244.876 230.364 245.411 228.702 252.073L228.701 252.129Z" fill="#FDFACC"/>
<path d="M228.378 251.646C228.253 252.098 228.128 252.549 227.974 252.944C226.147 257.991 221.852 259.478 219.431 260.501C219.431 260.501 219.098 260.64 218.553 260.861C221.572 260.38 224.707 260.382 226.654 261.731C226.683 261.759 226.743 261.788 226.773 261.817C226.983 261.989 227.192 262.16 227.371 262.36C227.669 262.703 227.906 263.101 228.083 263.527C228.083 263.527 228.549 265.201 227.594 267.342C227.255 268.103 226.765 268.919 226.004 269.732C226.004 269.732 224.146 271.695 220.885 272.258C220.885 272.258 219.255 272.582 218.75 274.954C218.245 277.241 215.706 281.121 211.675 280.234C211.375 280.174 211.104 280.087 210.864 280C207.65 278.808 208.013 275.473 208.093 273.437C208.093 273.437 208.099 272.842 208.168 271.909C208.205 271.202 208.274 270.354 208.343 269.421C208.444 268.29 208.547 267.046 208.707 266.001C208.522 266.508 208.306 266.987 208.121 267.438C203.467 278.089 196.388 280.738 193.937 281.704C191.305 282.726 190.449 280.822 190.449 280.822C190.449 280.794 190.449 280.765 190.45 280.737C190.266 277.934 195.27 277.869 195.27 277.869C203.887 275.122 207.243 267.826 208.265 264.978C208.174 265.09 208.021 265.258 207.808 265.454C205.86 267.501 199.682 273.554 194.798 273.648C194.738 273.648 194.678 273.647 194.648 273.647C194.376 273.644 194.105 273.642 193.804 273.582C193.352 273.521 192.901 273.404 192.481 273.202C192.481 273.202 190.982 272.395 190.306 270.577C190.041 269.924 189.898 269.102 189.968 268.141C189.968 268.141 190.142 265.681 192.726 263.47C192.726 263.47 194.033 262.294 192.73 259.849C191.368 257.317 190.672 251.34 195.966 249.41C196.359 249.273 196.722 249.163 197.084 249.081C201.736 248.108 203.624 252.342 204.838 254.589C204.838 254.589 205.194 255.243 205.667 256.181C205.756 256.352 205.845 256.523 205.933 256.721C204.881 253.259 204.2 248.867 205.413 245.002C205.414 244.917 205.475 244.833 205.505 244.777C205.63 244.353 205.815 243.959 205.999 243.565C206.307 242.889 206.675 242.27 207.133 241.651C207.133 241.651 208.901 239.603 211.438 239.09C212.344 238.9 213.368 238.938 214.42 239.345C214.42 239.345 217.002 240.388 217.774 244.696C217.774 244.696 218.207 246.738 221.323 245.58C224.499 244.393 230.071 244.928 228.409 251.59L228.378 251.646Z" fill="#7E6935"/>
<path style="mix-blend-mode:overlay" d="M273.827 255.563C270.93 296.677 234.025 329.003 190.108 328.807C144.232 328.621 106.594 293.003 106.767 249.939C106.91 206.874 144.808 171.586 190.683 171.801C236.56 171.987 274.198 207.605 274.025 250.67L273.857 255.563L273.827 255.563Z" fill="url(#paint24_radial_1_66901)"/>
<g clip-path="url(#clip8_1_66901)">
<path d="M358.978 177.111C330.44 181.321 302.32 154.792 296.221 117.87C290.076 80.9476 308.279 47.6213 336.818 43.4117C365.356 39.202 393.429 65.7315 399.575 102.653C405.673 139.575 387.517 172.902 358.978 177.111Z" fill="url(#paint25_radial_1_66901)"/>
<path d="M360.978 176.804L369.73 175.445L351.062 41.307L336.35 43.4995L360.978 176.804Z" fill="#573B1C"/>
<path d="M372.524 175.139C343.986 179.348 315.913 152.819 309.768 115.897C303.622 78.9751 321.826 45.6488 350.318 41.4391C378.856 37.2295 406.976 63.759 413.074 100.681C419.22 137.603 401.016 170.929 372.524 175.139Z" fill="url(#paint26_linear_1_66901)"/>
<path d="M371.687 170.14C345.29 174.042 319.266 149.486 313.633 115.327C307.953 81.1673 324.759 50.2967 351.156 46.4378C377.553 42.5352 403.578 67.0913 409.211 101.251C414.891 135.41 398.084 166.237 371.687 170.14Z" fill="#FFFF3C"/>
<path style="mix-blend-mode:multiply" d="M371.687 170.14C345.29 174.042 319.266 149.486 313.633 115.327C307.953 81.1673 324.759 50.2967 351.156 46.4378C377.553 42.5352 403.578 67.0913 409.211 101.251C414.891 135.41 398.084 166.237 371.687 170.14Z" fill="url(#paint27_radial_1_66901)"/>
<path d="M370.335 166.5C345.149 170.227 320.381 147.205 315.074 115.107C309.72 83.0086 325.875 53.9797 351.061 50.2524C376.248 46.5251 401.015 69.5466 406.323 101.645C411.63 133.743 395.522 162.772 370.335 166.456L370.335 166.5Z" fill="url(#paint28_linear_1_66901)"/>
<g clip-path="url(#clip9_1_66901)">
<path d="M373.511 74.6717C372.501 74.8214 371.923 75.0267 370.888 75.6146C369.236 76.5521 367.604 77.9998 366.531 79.4864C365.944 80.2906 364.933 82.0268 364.586 82.8145C364.345 83.3636 364.225 84.1901 364.032 86.6529C363.931 87.9121 363.888 88.5721 363.666 92.1166C363.455 95.478 363.31 97.1476 363.214 97.3417C363.137 97.5026 362.968 96.0937 362.487 91.3123C361.799 84.4619 361.62 83.2915 360.995 81.5997C360.061 79.0925 357.885 77.0069 355.145 75.9974C353.773 75.4926 352.656 75.4815 351.164 75.953C349.864 76.369 348.757 77.0513 347.525 78.2161C346.417 79.2589 345.796 80.0244 344.357 82.1045C343.004 84.057 342.239 85.2551 341.954 85.8597C341.858 86.0705 341.762 86.187 341.622 86.2702C341.382 86.4144 341.29 86.4976 340.101 87.6181C338.777 88.8717 338.209 89.4485 337.67 90.1031C336.553 91.4565 335.966 92.5659 335.585 94.058C335.33 95.0564 335.268 95.6056 335.268 96.8314C335.272 98.3291 335.417 99.4385 335.706 100.099C335.951 100.67 336.837 101.879 337.444 102.478C338.387 103.41 340.414 104.636 341.902 105.179C343.856 105.889 345.738 106.239 349.946 106.677C353.35 107.032 354.625 107.21 354.972 107.376L355.136 107.454L354.972 107.653C354.77 107.892 354.524 107.981 353.725 108.086C352.868 108.203 351.713 108.275 349.537 108.341C345.531 108.463 343.813 108.619 342.556 108.979C340.876 109.462 338.71 111.159 337.453 112.973C336.134 114.887 335.624 116.595 335.359 119.99C335.263 121.188 335.263 122.325 335.359 122.685C335.489 123.196 336.211 124.438 337.251 125.941C338.007 127.029 338.57 127.711 339.441 128.582L340.27 129.414L340.698 130.473C340.934 131.056 341.232 131.749 341.362 132.015C342.147 133.596 343.471 135.599 344.496 136.758C345.464 137.851 346.138 138.3 347.38 138.677C349.06 139.193 351.645 139.415 352.767 139.137C354.053 138.827 355.665 137.745 356.864 136.397C357.403 135.793 357.962 134.866 358.419 133.807C358.982 132.503 359.43 130.373 360.056 125.953C360.518 122.724 360.807 120.944 360.995 120.25C361.182 119.557 361.462 119.235 361.977 119.124L362.16 119.085L362.131 119.551C362.092 120.162 361.929 124.266 361.856 126.424C361.794 128.249 361.823 131.167 361.909 132.026C362.121 134.162 362.785 136.708 363.715 138.949C364.393 140.58 364.966 141.5 366.117 142.815C367.012 143.841 367.532 144.307 368.264 144.729C368.832 145.056 369.28 145.222 370.247 145.45C371.09 145.655 371.114 145.649 371.201 145.289C371.225 145.178 371.292 144.801 371.35 144.451C371.485 143.608 371.456 143.292 371.191 142.676C371.008 142.244 370.921 142.122 370.084 141.162C368.615 139.47 368.221 138.877 367.638 137.49C366.3 134.312 365.794 131.71 365.544 126.729C365.419 124.294 365.448 122.225 365.616 121.349C365.713 120.827 365.717 120.822 365.818 121.154C366.319 122.83 366.68 124.338 367.104 126.563C367.686 129.575 367.807 129.935 368.832 131.621C370.233 133.929 371.311 135.293 372.838 136.686C374.181 137.912 375.163 138.472 376.53 138.788C378.331 139.204 379.659 139.01 381.118 138.117C381.883 137.645 382.346 137.263 382.668 136.835C382.832 136.619 383.15 136.264 383.376 136.042C384.257 135.205 384.632 134.567 385.701 132.11C386.466 130.357 386.958 129.442 387.853 128.116C388.522 127.128 389.09 126.518 389.755 126.063L390.327 125.675L390.554 125.176C390.679 124.899 390.9 124.438 391.054 124.15C391.502 123.29 391.709 122.558 391.926 121.077C392.128 119.673 392.21 118.559 392.21 117.188C392.205 115.63 392.166 115.413 391.642 114.193C390.534 111.625 389.172 110.166 386.943 109.157C385.845 108.663 384.873 108.374 383.742 108.208C382.278 107.992 381.879 107.981 376.52 107.981C373.545 107.981 371.244 107.958 371.206 107.931C371.153 107.892 371.153 107.875 371.21 107.836C371.364 107.737 372.462 107.576 375.461 107.204C379.423 106.71 380.482 106.505 381.768 105.956C383.838 105.08 385.388 104.12 387.015 102.711C388.859 101.114 389.779 99.677 390.337 97.5192C390.713 96.0882 390.987 93.9249 390.987 92.4771C390.982 91.3178 390.857 90.7188 390.361 89.565C389.644 87.901 388.888 86.9303 387.535 85.9207C387.155 85.6378 386.293 84.9889 385.624 84.4785C383.891 83.1695 383.438 82.6481 382.148 80.4959C381.416 79.2645 380.925 78.5378 380.386 77.85C379.115 76.2414 377.531 75.1376 375.967 74.7771C375.432 74.6495 374.07 74.594 373.511 74.6717Z" fill="#FDFACC"/>
</g>
<g clip-path="url(#clip10_1_66901)">
<path d="M373.511 74.6717C372.501 74.8214 371.923 75.0267 370.888 75.6146C369.236 76.5521 367.604 77.9998 366.531 79.4864C365.944 80.2906 364.933 82.0268 364.586 82.8145C364.345 83.3636 364.225 84.1901 364.032 86.6529C363.931 87.9121 363.888 88.5721 363.666 92.1166C363.455 95.478 363.31 97.1476 363.214 97.3417C363.137 97.5026 362.968 96.0937 362.487 91.3123C361.799 84.4619 361.62 83.2915 360.995 81.5997C360.061 79.0925 357.885 77.0069 355.145 75.9974C353.773 75.4926 352.656 75.4815 351.164 75.953C349.864 76.369 348.757 77.0513 347.525 78.2161C346.417 79.2589 345.796 80.0244 344.357 82.1045C343.004 84.057 342.239 85.2551 341.954 85.8597C341.858 86.0705 341.762 86.187 341.622 86.2702C341.382 86.4144 341.29 86.4976 340.101 87.6181C338.777 88.8717 338.209 89.4485 337.67 90.1031C336.553 91.4565 335.966 92.5659 335.585 94.058C335.33 95.0564 335.268 95.6056 335.268 96.8314C335.272 98.3291 335.417 99.4385 335.706 100.099C335.951 100.67 336.837 101.879 337.444 102.478C338.387 103.41 340.414 104.636 341.902 105.179C343.856 105.889 345.738 106.239 349.946 106.677C353.35 107.032 354.625 107.21 354.972 107.376L355.136 107.454L354.972 107.653C354.77 107.892 354.524 107.981 353.725 108.086C352.868 108.203 351.713 108.275 349.537 108.341C345.531 108.463 343.813 108.619 342.556 108.979C340.876 109.462 338.71 111.159 337.453 112.973C336.134 114.887 335.624 116.595 335.359 119.99C335.263 121.188 335.263 122.325 335.359 122.685C335.489 123.196 336.211 124.438 337.251 125.941C338.007 127.029 338.57 127.711 339.441 128.582L340.27 129.414L340.698 130.473C340.934 131.056 341.232 131.749 341.362 132.015C342.147 133.596 343.471 135.599 344.496 136.758C345.464 137.851 346.138 138.3 347.38 138.677C349.06 139.193 351.645 139.415 352.767 139.137C354.053 138.827 355.665 137.745 356.864 136.397C357.403 135.793 357.962 134.866 358.419 133.807C358.982 132.503 359.43 130.373 360.056 125.953C360.518 122.724 360.807 120.944 360.995 120.25C361.182 119.557 361.462 119.235 361.977 119.124L362.16 119.085L362.131 119.551C362.092 120.162 361.929 124.266 361.856 126.424C361.794 128.249 361.823 131.167 361.909 132.026C362.121 134.162 362.785 136.708 363.715 138.949C364.393 140.58 364.966 141.5 366.117 142.815C367.012 143.841 367.532 144.307 368.264 144.729C368.832 145.056 369.28 145.222 370.247 145.45C371.09 145.655 371.114 145.649 371.201 145.289C371.225 145.178 371.292 144.801 371.35 144.451C371.485 143.608 371.456 143.292 371.191 142.676C371.008 142.244 370.921 142.122 370.084 141.162C368.615 139.47 368.221 138.877 367.638 137.49C366.3 134.312 365.794 131.71 365.544 126.729C365.419 124.294 365.448 122.225 365.616 121.349C365.713 120.827 365.717 120.822 365.818 121.154C366.319 122.83 366.68 124.338 367.104 126.563C367.686 129.575 367.807 129.935 368.832 131.621C370.233 133.929 371.311 135.293 372.838 136.686C374.181 137.912 375.163 138.472 376.53 138.788C378.331 139.204 379.659 139.01 381.118 138.117C381.883 137.645 382.346 137.263 382.668 136.835C382.832 136.619 383.15 136.264 383.376 136.042C384.257 135.205 384.632 134.567 385.701 132.11C386.466 130.357 386.958 129.442 387.853 128.116C388.522 127.128 389.09 126.518 389.755 126.063L390.327 125.675L390.554 125.176C390.679 124.899 390.9 124.438 391.054 124.15C391.502 123.29 391.709 122.558 391.926 121.077C392.128 119.673 392.21 118.559 392.21 117.188C392.205 115.63 392.166 115.413 391.642 114.193C390.534 111.625 389.172 110.166 386.943 109.157C385.845 108.663 384.873 108.374 383.742 108.208C382.278 107.992 381.879 107.981 376.52 107.981C373.545 107.981 371.244 107.958 371.206 107.931C371.153 107.892 371.153 107.875 371.21 107.836C371.364 107.737 372.462 107.576 375.461 107.204C379.423 106.71 380.482 106.505 381.768 105.956C383.838 105.08 385.388 104.12 387.015 102.711C388.859 101.114 389.779 99.677 390.337 97.5192C390.713 96.0882 390.987 93.9249 390.987 92.4771C390.982 91.3178 390.857 90.7188 390.361 89.565C389.644 87.901 388.888 86.9303 387.535 85.9207C387.155 85.6378 386.293 84.9889 385.624 84.4785C383.891 83.1695 383.438 82.6481 382.148 80.4959C381.416 79.2645 380.925 78.5378 380.386 77.85C379.115 76.2414 377.531 75.1376 375.967 74.7771C375.432 74.6495 374.07 74.594 373.511 74.6717Z" fill="#7E6935"/>
</g>
<path style="mix-blend-mode:overlay" d="M476.025 135.905C473.525 177.017 436.957 209.676 393.07 209.902C347.224 210.156 309.271 174.925 309.03 131.89C308.759 88.8546 346.29 53.2276 392.136 53.0014C437.981 52.7469 475.935 87.9781 476.176 131.013L476.055 135.905L476.025 135.905Z" fill="url(#paint29_radial_1_66901)"/>
<path style="mix-blend-mode:overlay" d="M410.025 71.9049C407.525 113.017 370.957 145.676 327.07 145.902C281.224 146.156 243.271 110.925 243.03 67.8899C242.759 24.8546 280.29 -10.7724 326.136 -10.9986C371.981 -11.2531 409.935 23.9781 410.176 67.0133L410.055 71.9049L410.025 71.9049Z" fill="url(#paint30_radial_1_66901)"/>
</g>
<defs>
<radialGradient id="paint0_radial_1_66901" cx="0" cy="0" r="1" gradientTransform="matrix(-25.1361 30.0059 31.9652 23.5953 140.957 95.3121)" gradientUnits="userSpaceOnUse">
<stop stop-color="#FDFAC1"/>
<stop offset="0.11" stop-color="#F5EFAF"/>
<stop offset="0.33" stop-color="#E3D283"/>
<stop offset="0.37" stop-color="#E0CD7A"/>
<stop offset="0.69" stop-color="#D5AB2E"/>
<stop offset="1" stop-color="#65371C"/>
</radialGradient>
<linearGradient id="paint1_linear_1_66901" x1="162.748" y1="55.8954" x2="109.709" y2="127.749" gradientUnits="userSpaceOnUse">
<stop stop-color="#E9BD37"/>
<stop offset="0.25" stop-color="#FDFAC1"/>
<stop offset="0.31" stop-color="#F2EBAF"/>
<stop offset="0.42" stop-color="#D7C582"/>
<stop offset="0.57" stop-color="#AC893B"/>
<stop offset="0.6" stop-color="#A68030"/>
<stop offset="0.87" stop-color="#E0CD7A"/>
<stop offset="1" stop-color="#FDFAC1"/>
</linearGradient>
<radialGradient id="paint2_radial_1_66901" cx="0" cy="0" r="1" gradientTransform="matrix(-23.2555 27.761 29.5737 21.83 134.019 90.1908)" gradientUnits="userSpaceOnUse">
<stop stop-color="#FDFAC1"/>
<stop offset="0.11" stop-color="#F5EFAF"/>
<stop offset="0.33" stop-color="#E3D283"/>
<stop offset="0.37" stop-color="#E0CD7A"/>
<stop offset="0.69" stop-color="#A95823"/>
<stop offset="1" stop-color="#5A3A19"/>
</radialGradient>
<linearGradient id="paint3_linear_1_66901" x1="81.0558" y1="103.325" x2="150.36" y2="84.3427" gradientUnits="userSpaceOnUse">
<stop stop-color="#EDC73D"/>
<stop offset="0.25" stop-color="#FDFACC"/>
<stop offset="0.31" stop-color="#F4EDBA"/>
<stop offset="0.42" stop-color="#DDCC8D"/>
<stop offset="0.57" stop-color="#BA9846"/>
<stop offset="0.6" stop-color="#B4903A"/>
<stop offset="0.87" stop-color="#E6D48A"/>
<stop offset="1" stop-color="#FDFACC"/>
</linearGradient>
<radialGradient id="paint4_radial_1_66901" cx="0" cy="0" r="1" gradientTransform="matrix(83.5566 -0.451765 0.481262 78.4348 115.097 79.423)" gradientUnits="userSpaceOnUse">
<stop stop-color="white"/>
<stop offset="0.03" stop-color="white" stop-opacity="0.88"/>
<stop offset="0.09" stop-color="white" stop-opacity="0.64"/>
<stop offset="0.15" stop-color="white" stop-opacity="0.45"/>
<stop offset="0.21" stop-color="white" stop-opacity="0.29"/>
<stop offset="0.26" stop-color="white" stop-opacity="0.18"/>
<stop offset="0.3" stop-color="white" stop-opacity="0.11"/>
<stop offset="0.34" stop-color="white" stop-opacity="0.09"/>
<stop offset="0.4" stop-color="white" stop-opacity="0.05"/>
<stop offset="0.51" stop-color="white" stop-opacity="0.01"/>
<stop offset="0.66" stop-color="white" stop-opacity="0"/>
</radialGradient>
<radialGradient id="paint5_radial_1_66901" cx="0" cy="0" r="1" gradientTransform="matrix(-28.1524 33.7566 35.801 26.5447 79.3061 470.601)" gradientUnits="userSpaceOnUse">
<stop stop-color="#FDFAC1"/>
<stop offset="0.11" stop-color="#F5EFAF"/>
<stop offset="0.33" stop-color="#E3D283"/>
<stop offset="0.37" stop-color="#E0CD7A"/>
<stop offset="0.69" stop-color="#D5AB2E"/>
<stop offset="1" stop-color="#65371C"/>
</radialGradient>
<linearGradient id="paint6_linear_1_66901" x1="103.714" y1="426.257" x2="43.9666" y2="506.839" gradientUnits="userSpaceOnUse">
<stop stop-color="#E9BD37"/>
<stop offset="0.25" stop-color="#FDFAC1"/>
<stop offset="0.31" stop-color="#F2EBAF"/>
<stop offset="0.42" stop-color="#D7C582"/>
<stop offset="0.57" stop-color="#AC893B"/>
<stop offset="0.6" stop-color="#A68030"/>
<stop offset="0.87" stop-color="#E0CD7A"/>
<stop offset="1" stop-color="#FDFAC1"/>
</linearGradient>
<radialGradient id="paint7_radial_1_66901" cx="0" cy="0" r="1" gradientTransform="matrix(-26.0462 31.2311 33.1226 24.5588 71.5355 464.84)" gradientUnits="userSpaceOnUse">
<stop stop-color="#FDFAC1"/>
<stop offset="0.11" stop-color="#F5EFAF"/>
<stop offset="0.33" stop-color="#E3D283"/>
<stop offset="0.37" stop-color="#E0CD7A"/>
<stop offset="0.69" stop-color="#A95823"/>
<stop offset="1" stop-color="#5A3A19"/>
</radialGradient>
<linearGradient id="paint8_linear_1_66901" x1="12.2161" y1="479.616" x2="89.885" y2="458.437" gradientUnits="userSpaceOnUse">
<stop stop-color="#EDC73D"/>
<stop offset="0.25" stop-color="#FDFACC"/>
<stop offset="0.31" stop-color="#F4EDBA"/>
<stop offset="0.42" stop-color="#DDCC8D"/>
<stop offset="0.57" stop-color="#BA9846"/>
<stop offset="0.6" stop-color="#B4903A"/>
<stop offset="0.87" stop-color="#E6D48A"/>
<stop offset="1" stop-color="#FDFACC"/>
</linearGradient>
<radialGradient id="paint9_radial_1_66901" cx="0" cy="0" r="1" gradientTransform="matrix(68.8113 -0.373703 0.396333 64.8817 75.1358 429.368)" gradientUnits="userSpaceOnUse">
<stop stop-color="white"/>
<stop offset="0.03" stop-color="white" stop-opacity="0.88"/>
<stop offset="0.09" stop-color="white" stop-opacity="0.64"/>
<stop offset="0.15" stop-color="white" stop-opacity="0.45"/>
<stop offset="0.21" stop-color="white" stop-opacity="0.29"/>
<stop offset="0.26" stop-color="white" stop-opacity="0.18"/>
<stop offset="0.3" stop-color="white" stop-opacity="0.11"/>
<stop offset="0.34" stop-color="white" stop-opacity="0.09"/>
<stop offset="0.4" stop-color="white" stop-opacity="0.05"/>
<stop offset="0.51" stop-color="white" stop-opacity="0.01"/>
<stop offset="0.66" stop-color="white" stop-opacity="0"/>
</radialGradient>
<radialGradient id="paint10_radial_1_66901" cx="0" cy="0" r="1" gradientTransform="matrix(-14.2423 -32.4599 -30.6054 16.1485 64.7176 271.864)" gradientUnits="userSpaceOnUse">
<stop stop-color="#FDFAC1"/>
<stop offset="0.11" stop-color="#F5EFAF"/>
<stop offset="0.33" stop-color="#E3D283"/>
<stop offset="0.37" stop-color="#E0CD7A"/>
<stop offset="0.69" stop-color="#D5AB2E"/>
<stop offset="1" stop-color="#65371C"/>
</radialGradient>
<linearGradient id="paint11_linear_1_66901" x1="87.6548" y1="305.36" x2="49.9396" y2="233.88" gradientUnits="userSpaceOnUse">
<stop stop-color="#E9BD37"/>
<stop offset="0.25" stop-color="#FDFAC1"/>
<stop offset="0.31" stop-color="#F2EBAF"/>
<stop offset="0.42" stop-color="#D7C582"/>
<stop offset="0.57" stop-color="#AC893B"/>
<stop offset="0.6" stop-color="#A68030"/>
<stop offset="0.87" stop-color="#E0CD7A"/>
<stop offset="1" stop-color="#FDFAC1"/>
</linearGradient>
<radialGradient id="paint12_radial_1_66901" cx="0" cy="0" r="1" gradientTransform="matrix(-13.1767 -30.0315 -28.3157 14.9404 71.3744 268.26)" gradientUnits="userSpaceOnUse">
<stop stop-color="#FDFAC1"/>
<stop offset="0.11" stop-color="#F5EFAF"/>
<stop offset="0.33" stop-color="#E3D283"/>
<stop offset="0.37" stop-color="#E0CD7A"/>
<stop offset="0.69" stop-color="#A95823"/>
<stop offset="1" stop-color="#5A3A19"/>
</radialGradient>
<linearGradient id="paint13_linear_1_66901" x1="80.8806" y1="220.253" x2="67.6957" y2="283.358" gradientUnits="userSpaceOnUse">
<stop stop-color="#EDC73D"/>
<stop offset="0.25" stop-color="#FDFACC"/>
<stop offset="0.31" stop-color="#F4EDBA"/>
<stop offset="0.42" stop-color="#DDCC8D"/>
<stop offset="0.57" stop-color="#BA9846"/>
<stop offset="0.6" stop-color="#B4903A"/>
<stop offset="0.87" stop-color="#E6D48A"/>
<stop offset="1" stop-color="#FDFACC"/>
</linearGradient>
<radialGradient id="paint14_radial_1_66901" cx="0" cy="0" r="1" gradientTransform="matrix(-42.6206 92.6587 -84.9031 -43.0578 69.7116 247.978)" gradientUnits="userSpaceOnUse">
<stop stop-color="white"/>
<stop offset="0.03" stop-color="white" stop-opacity="0.88"/>
<stop offset="0.09" stop-color="white" stop-opacity="0.64"/>
<stop offset="0.15" stop-color="white" stop-opacity="0.45"/>
<stop offset="0.21" stop-color="white" stop-opacity="0.29"/>
<stop offset="0.26" stop-color="white" stop-opacity="0.18"/>
<stop offset="0.3" stop-color="white" stop-opacity="0.11"/>
<stop offset="0.34" stop-color="white" stop-opacity="0.09"/>
<stop offset="0.4" stop-color="white" stop-opacity="0.05"/>
<stop offset="0.51" stop-color="white" stop-opacity="0.01"/>
<stop offset="0.66" stop-color="white" stop-opacity="0"/>
</radialGradient>
<radialGradient id="paint15_radial_1_66901" cx="0" cy="0" r="1" gradientTransform="matrix(-18.3493 21.9043 23.3346 17.2246 -0.335309 131.728)" gradientUnits="userSpaceOnUse">
<stop stop-color="#FDFAC1"/>
<stop offset="0.11" stop-color="#F5EFAF"/>
<stop offset="0.33" stop-color="#E3D283"/>
<stop offset="0.37" stop-color="#E0CD7A"/>
<stop offset="0.69" stop-color="#D5AB2E"/>
<stop offset="1" stop-color="#65371C"/>
</radialGradient>
<linearGradient id="paint16_linear_1_66901" x1="15.5714" y1="102.954" x2="-23.1474" y2="155.407" gradientUnits="userSpaceOnUse">
<stop stop-color="#E9BD37"/>
<stop offset="0.25" stop-color="#FDFAC1"/>
<stop offset="0.31" stop-color="#F2EBAF"/>
<stop offset="0.42" stop-color="#D7C582"/>
<stop offset="0.57" stop-color="#AC893B"/>
<stop offset="0.6" stop-color="#A68030"/>
<stop offset="0.87" stop-color="#E0CD7A"/>
<stop offset="1" stop-color="#FDFAC1"/>
</linearGradient>
<radialGradient id="paint17_radial_1_66901" cx="0" cy="0" r="1" gradientTransform="matrix(-16.9765 20.2655 21.5888 15.9359 -5.40014 127.989)" gradientUnits="userSpaceOnUse">
<stop stop-color="#FDFAC1"/>
<stop offset="0.11" stop-color="#F5EFAF"/>
<stop offset="0.33" stop-color="#E3D283"/>
<stop offset="0.37" stop-color="#E0CD7A"/>
<stop offset="0.69" stop-color="#A95823"/>
<stop offset="1" stop-color="#5A3A19"/>
</radialGradient>
<linearGradient id="paint18_linear_1_66901" x1="-44.0631" y1="137.577" x2="6.52898" y2="123.72" gradientUnits="userSpaceOnUse">
<stop stop-color="#EDC73D"/>
<stop offset="0.25" stop-color="#FDFACC"/>
<stop offset="0.31" stop-color="#F4EDBA"/>
<stop offset="0.42" stop-color="#DDCC8D"/>
<stop offset="0.57" stop-color="#BA9846"/>
<stop offset="0.6" stop-color="#B4903A"/>
<stop offset="0.87" stop-color="#E6D48A"/>
<stop offset="1" stop-color="#FDFACC"/>
</linearGradient>
<radialGradient id="paint19_radial_1_66901" cx="0" cy="0" r="1" gradientTransform="matrix(83.5566 -0.451765 0.481262 78.4348 -19.4537 136.435)" gradientUnits="userSpaceOnUse">
<stop stop-color="white"/>
<stop offset="0.03" stop-color="white" stop-opacity="0.88"/>
<stop offset="0.09" stop-color="white" stop-opacity="0.64"/>
<stop offset="0.15" stop-color="white" stop-opacity="0.45"/>
<stop offset="0.21" stop-color="white" stop-opacity="0.29"/>
<stop offset="0.26" stop-color="white" stop-opacity="0.18"/>
<stop offset="0.3" stop-color="white" stop-opacity="0.11"/>
<stop offset="0.34" stop-color="white" stop-opacity="0.09"/>
<stop offset="0.4" stop-color="white" stop-opacity="0.05"/>
<stop offset="0.51" stop-color="white" stop-opacity="0.01"/>
<stop offset="0.66" stop-color="white" stop-opacity="0"/>
</radialGradient>
<radialGradient id="paint20_radial_1_66901" cx="0" cy="0" r="1" gradientTransform="matrix(-25.4403 29.7826 31.758 23.9174 216.067 266.434)" gradientUnits="userSpaceOnUse">
<stop stop-color="#FDFAC1"/>
<stop offset="0.11" stop-color="#F5EFAF"/>
<stop offset="0.33" stop-color="#E3D283"/>
<stop offset="0.37" stop-color="#E0CD7A"/>
<stop offset="0.69" stop-color="#D5AB2E"/>
<stop offset="1" stop-color="#65371C"/>
</radialGradient>
<linearGradient id="paint21_linear_1_66901" x1="238.251" y1="227.203" x2="184.488" y2="298.591" gradientUnits="userSpaceOnUse">
<stop stop-color="#E9BD37"/>
<stop offset="0.25" stop-color="#FDFAC1"/>
<stop offset="0.31" stop-color="#F2EBAF"/>
<stop offset="0.42" stop-color="#D7C582"/>
<stop offset="0.57" stop-color="#AC893B"/>
<stop offset="0.6" stop-color="#A68030"/>
<stop offset="0.87" stop-color="#E0CD7A"/>
<stop offset="1" stop-color="#FDFAC1"/>
</linearGradient>
<radialGradient id="paint22_radial_1_66901" cx="0" cy="0" r="1" gradientTransform="matrix(-23.537 27.5544 29.382 22.128 209.174 261.243)" gradientUnits="userSpaceOnUse">
<stop stop-color="#FDFAC1"/>
<stop offset="0.11" stop-color="#F5EFAF"/>
<stop offset="0.33" stop-color="#E3D283"/>
<stop offset="0.37" stop-color="#E0CD7A"/>
<stop offset="0.69" stop-color="#A95823"/>
<stop offset="1" stop-color="#5A3A19"/>
</radialGradient>
<linearGradient id="paint23_linear_1_66901" x1="156.051" y1="273.876" x2="225.58" y2="255.549" gradientUnits="userSpaceOnUse">
<stop stop-color="#EDC73D"/>
<stop offset="0.25" stop-color="#FDFACC"/>
<stop offset="0.31" stop-color="#F4EDBA"/>
<stop offset="0.42" stop-color="#DDCC8D"/>
<stop offset="0.57" stop-color="#BA9846"/>
<stop offset="0.6" stop-color="#B4903A"/>
<stop offset="0.87" stop-color="#E6D48A"/>
<stop offset="1" stop-color="#FDFACC"/>
</linearGradient>
<radialGradient id="paint24_radial_1_66901" cx="0" cy="0" r="1" gradientTransform="matrix(83.6126 0.351752 -0.272967 78.488 190.344 250.287)" gradientUnits="userSpaceOnUse">
<stop stop-color="white"/>
<stop offset="0.03" stop-color="white" stop-opacity="0.88"/>
<stop offset="0.09" stop-color="white" stop-opacity="0.64"/>
<stop offset="0.15" stop-color="white" stop-opacity="0.45"/>
<stop offset="0.21" stop-color="white" stop-opacity="0.29"/>
<stop offset="0.26" stop-color="white" stop-opacity="0.18"/>
<stop offset="0.3" stop-color="white" stop-opacity="0.11"/>
<stop offset="0.34" stop-color="white" stop-opacity="0.09"/>
<stop offset="0.4" stop-color="white" stop-opacity="0.05"/>
<stop offset="0.51" stop-color="white" stop-opacity="0.01"/>
<stop offset="0.66" stop-color="white" stop-opacity="0"/>
</radialGradient>
<radialGradient id="paint25_radial_1_66901" cx="0" cy="0" r="1" gradientTransform="matrix(9.70188 58.4883 -62.0967 9.13812 347.447 109.888)" gradientUnits="userSpaceOnUse">
<stop stop-color="#FDFAC1"/>
<stop offset="0.11" stop-color="#F5EFAF"/>
<stop offset="0.33" stop-color="#E3D283"/>
<stop offset="0.37" stop-color="#E0CD7A"/>
<stop offset="0.69" stop-color="#D5AB2E"/>
<stop offset="1" stop-color="#65371C"/>
</radialGradient>
<linearGradient id="paint26_linear_1_66901" x1="349.88" y1="41.0488" x2="369.608" y2="175.109" gradientUnits="userSpaceOnUse">
<stop stop-color="#E9BD37"/>
<stop offset="0.25" stop-color="#FDFAC1"/>
<stop offset="0.31" stop-color="#F2EBAF"/>
<stop offset="0.42" stop-color="#D7C582"/>
<stop offset="0.57" stop-color="#AC893B"/>
<stop offset="0.6" stop-color="#A68030"/>
<stop offset="0.87" stop-color="#E0CD7A"/>
<stop offset="1" stop-color="#FDFAC1"/>
</linearGradient>
<radialGradient id="paint27_radial_1_66901" cx="0" cy="0" r="1" gradientTransform="matrix(8.97602 54.1125 -57.4508 8.45446 360.969 107.899)" gradientUnits="userSpaceOnUse">
<stop stop-color="#FDFAC1"/>
<stop offset="0.11" stop-color="#F5EFAF"/>
<stop offset="0.33" stop-color="#E3D283"/>
<stop offset="0.37" stop-color="#E0CD7A"/>
<stop offset="0.69" stop-color="#A95823"/>
<stop offset="1" stop-color="#5A3A19"/>
</radialGradient>
<linearGradient id="paint28_linear_1_66901" x1="421.77" y1="163.394" x2="345.733" y2="86.2091" gradientUnits="userSpaceOnUse">
<stop stop-color="#EDC73D"/>
<stop offset="0.25" stop-color="#FDFACC"/>
<stop offset="0.31" stop-color="#F4EDBA"/>
<stop offset="0.42" stop-color="#DDCC8D"/>
<stop offset="0.57" stop-color="#BA9846"/>
<stop offset="0.6" stop-color="#B4903A"/>
<stop offset="0.87" stop-color="#E6D48A"/>
<stop offset="1" stop-color="#FDFACC"/>
</linearGradient>
<radialGradient id="paint29_radial_1_66901" cx="0" cy="0" r="1" gradientTransform="matrix(83.5566 -0.451765 0.481262 78.4348 392.55 131.435)" gradientUnits="userSpaceOnUse">
<stop stop-color="white"/>
<stop offset="0.03" stop-color="white" stop-opacity="0.88"/>
<stop offset="0.09" stop-color="white" stop-opacity="0.64"/>
<stop offset="0.15" stop-color="white" stop-opacity="0.45"/>
<stop offset="0.21" stop-color="white" stop-opacity="0.29"/>
<stop offset="0.26" stop-color="white" stop-opacity="0.18"/>
<stop offset="0.3" stop-color="white" stop-opacity="0.11"/>
<stop offset="0.34" stop-color="white" stop-opacity="0.09"/>
<stop offset="0.4" stop-color="white" stop-opacity="0.05"/>
<stop offset="0.51" stop-color="white" stop-opacity="0.01"/>
<stop offset="0.66" stop-color="white" stop-opacity="0"/>
</radialGradient>
<radialGradient id="paint30_radial_1_66901" cx="0" cy="0" r="1" gradientTransform="matrix(83.5566 -0.451765 0.481262 78.4348 326.55 67.4349)" gradientUnits="userSpaceOnUse">
<stop stop-color="white"/>
<stop offset="0.03" stop-color="white" stop-opacity="0.88"/>
<stop offset="0.09" stop-color="white" stop-opacity="0.64"/>
<stop offset="0.15" stop-color="white" stop-opacity="0.45"/>
<stop offset="0.21" stop-color="white" stop-opacity="0.29"/>
<stop offset="0.26" stop-color="white" stop-opacity="0.18"/>
<stop offset="0.3" stop-color="white" stop-opacity="0.11"/>
<stop offset="0.34" stop-color="white" stop-opacity="0.09"/>
<stop offset="0.4" stop-color="white" stop-opacity="0.05"/>
<stop offset="0.51" stop-color="white" stop-opacity="0.01"/>
<stop offset="0.66" stop-color="white" stop-opacity="0"/>
</radialGradient>
<clipPath id="clip0_1_66901">
<rect width="34.7235" height="43.252" fill="white" transform="translate(128.52 61.1844) rotate(28.0126)"/>
</clipPath>
<clipPath id="clip1_1_66901">
<rect width="34.7235" height="43.252" fill="white" transform="translate(128.52 61.1844) rotate(28.0126)"/>
</clipPath>
<clipPath id="clip2_1_66901">
<rect width="38.9286" height="48.6109" fill="white" transform="matrix(0.881974 0.471298 -0.468037 0.883709 65.377 432.208)"/>
</clipPath>
<clipPath id="clip3_1_66901">
<rect width="38.9286" height="48.6109" fill="white" transform="matrix(0.881974 0.471298 -0.468037 0.883709 65.377 432.208)"/>
</clipPath>
<clipPath id="clip4_1_66901">
<rect width="30.7325" height="38.4471" fill="white" transform="matrix(-0.787101 0.590433 -0.581085 -0.833793 96.1445 275.649)"/>
</clipPath>
<clipPath id="clip5_1_66901">
<rect width="30.7325" height="38.4471" fill="white" transform="matrix(-0.787101 0.590433 -0.581085 -0.833793 96.1445 275.649)"/>
</clipPath>
<clipPath id="clip6_1_66901">
<rect width="25.3481" height="31.574" fill="white" transform="translate(-9.41406 106.815) rotate(28.0126)"/>
</clipPath>
<clipPath id="clip7_1_66901">
<rect width="25.3481" height="31.574" fill="white" transform="translate(-9.41406 106.815) rotate(28.0126)"/>
</clipPath>
<clipPath id="clip8_1_66901">
<rect width="144" height="148" fill="white" transform="translate(283.027 35)"/>
</clipPath>
<clipPath id="clip9_1_66901">
<rect width="57" height="71" fill="white" transform="translate(335.238 74.6162)"/>
</clipPath>
<clipPath id="clip10_1_66901">
<rect width="57" height="71" fill="white" transform="translate(335.238 74.6162)"/>
</clipPath>
</defs>
</svg>
