<svg width="31" height="36" viewBox="0 0 31 36" fill="none" xmlns="http://www.w3.org/2000/svg">
<path d="M0 9.25037L15.1555 0.5L30.3113 9.25037V26.75L15.1555 35.5L0 26.75V9.25037Z" fill="url(#paint0_linear_1_65555)"/>
<path d="M0.34375 9.4492L15.1548 0.897461L29.9659 9.4492V26.5512L15.1548 35.1022L0.34375 26.5512V9.4492Z" fill="url(#paint1_linear_1_65555)"/>
<path opacity="0.9" d="M6.19922 9.04363C6.19922 9.04363 6.41363 8.81747 6.79765 8.43088C6.89421 8.33506 7.00105 8.22859 7.11743 8.11294C7.24556 8.00867 7.38434 7.89559 7.5323 7.77517C7.68135 7.65402 7.83996 7.52478 8.00737 7.38857C8.17295 7.24759 8.37378 7.14406 8.56946 7.01152C8.76918 6.88449 8.97662 6.75232 9.19176 6.61538C9.42049 6.50193 9.65655 6.38409 9.89923 6.26293C10.0211 6.20272 10.1445 6.14177 10.2697 6.08009C10.3967 6.02282 10.5307 5.9784 10.6636 5.92626C10.9316 5.82677 11.2055 5.72581 11.4838 5.62301C12.0598 5.48386 12.6465 5.28488 13.2699 5.22026C13.8852 5.10241 14.5219 5.0958 15.1555 5.05908C15.7896 5.09543 16.4258 5.10241 17.0412 5.22026C17.6646 5.28377 18.2509 5.48349 18.8273 5.62227C19.106 5.72507 19.3798 5.8264 19.6479 5.92516C19.7808 5.97766 19.9148 6.02209 20.0418 6.07936C20.1666 6.14104 20.2903 6.20198 20.4119 6.26256C20.6549 6.38335 20.891 6.50047 21.1193 6.61428C21.3345 6.75159 21.5423 6.88376 21.7416 7.01079C21.937 7.14333 22.1385 7.24796 22.3034 7.38747C22.47 7.52332 22.6279 7.65181 22.7766 7.77296C22.9246 7.89302 23.0626 8.0061 23.1907 8.11037C23.3078 8.22638 23.4154 8.33359 23.5127 8.43014C23.8986 8.81858 24.1115 9.04363 24.1115 9.04363C24.1115 9.04363 23.8633 8.85235 23.4422 8.51092C23.3372 8.42574 23.2212 8.33102 23.0949 8.22822C22.9587 8.13827 22.8115 8.04098 22.654 7.93708C22.3408 7.72818 21.9924 7.4888 21.579 7.28174C21.3767 7.17233 21.1663 7.05888 20.9482 6.94066C20.721 6.84264 20.4857 6.74131 20.2437 6.63741C20.1233 6.58528 20.0014 6.53241 19.8777 6.47881C19.7525 6.42998 19.6199 6.39436 19.4896 6.35031C19.2282 6.2644 18.9613 6.17629 18.6896 6.08671C18.1301 5.96775 17.5614 5.80511 16.9637 5.74563C16.373 5.63733 15.7624 5.6399 15.1552 5.60832C14.5483 5.63916 13.9378 5.63733 13.3467 5.74526C12.7486 5.80364 12.1799 5.96702 11.6204 6.08634C11.3487 6.17555 11.0818 6.2633 10.82 6.34921C10.6897 6.3929 10.5575 6.42924 10.432 6.47807C10.3086 6.53167 10.1863 6.58454 10.0659 6.63667C9.82397 6.74057 9.589 6.84227 9.36138 6.93993C9.1433 7.05778 8.93293 7.17196 8.73063 7.28137C8.3165 7.4888 7.97029 7.72634 7.65822 7.93451C7.50109 8.03841 7.35387 8.13533 7.21803 8.22528C7.09063 8.32882 6.97388 8.4239 6.86814 8.50981C6.4463 8.85309 6.19922 9.04363 6.19922 9.04363Z" fill="white"/>
<path opacity="0.9" d="M24.1122 26.9565C24.1122 26.9565 23.8978 27.1827 23.5138 27.5693C23.4172 27.6651 23.3104 27.7716 23.194 27.8872C23.0659 27.9915 22.9271 28.1046 22.7792 28.225C22.6301 28.3462 22.4715 28.4754 22.3041 28.6116C22.1385 28.7526 21.9377 28.8561 21.742 28.9887C21.5426 29.1157 21.3348 29.2482 21.1193 29.3852C20.891 29.4986 20.6549 29.6161 20.4122 29.7372C20.2903 29.7975 20.167 29.8584 20.0418 29.9201C19.9148 29.9774 19.7804 30.0218 19.6478 30.0739C19.3798 30.1734 19.1059 30.2744 18.8277 30.3772C18.2513 30.5163 17.6649 30.7153 17.0415 30.7799C16.4262 30.8978 15.79 30.9044 15.1559 30.9411C14.5219 30.9047 13.8852 30.8978 13.2699 30.7799C12.6465 30.7164 12.0602 30.5167 11.4838 30.3775C11.2055 30.2751 10.9316 30.1738 10.6632 30.075C10.5307 30.0225 10.3963 29.9781 10.2693 29.9208C10.1441 29.8591 10.0208 29.7982 9.89887 29.7376C9.65582 29.6168 9.41975 29.4997 9.19139 29.3859C8.97625 29.249 8.76845 29.1164 8.56909 28.9894C8.37377 28.8569 8.17222 28.7522 8.00737 28.6127C7.84069 28.4769 7.68282 28.3484 7.53413 28.2272C7.38654 28.1072 7.24813 27.9941 7.12 27.8902C7.00288 27.7738 6.89531 27.6666 6.79802 27.57C6.41216 27.1816 6.19922 26.9565 6.19922 26.9565C6.19922 26.9565 6.4474 27.1482 6.86851 27.4893C6.97351 27.5744 7.08953 27.6692 7.21582 27.772C7.35203 27.8619 7.49925 27.9592 7.65676 28.0631C7.96993 28.272 8.31834 28.5114 8.73173 28.7184C8.93403 28.8278 9.1444 28.9417 9.36248 29.0595C9.5901 29.1575 9.82507 29.2589 10.0666 29.3628C10.1871 29.4149 10.3093 29.4678 10.4327 29.5214C10.5582 29.5702 10.6904 29.6058 10.8207 29.6499C11.0822 29.7358 11.3494 29.8239 11.6207 29.9135C12.1803 30.0324 12.749 30.1951 13.3467 30.2545C13.9377 30.3625 14.5479 30.3603 15.1552 30.3919C15.7621 30.361 16.3726 30.3629 16.9637 30.2549C17.5618 30.1965 18.1305 30.0332 18.69 29.9138C18.9617 29.8246 19.2286 29.7369 19.49 29.651C19.6207 29.6073 19.7528 29.5709 19.8784 29.5221C20.0018 29.4685 20.124 29.4156 20.2444 29.3635C20.4864 29.2596 20.7214 29.1579 20.949 29.0602C21.1671 28.9424 21.3774 28.8282 21.5797 28.7188C21.9939 28.5114 22.3401 28.2738 22.6521 28.0657C22.8093 27.9621 22.9565 27.8648 23.0923 27.7749C23.2197 27.6714 23.3365 27.5763 23.4422 27.4904C23.8655 27.1467 24.1122 26.9565 24.1122 26.9565Z" fill="white"/>
<path d="M15.1545 30.6665C22.1499 30.6665 27.8208 24.9956 27.8208 18.0002C27.8208 11.0049 22.1499 5.33398 15.1545 5.33398C8.15916 5.33398 2.48828 11.0049 2.48828 18.0002C2.48828 24.9956 8.15916 30.6665 15.1545 30.6665Z" fill="#893B0C"/>
<path d="M15.1546 30.3907C21.9979 30.3907 27.5455 24.8431 27.5455 17.9998C27.5455 11.1565 21.9979 5.60889 15.1546 5.60889C8.31127 5.60889 2.76367 11.1565 2.76367 17.9998C2.76367 24.8431 8.31127 30.3907 15.1546 30.3907Z" fill="url(#paint2_linear_1_65555)"/>
<path d="M15.1562 35.4999V35.1023L29.9673 26.5513L30.3121 26.7499L15.1562 35.4999Z" fill="#692E0A"/>
<path d="M0 26.7499L0.344377 26.5513L15.1551 35.1023L15.1555 35.4999L0 26.7499Z" fill="url(#paint3_linear_1_65555)"/>
<path d="M7.85094 24.4475L6.21094 14.2352L12.0121 16.9803L15.154 11.5386L18.296 16.9803L24.0964 14.2352L22.4649 24.4615L7.85094 24.4475Z" fill="#75330A"/>
<path d="M23.8766 14.5288L18.2267 17.2019L15.1541 11.8799L12.0812 17.2019L6.43164 14.5288L7.99675 24.2767L22.3188 24.2906L23.8766 14.5288Z" fill="url(#paint4_linear_1_65555)"/>
<path d="M9.02411 23.0721L7.98438 16.598L12.5696 18.7678L15.1542 14.292L17.7381 18.7678L22.3259 16.5962L21.2909 23.0849L9.02411 23.0721Z" fill="url(#paint5_linear_1_65555)"/>
<path d="M9.0242 23.0718L7.99805 24.2767L22.3201 24.2907L21.291 23.0846L9.0242 23.0718Z" fill="url(#paint6_linear_1_65555)"/>
<path d="M12.084 17.2019L12.5712 18.7674L15.1558 14.2916L15.1569 11.8799L12.084 17.2019Z" fill="#E8F983"/>
<path d="M15.1574 11.8799L15.1562 14.2916L17.7402 18.7674L18.2299 17.2019L15.1574 11.8799Z" fill="url(#paint7_linear_1_65555)"/>
<path d="M23.8779 14.5288L22.326 16.5958L21.291 23.0846L22.3201 24.2906L23.8779 14.5288Z" fill="url(#paint8_linear_1_65555)"/>
<g opacity="0.9">
<path d="M22.326 16.5957C22.326 16.5957 22.2874 17.0051 22.2096 17.6167C22.1681 17.9218 22.1263 18.279 22.0686 18.6598C22.0113 19.0405 21.9504 19.4469 21.8895 19.8529C21.8212 20.2575 21.7525 20.6625 21.6886 21.0425C21.6255 21.4217 21.5532 21.7745 21.4981 22.0778C21.3813 22.6821 21.291 23.0841 21.291 23.0841C21.291 23.0841 21.3296 22.674 21.407 22.0628C21.4489 21.7577 21.4904 21.4004 21.5484 21.0201C21.6053 20.6394 21.6666 20.2326 21.7275 19.8265C21.7958 19.4216 21.8645 19.0173 21.9284 18.6374C21.9919 18.2577 22.0635 17.9053 22.1185 17.602C22.2357 16.9974 22.326 16.5957 22.326 16.5957Z" fill="white"/>
</g>
<path d="M6.43164 14.5288L7.98316 16.5976L12.5683 18.7674L12.0812 17.2019L6.43164 14.5288Z" fill="url(#paint9_linear_1_65555)"/>
<path d="M22.8373 20.0753C22.4903 21.9503 21.7461 23.3865 21.1771 23.2819C20.6062 23.1758 20.4266 21.5684 20.7761 19.692C21.1246 17.8145 21.8677 16.3815 22.4375 16.488C23.0072 16.5923 23.186 18.1996 22.8373 20.0753Z" fill="url(#paint10_radial_1_65555)"/>
<path opacity="0.4" d="M30.3113 17.0169V26.7504L28.9687 27.5255L6.77994 5.33675L14.293 0.999023L30.3113 17.0169ZM16.1012 34.9541L21.5146 31.8283L0 10.3137V18.8529L16.1012 34.9541Z" fill="url(#paint11_linear_1_65555)"/>
<defs>
<linearGradient id="paint0_linear_1_65555" x1="-18.3502" y1="-15.4426" x2="30.571" y2="33.3868" gradientUnits="userSpaceOnUse">
<stop stop-color="#AF6517"/>
<stop offset="0.257" stop-color="#E0A03B"/>
<stop offset="0.48" stop-color="#E9FF88"/>
<stop offset="0.6391" stop-color="#E0A03B"/>
<stop offset="1" stop-color="#88390B"/>
</linearGradient>
<linearGradient id="paint1_linear_1_65555" x1="-5.69537" y1="-3.02486" x2="37.0911" y2="40.1203" gradientUnits="userSpaceOnUse">
<stop stop-color="#AF6517"/>
<stop offset="0.257" stop-color="#E0A03B"/>
<stop offset="0.48" stop-color="#E9FF88"/>
<stop offset="0.6391" stop-color="#E0A03B"/>
<stop offset="1" stop-color="#88390B"/>
</linearGradient>
<linearGradient id="paint2_linear_1_65555" x1="-3.43549" y1="-10.7415" x2="23.8606" y2="31.4597" gradientUnits="userSpaceOnUse">
<stop stop-color="#E0A03B"/>
<stop offset="1" stop-color="#88390B"/>
</linearGradient>
<linearGradient id="paint3_linear_1_65555" x1="12.6509" y1="34.7128" x2="-0.0155398" y2="25.2588" gradientUnits="userSpaceOnUse">
<stop stop-color="#E0A03B"/>
<stop offset="1" stop-color="#88390B"/>
</linearGradient>
<linearGradient id="paint4_linear_1_65555" x1="5.46063" y1="16.9305" x2="29.4573" y2="21.435" gradientUnits="userSpaceOnUse">
<stop stop-color="#AF6517"/>
<stop offset="0.257" stop-color="#E0A03B"/>
<stop offset="0.48" stop-color="#E9FF88"/>
<stop offset="0.6391" stop-color="#E0A03B"/>
<stop offset="1" stop-color="#88390B"/>
</linearGradient>
<linearGradient id="paint5_linear_1_65555" x1="3.67858" y1="10.8075" x2="27.7088" y2="28.8889" gradientUnits="userSpaceOnUse">
<stop stop-color="#AF6517"/>
<stop offset="0.257" stop-color="#E0A03B"/>
<stop offset="0.48" stop-color="#E9FF88"/>
<stop offset="0.6391" stop-color="#E0A03B"/>
<stop offset="1" stop-color="#88390B"/>
</linearGradient>
<linearGradient id="paint6_linear_1_65555" x1="-10.0354" y1="-6.44313" x2="12.7742" y2="21.375" gradientUnits="userSpaceOnUse">
<stop stop-color="#AF6517"/>
<stop offset="0.257" stop-color="#E0A03B"/>
<stop offset="0.48" stop-color="#E9FF88"/>
<stop offset="0.6391" stop-color="#E0A03B"/>
<stop offset="1" stop-color="#88390B"/>
</linearGradient>
<linearGradient id="paint7_linear_1_65555" x1="15.9768" y1="14.0446" x2="20.8884" y2="25.7158" gradientUnits="userSpaceOnUse">
<stop stop-color="#E0A03B"/>
<stop offset="1" stop-color="#88390B"/>
</linearGradient>
<linearGradient id="paint8_linear_1_65555" x1="16.4762" y1="16.5957" x2="28.1066" y2="21.5375" gradientUnits="userSpaceOnUse">
<stop stop-color="#AF6517"/>
<stop offset="0.257" stop-color="#E0A03B"/>
<stop offset="0.48" stop-color="#E9FF88"/>
<stop offset="0.6391" stop-color="#E0A03B"/>
<stop offset="1" stop-color="#88390B"/>
</linearGradient>
<linearGradient id="paint9_linear_1_65555" x1="3.54722" y1="13.3618" x2="12.3025" y2="18.1385" gradientUnits="userSpaceOnUse">
<stop stop-color="#AF6517"/>
<stop offset="0.257" stop-color="#E0A03B"/>
<stop offset="0.48" stop-color="#E9FF88"/>
<stop offset="0.6391" stop-color="#E0A03B"/>
<stop offset="1" stop-color="#88390B"/>
</linearGradient>
<radialGradient id="paint10_radial_1_65555" cx="0" cy="0" r="1" gradientTransform="matrix(0.904124 0.168103 -0.580033 3.12521 21.8061 19.935)" gradientUnits="userSpaceOnUse">
<stop stop-color="white"/>
<stop offset="1" stop-color="white" stop-opacity="0"/>
</radialGradient>
<linearGradient id="paint11_linear_1_65555" x1="0" y1="17.9763" x2="30.3111" y2="17.9763" gradientUnits="userSpaceOnUse">
<stop stop-color="white"/>
<stop offset="1" stop-color="#FAF7F5" stop-opacity="0"/>
</linearGradient>
</defs>
</svg>
