<svg width="950" height="415" viewBox="0 0 950 415" fill="none" xmlns="http://www.w3.org/2000/svg">
<path d="M274.047 776.316C234.507 749.896 200.558 715.948 174.139 676.408L475.228 475.227L274.047 776.316Z" fill="#501F9E"/>
<path d="M174.139 274.045C200.559 234.506 234.507 200.557 274.047 174.137L475.228 475.227L174.139 274.045Z" fill="#501F9E"/>
<path d="M676.41 174.137C715.949 200.557 749.898 234.506 776.317 274.045L475.228 475.227L676.41 174.137Z" fill="#501F9E"/>
<path d="M776.317 676.408C802.736 636.868 821.109 592.512 830.387 545.872L475.228 475.226L776.317 676.408Z" fill="url(#paint0_linear_1_66434)"/>
<path d="M676.409 174.137C636.869 147.718 592.513 129.345 545.873 120.067L475.228 475.226L676.409 174.137Z" fill="url(#paint1_linear_1_66434)"/>
<path d="M174.138 274.045C147.719 313.585 129.346 357.941 120.069 404.581L475.228 475.226L174.138 274.045Z" fill="url(#paint2_linear_1_66434)"/>
<path d="M830.387 404.581C839.664 451.221 839.664 499.232 830.387 545.872L475.228 475.226L830.387 404.581Z" fill="url(#paint3_linear_1_66434)"/>
<path d="M120.069 545.872C110.792 499.232 110.792 451.221 120.069 404.581L475.228 475.226L120.069 545.872Z" fill="#501F9E"/>
<path d="M404.583 120.067C451.223 110.79 499.234 110.79 545.874 120.067L475.228 475.226L404.583 120.067Z" fill="#501F9E"/>
<path d="M830.387 404.581C821.11 357.941 802.737 313.585 776.317 274.045L475.228 475.227L830.387 404.581Z" fill="url(#paint4_linear_1_66434)"/>
<path d="M404.583 120.068C357.943 129.345 313.586 147.718 274.047 174.138L475.228 475.227L404.583 120.068Z" fill="url(#paint5_linear_1_66434)"/>
<circle cx="475.373" cy="477.385" r="407.835" stroke="url(#paint6_linear_1_66434)" stroke-width="18.5379"/>
<circle cx="475.531" cy="477.385" r="380.028" stroke="url(#paint7_linear_1_66434)" stroke-width="37.0759"/>
<circle cx="475.532" cy="476.458" r="362.417" stroke="#331C57" stroke-width="3.70759"/>
<circle cx="475.372" cy="476.3" r="364.271" fill="url(#paint8_radial_1_66434)"/>
<circle cx="475.372" cy="476.3" r="364.271" fill="url(#paint9_linear_1_66434)" fill-opacity="0.2"/>
<path d="M460.372 422.892C471.819 422.212 475.335 435.068 475.302 435.091C475.335 435.113 478.908 421.32 490.232 422.502C504.409 423.984 508.132 443.088 496.557 456.479C487.819 466.588 475.865 477.171 475.859 477.121C475.865 477.071 460.545 465.139 453.172 454.924C444.183 442.48 446.808 423.694 460.378 422.886L460.372 422.892Z" fill="url(#paint10_linear_1_66434)"/>
<path d="M460.372 422.892C471.819 422.212 475.335 435.068 475.302 435.091C475.335 435.113 478.908 421.32 490.232 422.502C504.409 423.984 508.132 443.088 496.557 456.479C487.819 466.588 475.865 477.171 475.859 477.121C475.865 477.071 460.545 465.139 453.172 454.924C444.183 442.48 446.808 423.694 460.378 422.886L460.372 422.892Z" fill="url(#paint11_linear_1_66434)"/>
<g filter="url(#filter2_d_1_66434)">
<path d="M475.832 129.64L501.325 61.1747C495.597 59.414 487.762 57.6532 478.363 57.3786C466.533 57.0334 456.845 59.1816 450.346 61.1747C458.846 83.994 467.339 106.813 475.839 129.64H475.832Z" fill="url(#paint12_linear_1_66434)"/>
<path d="M475.832 129.64L501.325 61.1747C495.597 59.414 487.762 57.6532 478.363 57.3786C466.533 57.0334 456.845 59.1816 450.346 61.1747C458.846 83.994 467.339 106.813 475.839 129.64H475.832Z" fill="url(#paint13_linear_1_66434)"/>
</g>
<path d="M460.323 167.047C460.323 165.028 460.691 163.27 461.428 161.773C462.188 160.3 463.209 159.172 464.492 158.388C465.775 157.604 467.224 157.212 468.84 157.212L468.84 162.842C467.747 162.842 466.856 163.21 466.167 163.947C465.502 164.683 465.169 165.717 465.169 167.047C465.169 167.926 465.336 168.675 465.668 169.292C466.001 169.91 466.452 170.385 467.023 170.718C467.616 171.05 468.282 171.217 469.018 171.217C470.159 171.217 471.097 170.848 471.833 170.112C472.57 169.399 472.938 168.378 472.938 167.047C472.938 166.335 472.831 165.705 472.617 165.159C472.404 164.636 472.142 164.184 471.833 163.804L476.288 161.167L481.42 169.043L482.025 168.722L482.025 158.281L487.015 158.281L487.015 175.814L481.598 175.814L475.825 166.727L476.609 163.876C476.751 164.351 476.858 164.85 476.929 165.372C477.024 165.919 477.072 166.501 477.072 167.119C477.072 169.138 476.739 170.872 476.074 172.321C475.409 173.771 474.471 174.887 473.259 175.671C472.071 176.479 470.681 176.883 469.089 176.883L468.662 176.883C467.07 176.883 465.645 176.479 464.385 175.671C463.126 174.887 462.128 173.759 461.392 172.286C460.679 170.837 460.323 169.09 460.323 167.047ZM460.323 192.129C460.323 190.063 460.656 188.293 461.321 186.82C462.01 185.347 462.936 184.147 464.1 183.22C465.264 182.318 466.607 181.64 468.127 181.189C469.672 180.761 471.299 180.548 473.009 180.548L475.041 180.548C477.416 180.548 479.567 180.963 481.491 181.795C483.415 182.626 484.948 183.897 486.088 185.608C487.228 187.319 487.799 189.492 487.799 192.129C487.799 194.767 487.228 196.928 486.088 198.615C484.948 200.326 483.415 201.597 481.491 202.428C479.567 203.26 477.416 203.676 475.041 203.676L473.009 203.676C471.299 203.676 469.672 203.45 468.127 202.999C466.607 202.571 465.264 201.894 464.1 200.967C462.936 200.064 462.01 198.877 461.321 197.404C460.656 195.954 460.323 194.196 460.323 192.129ZM465.704 192.129C465.704 194.054 466.369 195.479 467.7 196.406C469.054 197.356 471.144 197.831 473.972 197.831C476.965 197.831 479.115 197.344 480.422 196.37C481.752 195.42 482.417 194.006 482.417 192.129C482.417 190.205 481.752 188.768 480.422 187.817C479.115 186.867 476.989 186.392 474.043 186.392C471.192 186.392 469.089 186.855 467.735 187.782C466.381 188.732 465.704 190.181 465.704 192.129ZM460.323 219.309C460.323 217.242 460.656 215.472 461.321 213.999C462.01 212.526 462.936 211.327 464.1 210.4C465.264 209.497 466.607 208.82 468.127 208.369C469.672 207.941 471.299 207.727 473.009 207.727L475.041 207.727C477.416 207.727 479.567 208.143 481.491 208.975C483.415 209.806 484.948 211.077 486.088 212.788C487.228 214.498 487.799 216.672 487.799 219.309C487.799 221.946 487.228 224.108 486.088 225.795C484.948 227.505 483.415 228.777 481.491 229.608C479.567 230.44 477.416 230.855 475.041 230.855L473.009 230.855C471.299 230.855 469.672 230.63 468.127 230.178C466.607 229.751 465.264 229.073 464.1 228.147C462.936 227.244 462.01 226.056 461.321 224.583C460.656 223.134 460.323 221.376 460.323 219.309ZM465.704 219.309C465.704 221.233 466.369 222.659 467.7 223.585C469.054 224.536 471.144 225.011 473.972 225.011C476.965 225.011 479.115 224.524 480.422 223.55C481.752 222.6 482.417 221.186 482.417 219.309C482.417 217.385 481.752 215.947 480.422 214.997C479.115 214.047 476.989 213.572 474.043 213.572C471.192 213.572 469.089 214.035 467.735 214.961C466.381 215.912 465.704 217.361 465.704 219.309ZM460.857 244.564C460.857 242.236 461.19 240.3 461.855 238.756C462.544 237.211 463.506 236.047 464.742 235.263C466.001 234.479 467.474 234.087 469.161 234.087L469.161 239.326C468.496 239.326 467.866 239.504 467.272 239.86C466.702 240.217 466.239 240.787 465.882 241.571C465.55 242.355 465.383 243.353 465.383 244.564C465.383 246.18 465.668 247.415 466.239 248.271C466.809 249.15 467.569 249.589 468.519 249.589C469.351 249.589 470.028 249.221 470.551 248.484C471.097 247.748 471.453 246.572 471.62 244.956L471.762 243.139C472 240.597 472.76 238.578 474.043 237.081C475.35 235.584 477.191 234.836 479.567 234.836C481.206 234.836 482.572 235.204 483.665 235.94C484.781 236.677 485.613 237.734 486.159 239.112C486.729 240.49 487.015 242.141 487.015 244.066C487.015 246.132 486.694 247.867 486.052 249.268C485.411 250.67 484.484 251.727 483.273 252.44C482.061 253.177 480.588 253.545 478.854 253.545L478.854 248.306C479.543 248.306 480.149 248.14 480.671 247.807C481.218 247.499 481.657 247.035 481.99 246.418C482.322 245.8 482.489 245.016 482.489 244.066C482.489 243.234 482.37 242.521 482.132 241.927C481.895 241.333 481.55 240.882 481.099 240.573C480.671 240.264 480.16 240.11 479.567 240.11C478.83 240.11 478.165 240.383 477.571 240.93C477.001 241.476 476.644 242.379 476.502 243.638L476.359 245.455C476.122 248.306 475.35 250.587 474.043 252.298C472.736 254.008 470.895 254.863 468.519 254.863C466.88 254.863 465.49 254.459 464.35 253.652C463.209 252.844 462.342 251.668 461.748 250.124C461.154 248.603 460.857 246.75 460.857 244.564ZM456.403 242.034L461.606 242.034L461.606 246.703L456.403 246.703L456.403 242.034ZM485.268 241.892L490.471 241.892L490.471 246.56L485.268 246.56L485.268 241.892Z" fill="#34D097"/>
<path d="M339.175 192.051L359.515 183.241L359.026 185.161L356.378 179.046L361.021 177.035L365.355 187.041L341.483 197.381L339.175 192.051ZM347.529 213.043C346.708 211.147 346.31 209.39 346.335 207.774C346.381 206.149 346.755 204.68 347.455 203.367C348.164 202.076 349.127 200.921 350.343 199.902C351.59 198.896 352.998 198.053 354.568 197.373L356.432 196.566C358.612 195.622 360.75 195.149 362.846 195.147C364.943 195.145 366.854 195.702 368.58 196.819C370.306 197.935 371.694 199.703 372.742 202.123C373.79 204.543 374.126 206.754 373.75 208.755C373.383 210.778 372.482 212.553 371.047 214.081C369.612 215.609 367.804 216.845 365.624 217.789L363.76 218.596C362.19 219.276 360.607 219.716 359.011 219.915C357.446 220.127 355.945 220.039 354.508 219.652C353.081 219.286 351.759 218.564 350.541 217.487C349.355 216.421 348.351 214.94 347.529 213.043ZM352.467 210.905C353.232 212.671 354.409 213.714 355.998 214.036C357.618 214.369 359.726 213.975 362.32 212.851C365.067 211.661 366.846 210.36 367.658 208.947C368.501 207.546 368.55 205.984 367.804 204.262C367.039 202.496 365.857 201.442 364.259 201.098C362.682 200.746 360.542 201.155 357.839 202.326C355.223 203.459 353.478 204.719 352.603 206.108C351.738 207.518 351.693 209.117 352.467 210.905ZM358.058 236.006C357.132 233.869 356.668 231.96 356.664 230.279C356.683 228.588 357.103 227.138 357.925 225.927C358.769 224.707 359.965 223.762 361.513 223.092L363.595 227.899C362.984 228.163 362.477 228.577 362.074 229.14C361.693 229.694 361.494 230.401 361.479 231.262C361.485 232.114 361.729 233.095 362.211 234.207C362.853 235.69 363.605 236.71 364.468 237.268C365.341 237.848 366.213 237.949 367.085 237.572C367.848 237.241 368.323 236.634 368.51 235.75C368.719 234.857 368.578 233.637 368.089 232.088L367.497 230.364C366.705 227.937 366.6 225.782 367.182 223.898C367.787 222.005 369.179 220.587 371.359 219.643C372.863 218.991 374.263 218.786 375.558 219.028C376.876 219.26 378.059 219.899 379.108 220.947C380.179 221.984 381.097 223.386 381.862 225.152C382.683 227.049 383.078 228.768 383.047 230.309C383.015 231.85 382.585 233.188 381.756 234.324C380.937 235.481 379.732 236.405 378.141 237.094L376.059 232.287C376.691 232.013 377.181 231.62 377.528 231.107C377.907 230.606 378.126 230.006 378.186 229.307C378.245 228.608 378.086 227.823 377.709 226.951C377.378 226.188 376.986 225.581 376.532 225.13C376.078 224.68 375.582 224.402 375.045 224.298C374.53 224.185 374 224.246 373.455 224.482C372.779 224.775 372.277 225.29 371.95 226.028C371.643 226.756 371.675 227.726 372.045 228.938L372.636 230.662C373.552 233.373 373.749 235.772 373.23 237.861C372.711 239.95 371.362 241.467 369.181 242.411C367.677 243.063 366.241 243.245 364.874 242.957C363.506 242.669 362.243 241.934 361.085 240.753C359.935 239.594 358.926 238.012 358.058 236.006ZM352.964 235.455L357.739 233.387L359.594 237.67L354.82 239.738L352.964 235.455ZM379.395 223.851L384.17 221.783L386.025 226.067L381.251 228.135L379.395 223.851Z" fill="white"/>
<path d="M267.365 249.037C268.75 250.373 269.716 251.75 270.263 253.168C270.826 254.569 271.011 255.986 270.819 257.417C270.66 258.848 270.207 260.243 269.459 261.601C268.728 262.975 267.768 264.278 266.581 265.509L265.542 266.587C262.541 269.699 259.478 271.284 256.354 271.341C253.247 271.381 250.145 269.909 247.05 266.924C246.417 266.314 245.809 265.695 245.226 265.067C244.644 264.439 244.094 263.811 243.579 263.181L246.968 259.667C247.483 260.262 248.04 260.899 248.641 261.577C249.258 262.238 249.908 262.898 250.592 263.558C251.96 264.877 253.252 265.693 254.468 266.007C255.7 266.304 256.915 266.156 258.114 265.563C259.313 264.97 260.555 264.006 261.842 262.672L263.722 260.722L265.239 260.997C263.985 262.263 262.681 263.085 261.327 263.463C260.006 263.84 258.695 263.813 257.394 263.383C256.092 262.953 254.86 262.178 253.697 261.056C252.38 259.787 251.49 258.434 251.027 256.997C250.58 255.543 250.554 254.099 250.948 252.664C251.342 251.228 252.157 249.869 253.394 248.586C254.697 247.235 256.142 246.352 257.731 245.937C259.336 245.504 260.958 245.55 262.598 246.075C264.271 246.599 265.86 247.586 267.365 249.037ZM264.129 252.65C263.376 251.924 262.603 251.443 261.809 251.205C261.032 250.984 260.267 250.973 259.515 251.172C258.796 251.37 258.132 251.785 257.521 252.418C256.895 253.068 256.487 253.764 256.299 254.507C256.128 255.232 256.158 255.971 256.39 256.723C256.656 257.474 257.157 258.204 257.892 258.913C258.559 259.556 259.273 260.031 260.035 260.336C260.83 260.641 261.613 260.719 262.383 260.57C263.17 260.405 263.909 259.963 264.602 259.245C265.196 258.629 265.586 257.95 265.775 257.207C265.98 256.481 265.949 255.725 265.683 254.94C265.416 254.156 264.898 253.392 264.129 252.65ZM267.316 287.108C265.828 285.673 264.785 284.205 264.186 282.704C263.604 281.186 263.383 279.686 263.524 278.205C263.682 276.74 264.127 275.304 264.857 273.896C265.621 272.487 266.597 271.168 267.784 269.936L269.194 268.474C270.843 266.764 272.635 265.504 274.569 264.696C276.503 263.888 278.482 263.667 280.505 264.034C282.528 264.4 284.488 265.498 286.387 267.329C288.285 269.159 289.446 271.07 289.868 273.062C290.308 275.07 290.16 277.055 289.422 279.018C288.685 280.98 287.492 282.817 285.843 284.527L284.433 285.989C283.246 287.221 281.954 288.236 280.557 289.034C279.194 289.832 277.775 290.328 276.3 290.523C274.842 290.734 273.344 290.577 271.805 290.05C270.3 289.523 268.804 288.543 267.316 287.108ZM271.051 283.234C272.436 284.57 273.924 285.08 275.514 284.766C277.139 284.451 278.932 283.275 280.894 281.24C282.972 279.085 284.114 277.199 284.319 275.583C284.559 273.965 284.003 272.505 282.652 271.202C281.266 269.867 279.77 269.348 278.162 269.646C276.571 269.927 274.753 271.128 272.709 273.249C270.73 275.301 269.604 277.136 269.331 278.754C269.075 280.389 269.648 281.882 271.051 283.234ZM286.882 305.973C285.394 304.539 284.351 303.071 283.752 301.569C283.17 300.051 282.949 298.551 283.09 297.07C283.249 295.606 283.693 294.169 284.423 292.761C285.187 291.353 286.163 290.033 287.35 288.802L288.76 287.339C290.409 285.629 292.201 284.37 294.135 283.562C296.069 282.753 298.048 282.533 300.071 282.899C302.094 283.265 304.054 284.364 305.953 286.194C307.851 288.025 309.012 289.936 309.434 291.927C309.874 293.935 309.726 295.921 308.989 297.883C308.252 299.846 307.058 301.682 305.409 303.392L304 304.855C302.812 306.086 301.52 307.101 300.123 307.899C298.76 308.697 297.341 309.193 295.866 309.388C294.408 309.6 292.91 309.442 291.371 308.916C289.866 308.389 288.37 307.408 286.882 305.973ZM290.617 302.1C292.002 303.435 293.49 303.946 295.081 303.631C296.705 303.316 298.498 302.141 300.46 300.105C302.538 297.951 303.68 296.065 303.885 294.448C304.125 292.831 303.569 291.371 302.218 290.068C300.832 288.732 299.336 288.213 297.728 288.512C296.137 288.793 294.319 289.993 292.275 292.114C290.296 294.166 289.17 296.002 288.897 297.62C288.641 299.254 289.215 300.747 290.617 302.1ZM305.434 323.118C303.758 321.502 302.595 319.919 301.945 318.368C301.311 316.8 301.141 315.3 301.434 313.866C301.744 312.415 302.484 311.083 303.655 309.869L307.426 313.505C306.964 313.984 306.656 314.56 306.5 315.235C306.361 315.893 306.449 316.622 306.767 317.423C307.1 318.207 307.703 319.019 308.575 319.86C309.738 320.981 310.825 321.634 311.837 321.817C312.865 322.017 313.709 321.774 314.369 321.09C314.946 320.492 315.151 319.749 314.984 318.861C314.833 317.957 314.234 316.884 313.186 315.643L311.977 314.279C310.312 312.343 309.385 310.394 309.198 308.432C309.028 306.452 309.767 304.607 311.416 302.897C312.554 301.717 313.767 300.989 315.056 300.714C316.361 300.421 317.699 300.556 319.071 301.119C320.458 301.665 321.845 302.606 323.23 303.942C324.718 305.377 325.744 306.811 326.308 308.246C326.872 309.681 326.99 311.081 326.662 312.448C326.351 313.832 325.594 315.148 324.39 316.396L320.619 312.76C321.097 312.264 321.398 311.713 321.521 311.105C321.678 310.498 321.65 309.86 321.436 309.192C321.222 308.523 320.773 307.86 320.089 307.2C319.49 306.623 318.895 306.214 318.302 305.972C317.71 305.731 317.146 305.666 316.61 305.776C316.091 305.87 315.625 306.13 315.213 306.558C314.702 307.088 314.437 307.757 314.418 308.563C314.415 309.353 314.818 310.236 315.626 311.213L316.835 312.577C318.722 314.727 319.828 316.866 320.153 318.994C320.477 321.122 319.815 323.041 318.166 324.751C317.028 325.931 315.773 326.651 314.4 326.912C313.027 327.172 311.578 326.98 310.054 326.335C308.547 325.708 307.007 324.635 305.434 323.118ZM300.52 324.569L304.132 320.823L307.492 324.064L303.881 327.809L300.52 324.569ZM320.453 303.69L324.065 299.945L327.425 303.185L323.814 306.93L320.453 303.69Z" fill="#34D097"/>
<path d="M187.869 367.269C185.926 366.496 184.341 365.532 183.112 364.379C181.906 363.234 181.114 361.947 180.736 360.518C180.381 359.098 180.519 357.594 181.152 356.004C181.556 354.989 182.077 354.161 182.716 353.52C183.363 352.857 184.095 352.368 184.91 352.054C185.748 351.748 186.637 351.603 187.576 351.619L187.748 351.188C187.235 350.678 186.813 350.1 186.481 349.457C186.157 348.791 185.984 348.07 185.961 347.294C185.937 346.517 186.101 345.688 186.453 344.805C187.05 343.304 187.928 342.221 189.087 341.558C190.268 340.903 191.629 340.6 193.169 340.65C194.739 340.687 196.363 341.04 198.041 341.707C199.763 342.392 201.196 343.257 202.34 344.3C203.494 345.322 204.263 346.472 204.649 347.751C205.035 349.029 204.93 350.419 204.332 351.92C203.981 352.803 203.53 353.519 202.98 354.067C202.451 354.623 201.841 355.033 201.149 355.294C200.465 355.534 199.751 355.658 199.005 355.668L198.834 356.099C199.528 356.733 200.074 357.449 200.472 358.247C200.871 359.045 201.077 359.907 201.092 360.833C201.116 361.737 200.926 362.697 200.522 363.713C199.889 365.302 198.945 366.486 197.689 367.265C196.455 368.052 194.996 368.443 193.31 368.437C191.647 368.44 189.833 368.051 187.869 367.269ZM189.648 362.799C190.553 363.159 191.389 363.338 192.157 363.337C192.924 363.336 193.601 363.145 194.187 362.764C194.782 362.362 195.233 361.774 195.541 361.002C195.848 360.229 195.915 359.514 195.742 358.857C195.6 358.187 195.239 357.583 194.66 357.046C194.112 356.495 193.386 356.04 192.48 355.68C191.598 355.329 190.757 355.16 189.958 355.175C189.191 355.176 188.525 355.372 187.961 355.761C187.406 356.128 186.974 356.698 186.667 357.47C186.359 358.243 186.272 358.975 186.406 359.668C186.548 360.338 186.898 360.938 187.455 361.466C188.034 362.003 188.765 362.447 189.648 362.799ZM194.075 351.674C195.223 352.13 196.22 352.259 197.067 352.059C197.922 351.837 198.53 351.273 198.89 350.368C199.25 349.463 199.191 348.647 198.714 347.92C198.236 347.193 197.423 346.601 196.275 346.144C195.128 345.687 194.126 345.57 193.27 345.792C192.424 345.992 191.825 346.534 191.473 347.417C191.113 348.322 191.168 349.149 191.636 349.898C192.136 350.634 192.949 351.226 194.075 351.674ZM211.602 376.637C209.682 375.873 208.16 374.909 207.038 373.747C205.924 372.562 205.152 371.257 204.721 369.833C204.313 368.418 204.18 366.92 204.323 365.34C204.496 363.748 204.9 362.156 205.532 360.567L206.283 358.68C207.161 356.472 208.343 354.628 209.827 353.148C211.311 351.667 213.059 350.714 215.07 350.286C217.081 349.859 219.311 350.133 221.761 351.108C224.211 352.084 226.009 353.413 227.155 355.096C228.323 356.788 228.937 358.682 228.998 360.777C229.059 362.873 228.65 365.024 227.772 367.231L227.021 369.119C226.388 370.708 225.577 372.137 224.587 373.405C223.627 374.659 222.502 375.656 221.21 376.395C219.941 377.143 218.495 377.564 216.871 377.66C215.279 377.742 213.523 377.401 211.602 376.637ZM213.592 371.637C215.38 372.349 216.95 372.258 218.303 371.364C219.687 370.457 220.901 368.691 221.947 366.064C223.053 363.282 223.396 361.105 222.974 359.53C222.583 357.943 221.515 356.802 219.772 356.108C217.984 355.397 216.402 355.483 215.027 356.368C213.661 357.231 212.434 359.031 211.344 361.768C210.29 364.417 209.943 366.542 210.303 368.142C210.686 369.752 211.782 370.917 213.592 371.637ZM236.856 386.687C234.935 385.922 233.414 384.959 232.291 383.796C231.177 382.611 230.405 381.307 229.975 379.883C229.566 378.467 229.433 376.97 229.576 375.39C229.75 373.797 230.153 372.206 230.785 370.617L231.537 368.729C232.415 366.522 233.596 364.678 235.08 363.198C236.564 361.717 238.312 360.763 240.323 360.336C242.334 359.909 244.565 360.183 247.015 361.158C249.465 362.133 251.263 363.462 252.408 365.146C253.576 366.838 254.19 368.731 254.252 370.827C254.313 372.922 253.904 375.074 253.025 377.281L252.274 379.168C251.642 380.758 250.83 382.186 249.84 383.454C248.881 384.709 247.755 385.706 246.464 386.445C245.195 387.193 243.748 387.614 242.125 387.71C240.532 387.792 238.776 387.451 236.856 386.687ZM238.845 381.687C240.633 382.398 242.204 382.307 243.556 381.414C244.94 380.507 246.155 378.74 247.2 376.113C248.307 373.332 248.649 371.154 248.227 369.58C247.836 367.993 246.769 366.852 245.025 366.158C243.237 365.446 241.656 365.533 240.281 366.418C238.915 367.28 237.687 369.08 236.598 371.818C235.544 374.466 235.197 376.591 235.557 378.192C235.939 379.802 237.035 380.967 238.845 381.687ZM260.519 395.528C258.356 394.667 256.679 393.642 255.491 392.453C254.311 391.242 253.585 389.918 253.313 388.48C253.05 387.02 253.231 385.507 253.854 383.939L258.722 385.876C258.476 386.494 258.408 387.145 258.52 387.829C258.64 388.49 258.999 389.132 259.595 389.753C260.201 390.352 261.066 390.875 262.192 391.323C263.693 391.92 264.946 392.112 265.952 391.899C266.98 391.694 267.669 391.15 268.02 390.267C268.328 389.495 268.236 388.729 267.745 387.971C267.263 387.191 266.302 386.426 264.862 385.674L263.226 384.869C260.952 383.709 259.357 382.256 258.441 380.51C257.533 378.743 257.519 376.755 258.397 374.548C259.003 373.025 259.851 371.892 260.939 371.149C262.036 370.383 263.326 370.002 264.808 370.003C266.299 369.983 267.939 370.329 269.727 371.04C271.647 371.805 273.14 372.744 274.205 373.858C275.27 374.972 275.91 376.224 276.124 377.614C276.361 379.012 276.158 380.516 275.517 382.128L270.65 380.191C270.904 379.551 270.974 378.926 270.858 378.318C270.773 377.696 270.505 377.116 270.054 376.579C269.603 376.041 268.936 375.597 268.053 375.245C267.281 374.938 266.575 374.785 265.935 374.786C265.295 374.787 264.749 374.94 264.295 375.245C263.85 375.529 263.517 375.946 263.298 376.498C263.025 377.182 263.033 377.901 263.321 378.655C263.618 379.387 264.325 380.052 265.442 380.65L267.078 381.454C269.639 382.729 271.473 384.29 272.579 386.137C273.685 387.983 273.799 390.01 272.921 392.217C272.315 393.741 271.425 394.883 270.253 395.643C269.081 396.404 267.668 396.775 266.013 396.756C264.381 396.746 262.55 396.336 260.519 395.528ZM256.521 398.732L258.445 393.897L262.782 395.623L260.858 400.458L256.521 398.732ZM267.061 371.859L268.985 367.025L273.323 368.751L271.399 373.585L267.061 371.859Z" fill="white"/>
<path d="M580.752 185.829C581.504 184.007 582.498 182.566 583.732 181.508C584.978 180.481 586.41 179.877 588.027 179.696C589.635 179.538 591.383 179.848 593.271 180.628L594.49 181.132L592.286 186.468L590.771 185.842C589.717 185.407 588.734 185.36 587.821 185.703C586.921 186.077 586.245 186.813 585.791 187.911C585.347 188.987 585.316 189.964 585.699 190.841C586.095 191.75 586.819 192.422 587.873 192.858L599.929 197.836L597.698 203.238L585.939 198.382C584.051 197.602 582.597 196.578 581.579 195.309C580.552 194.062 579.963 192.624 579.814 190.994C579.677 189.396 579.99 187.674 580.752 185.829ZM603.215 188.012L607.925 189.958L601.749 204.911L597.039 202.966L603.215 188.012ZM576.94 196.833L597.706 214.701L594.101 223.429L566.656 221.734L568.968 216.134L592.039 217.874L590.64 219.301L592.395 215.052L592.352 217.116L574.709 202.234L576.94 196.833ZM580.412 205.322L584.212 208.819L580.321 218.24L575.148 218.069L580.412 205.322ZM560.603 234.617C561.501 232.443 562.645 230.73 564.035 229.48C565.448 228.238 566.973 227.377 568.61 226.897C570.27 226.426 571.913 226.243 573.54 226.35C575.18 226.487 576.681 226.837 578.042 227.399L578.767 227.698C580.26 228.315 581.631 229.164 582.881 230.246C584.153 231.336 585.177 232.621 585.955 234.099C586.724 235.598 587.146 237.251 587.223 239.056C587.313 240.893 586.927 242.854 586.066 244.94C585.168 247.114 583.968 248.867 582.467 250.201C580.965 251.534 579.285 252.396 577.428 252.785C575.584 253.206 573.659 253.105 571.654 252.482L573.898 247.048C574.928 247.293 575.897 247.282 576.804 247.014C577.712 246.746 578.533 246.25 579.269 245.526C579.996 244.824 580.582 243.935 581.026 242.859C581.471 241.783 581.679 240.75 581.65 239.762C581.621 238.773 581.384 237.853 580.939 237.001C580.485 236.171 579.85 235.407 579.033 234.71C578.228 234.043 577.255 233.474 576.113 233.003C574.993 232.54 573.902 232.257 572.84 232.152C571.791 232.079 570.797 232.182 569.859 232.463C568.933 232.775 568.107 233.282 567.38 233.984C566.675 234.695 566.096 235.6 565.642 236.698C564.953 238.367 564.779 239.94 565.12 241.417C565.452 242.917 566.281 244.082 567.609 244.913L565.378 250.315C563.703 249.391 562.334 248.132 561.271 246.536C560.22 244.972 559.605 243.162 559.425 241.109C559.258 239.086 559.65 236.922 560.603 234.617ZM548.376 265.995L563.036 262.333L564.41 259.007L573.06 274.377L570.503 280.569L562.748 266.764L565.114 267.664L545.683 272.517L548.376 265.995ZM554.906 250.185L578.95 260.115L576.719 265.517L552.675 255.587L554.906 250.185ZM549.602 282.539L554.279 284.47L552.497 288.785C552.152 289.62 552.022 290.401 552.107 291.13C552.182 291.881 552.449 292.544 552.905 293.118C553.384 293.701 554.019 294.156 554.809 294.482C555.644 294.827 556.425 294.957 557.154 294.873C557.905 294.797 558.561 294.515 559.123 294.028C559.697 293.571 560.156 292.925 560.501 292.091L562.283 287.776L566.96 289.707L565.287 293.759C564.444 295.801 563.382 297.406 562.103 298.574C560.815 299.764 559.386 300.485 557.817 300.737C556.239 301.01 554.571 300.784 552.815 300.059L552.288 299.841C550.575 299.134 549.245 298.122 548.298 296.806C547.364 295.52 546.86 294.001 546.787 292.249C546.705 290.518 547.085 288.632 547.929 286.59L549.602 282.539ZM544.677 274.952L568.919 284.964L566.688 290.366L542.446 280.354L544.677 274.952ZM530.217 308.192C531.114 306.018 532.272 304.272 533.69 302.956C535.12 301.67 536.668 300.754 538.333 300.208C540.02 299.671 541.697 299.438 543.364 299.51C545.022 299.603 546.52 299.927 547.86 300.48L548.585 300.779C550.078 301.396 551.44 302.267 552.672 303.393C553.916 304.549 554.909 305.91 555.651 307.476C556.392 309.042 556.783 310.771 556.824 312.664C556.886 314.566 556.482 316.572 555.612 318.68C554.741 320.788 553.612 322.494 552.226 323.797C550.861 325.11 549.364 326.06 547.734 326.646C546.103 327.232 544.439 327.496 542.741 327.437C541.065 327.388 539.481 327.054 537.988 326.438L537.263 326.139C535.924 325.585 534.638 324.746 533.406 323.62C532.175 322.495 531.151 321.147 530.334 319.576C529.54 318.014 529.094 316.262 528.997 314.319C528.912 312.408 529.319 310.365 530.217 308.192ZM535.256 310.273C534.785 311.415 534.56 312.517 534.584 313.581C534.598 314.666 534.825 315.673 535.265 316.6C535.696 317.549 536.304 318.378 537.09 319.089C537.876 319.799 538.797 320.372 539.851 320.807C540.97 321.269 542.064 321.515 543.131 321.545C544.212 321.606 545.228 321.447 546.181 321.069C547.147 320.723 548.002 320.176 548.747 319.43C549.492 318.684 550.101 317.74 550.572 316.598C551.044 315.457 551.279 314.358 551.277 313.304C551.276 312.249 551.06 311.248 550.629 310.299C550.212 309.381 549.599 308.562 548.79 307.843C548.004 307.133 547.051 306.546 545.931 306.084C544.877 305.648 543.821 305.405 542.763 305.353C541.704 305.302 540.692 305.449 539.727 305.796C538.752 306.165 537.881 306.717 537.114 307.455C536.347 308.192 535.728 309.131 535.256 310.273ZM522.153 329.489L542.147 337.746L539.916 343.148L519.922 334.891L522.153 329.489ZM544.277 330.722L548.987 332.667L541.165 351.606L536.455 349.661L544.277 330.722Z" fill="white"/>
<path d="M686.939 247.925L702.192 264.009L700.22 264.208L705.056 259.623L708.538 263.294L700.626 270.798L682.724 251.923L686.939 247.925ZM670.086 262.975C671.586 261.553 673.099 260.576 674.626 260.045C676.169 259.531 677.677 259.378 679.15 259.585C680.606 259.809 682.021 260.317 683.395 261.109C684.768 261.935 686.043 262.969 687.22 264.21L688.618 265.684C690.253 267.408 691.43 269.254 692.151 271.223C692.872 273.191 693.004 275.178 692.548 277.182C692.092 279.187 690.907 281.096 688.993 282.911C687.08 284.725 685.119 285.799 683.11 286.133C681.084 286.482 679.108 286.245 677.18 285.421C675.252 284.597 673.471 283.323 671.836 281.599L670.439 280.125C669.261 278.884 668.305 277.548 667.57 276.117C666.834 274.72 666.402 273.28 666.273 271.797C666.127 270.331 666.351 268.842 666.946 267.328C667.54 265.848 668.587 264.397 670.086 262.975ZM673.789 266.879C672.393 268.204 671.816 269.667 672.06 271.27C672.302 272.907 673.396 274.75 675.341 276.802C677.401 278.974 679.234 280.199 680.84 280.477C682.445 280.788 683.928 280.298 685.29 279.006C686.687 277.682 687.272 276.21 687.046 274.591C686.836 272.989 685.718 271.119 683.69 268.982C681.729 266.913 679.946 265.706 678.342 265.361C676.72 265.033 675.203 265.539 673.789 266.879ZM650.365 281.678C651.865 280.256 653.378 279.279 654.904 278.748C656.447 278.235 657.955 278.081 659.429 278.288C660.885 278.512 662.3 279.02 663.674 279.812C665.047 280.639 666.322 281.672 667.499 282.913L668.897 284.387C670.531 286.111 671.709 287.957 672.43 289.926C673.151 291.894 673.283 293.881 672.827 295.885C672.37 297.89 671.185 299.799 669.272 301.614C667.359 303.429 665.398 304.503 663.389 304.836C661.363 305.186 659.386 304.948 657.459 304.124C655.531 303.3 653.75 302.026 652.115 300.302L650.717 298.829C649.54 297.587 648.584 296.251 647.849 294.82C647.113 293.423 646.681 291.983 646.552 290.501C646.406 289.035 646.63 287.545 647.225 286.031C647.819 284.552 648.865 283.1 650.365 281.678ZM654.068 285.583C652.672 286.907 652.095 288.37 652.338 289.973C652.581 291.61 653.675 293.454 655.62 295.505C657.68 297.677 659.513 298.902 661.119 299.18C662.724 299.491 664.207 299.001 665.569 297.71C666.965 296.385 667.551 294.914 667.325 293.294C667.115 291.692 665.997 289.823 663.969 287.685C662.008 285.616 660.225 284.41 658.62 284.065C656.999 283.736 655.482 284.242 654.068 285.583ZM632.408 299.445C634.097 297.843 635.731 296.752 637.309 296.172C638.904 295.609 640.411 295.506 641.83 295.863C643.265 296.237 644.563 297.036 645.724 298.26L641.923 301.865C641.465 301.382 640.903 301.048 640.235 300.862C639.584 300.694 638.852 300.75 638.038 301.031C637.24 301.329 636.402 301.895 635.522 302.729C634.35 303.841 633.65 304.898 633.422 305.9C633.176 306.918 633.381 307.772 634.035 308.462C634.607 309.065 635.34 309.303 636.234 309.176C637.144 309.065 638.243 308.515 639.529 307.524L640.946 306.376C642.954 304.8 644.943 303.962 646.911 303.862C648.897 303.781 650.707 304.602 652.341 306.325C653.469 307.515 654.142 308.759 654.36 310.059C654.594 311.376 654.399 312.707 653.775 314.052C653.168 315.414 652.166 316.757 650.77 318.081C649.27 319.503 647.791 320.464 646.332 320.963C644.874 321.462 643.469 321.517 642.118 321.129C640.75 320.756 639.469 319.941 638.276 318.683L642.077 315.078C642.551 315.578 643.089 315.903 643.69 316.053C644.29 316.237 644.928 316.237 645.605 316.054C646.282 315.87 646.966 315.451 647.655 314.797C648.259 314.225 648.694 313.648 648.961 313.067C649.229 312.486 649.319 311.925 649.233 311.385C649.163 310.863 648.923 310.386 648.515 309.955C648.008 309.42 647.352 309.126 646.547 309.071C645.758 309.033 644.857 309.396 643.846 310.159L642.429 311.306C640.197 313.095 638.011 314.105 635.87 314.334C633.73 314.563 631.843 313.815 630.208 312.091C629.08 310.902 628.416 309.616 628.218 308.232C628.019 306.849 628.276 305.411 628.987 303.917C629.682 302.44 630.822 300.949 632.408 299.445ZM631.179 294.472L634.759 298.247L631.372 301.459L627.791 297.684L631.179 294.472ZM651.145 315.318L654.726 319.093L651.338 322.306L647.758 318.53L651.145 315.318Z" fill="#34D097"/>
<path d="M760.483 342.134L762.134 346.194L755.875 366.745L755.507 366.125L757.127 367.082L756.173 366.816L768.056 361.982L769.856 366.405L751.337 373.938L749.686 369.878L755.978 349.313L756.406 349.986L754.679 348.957L755.726 349.262L743.348 354.297L741.535 349.841L760.483 342.134ZM737.658 351.418L747.46 375.515L742.178 377.664L732.376 353.567L737.658 351.418ZM733.036 353.298L734.862 357.787L724.332 362.071L722.506 357.581L733.036 353.298ZM737.105 363.3L738.931 367.789L729.16 371.764L727.334 367.275L737.105 363.3ZM741.012 372.906L742.838 377.395L732.539 381.585L730.713 377.095L741.012 372.906ZM718.058 359.391L727.941 383.686L722.527 385.888L712.644 361.593L718.058 359.391ZM703.435 365.339L714.715 372.831L708.773 375.248L697.163 367.89L703.435 365.339ZM717.239 368.726L718.971 372.985L713.029 375.402C712.237 375.724 711.617 376.155 711.171 376.696C710.711 377.268 710.443 377.903 710.368 378.6C710.279 379.329 710.392 380.078 710.705 380.848C711.018 381.618 711.456 382.222 712.019 382.66C712.569 383.129 713.204 383.397 713.923 383.463C714.63 383.561 715.379 383.448 716.171 383.126L722.113 380.709L723.979 385.297L718.467 387.54C716.464 388.354 714.6 388.753 712.875 388.737C711.159 388.743 709.663 388.312 708.388 387.446C707.112 386.58 706.107 385.245 705.373 383.44L705.158 382.912C704.433 381.13 704.236 379.479 704.567 377.959C704.885 376.47 705.66 375.129 706.893 373.935C708.112 372.772 709.724 371.783 711.726 370.969L717.239 368.726ZM682.427 373.154C684.606 372.267 686.661 371.867 688.594 371.953C690.514 372.07 692.253 372.529 693.81 373.332C695.377 374.157 696.72 375.188 697.839 376.426C698.935 377.672 699.757 378.967 700.303 380.309L700.598 381.035C701.207 382.532 701.543 384.113 701.605 385.781C701.655 387.479 701.382 389.142 700.787 390.769C700.193 392.396 699.235 393.888 697.915 395.246C696.604 396.625 694.892 397.745 692.779 398.604C690.667 399.463 688.66 399.857 686.758 399.784C684.865 399.733 683.137 399.333 681.576 398.583C680.014 397.834 678.658 396.833 677.508 395.583C676.367 394.354 675.492 392.992 674.884 391.495L674.588 390.769C674.042 389.427 673.738 387.922 673.675 386.254C673.613 384.587 673.854 382.911 674.4 381.227C674.955 379.565 675.891 378.018 677.206 376.585C678.508 375.184 680.248 374.04 682.427 373.154ZM684.481 378.204C683.337 378.67 682.394 379.284 681.653 380.047C680.89 380.819 680.332 381.687 679.981 382.651C679.607 383.624 679.443 384.639 679.489 385.698C679.535 386.756 679.773 387.814 680.202 388.87C680.659 389.992 681.251 390.944 681.979 391.725C682.694 392.537 683.521 393.15 684.458 393.564C685.383 394.008 686.372 394.234 687.427 394.241C688.481 394.248 689.581 394.019 690.725 393.554C691.869 393.088 692.817 392.485 693.567 391.744C694.317 391.003 694.879 390.146 695.252 389.173C695.613 388.231 695.766 387.22 695.711 386.139C695.665 385.081 695.414 383.99 694.958 382.868C694.528 381.812 693.96 380.889 693.254 380.099C692.548 379.309 691.733 378.691 690.808 378.247C689.861 377.811 688.856 377.579 687.793 377.549C686.729 377.52 685.626 377.739 684.481 378.204Z" fill="white"/>
<defs>
<filter id="filter2_d_1_66434" x="450.16" y="49.7412" width="60.6182" height="81.9376" filterUnits="userSpaceOnUse" color-interpolation-filters="sRGB">
<feFlood flood-opacity="0" result="BackgroundImageFix"/>
<feColorMatrix in="SourceAlpha" type="matrix" values="0 0 0 0 0 0 0 0 0 0 0 0 0 0 0 0 0 0 127 0" result="hardAlpha"/>
<feOffset dx="4.63448" dy="-2.78069"/>
<feGaussianBlur stdDeviation="2.40993"/>
<feComposite in2="hardAlpha" operator="out"/>
<feColorMatrix type="matrix" values="0 0 0 0 0 0 0 0 0 0 0 0 0 0 0 0 0 0 0.25 0"/>
<feBlend mode="normal" in2="BackgroundImageFix" result="effect1_dropShadow_1_66434"/>
<feBlend mode="normal" in="SourceGraphic" in2="effect1_dropShadow_1_66434" result="shape"/>
</filter>
<linearGradient id="paint0_linear_1_66434" x1="778.933" y1="675.597" x2="475.228" y2="475.208" gradientUnits="userSpaceOnUse">
<stop stop-color="#1F976B"/>
<stop offset="0.298397" stop-color="#34D399"/>
</linearGradient>
<linearGradient id="paint1_linear_1_66434" x1="676.409" y1="174.137" x2="475.228" y2="475.208" gradientUnits="userSpaceOnUse">
<stop stop-color="#1F976B"/>
<stop offset="0.299779" stop-color="#34D399"/>
</linearGradient>
<linearGradient id="paint2_linear_1_66434" x1="118.158" y1="399.345" x2="475.228" y2="475.208" gradientUnits="userSpaceOnUse">
<stop stop-color="#1F976B"/>
<stop offset="0.300602" stop-color="#34D399"/>
</linearGradient>
<linearGradient id="paint3_linear_1_66434" x1="828.606" y1="405.408" x2="475.216" y2="475.213" gradientUnits="userSpaceOnUse">
<stop stop-color="#3A2956"/>
<stop offset="0.301867" stop-color="#501F9E"/>
</linearGradient>
<linearGradient id="paint4_linear_1_66434" x1="841.11" y1="546.038" x2="475.215" y2="475.214" gradientUnits="userSpaceOnUse">
<stop stop-color="#1F976B"/>
<stop offset="0.302195" stop-color="#34D399"/>
</linearGradient>
<linearGradient id="paint5_linear_1_66434" x1="404.583" y1="120.068" x2="475.215" y2="475.214" gradientUnits="userSpaceOnUse">
<stop stop-color="#1F976B"/>
<stop offset="0.296935" stop-color="#34D399"/>
</linearGradient>
<linearGradient id="paint6_linear_1_66434" x1="148.179" y1="135.36" x2="784.03" y2="826.826" gradientUnits="userSpaceOnUse">
<stop stop-color="#B38626"/>
<stop offset="0.574644" stop-color="#F4E98F"/>
<stop offset="0.982562" stop-color="#A7791C"/>
</linearGradient>
<linearGradient id="paint7_linear_1_66434" x1="162.878" y1="150.561" x2="770.469" y2="811.295" gradientUnits="userSpaceOnUse">
<stop stop-color="#3E2764"/>
<stop offset="0.574644" stop-color="#501F9E"/>
<stop offset="0.982562" stop-color="#42266F"/>
</linearGradient>
<radialGradient id="paint8_radial_1_66434" cx="0" cy="0" r="1" gradientUnits="userSpaceOnUse" gradientTransform="translate(475.372 476.3) rotate(90.0564) scale(377.701)">
<stop offset="0.480769" stop-color="#D9D9D9" stop-opacity="0"/>
<stop offset="0.975962" stop-color="#020202" stop-opacity="0.16"/>
<stop offset="1" stop-color="#D9D9D9" stop-opacity="0.08"/>
</radialGradient>
<linearGradient id="paint9_linear_1_66434" x1="475.372" y1="476.3" x2="737.684" y2="84.2224" gradientUnits="userSpaceOnUse">
<stop stop-opacity="0"/>
<stop offset="0.621648"/>
</linearGradient>
<linearGradient id="paint10_linear_1_66434" x1="476.253" y1="478.446" x2="475.433" y2="420.43" gradientUnits="userSpaceOnUse">
<stop stop-color="#B38626"/>
<stop offset="1" stop-color="#FCEE96"/>
</linearGradient>
<linearGradient id="paint11_linear_1_66434" x1="476.253" y1="478.446" x2="475.433" y2="420.43" gradientUnits="userSpaceOnUse">
<stop stop-color="#B38626"/>
<stop offset="1" stop-color="#FCEE96"/>
</linearGradient>
<linearGradient id="paint12_linear_1_66434" x1="475.832" y1="129.64" x2="475.832" y2="57.3433" gradientUnits="userSpaceOnUse">
<stop stop-color="#FBE272"/>
<stop offset="0.02" stop-color="#FAE275"/>
<stop offset="0.04" stop-color="#FAE67F"/>
<stop offset="0.06" stop-color="#FAEB90"/>
<stop offset="0.08" stop-color="#F9F2A7"/>
<stop offset="0.1" stop-color="#F8FFD0"/>
<stop offset="0.16" stop-color="#F8FECC"/>
<stop offset="0.2" stop-color="#F9FEC2"/>
<stop offset="0.24" stop-color="#FCFEB1"/>
<stop offset="0.25" stop-color="#FDFEAD"/>
<stop offset="0.26" stop-color="#FDFBA5"/>
<stop offset="0.29" stop-color="#FDF491"/>
<stop offset="0.32" stop-color="#FDEE82"/>
<stop offset="0.36" stop-color="#FDEB7A"/>
<stop offset="0.42" stop-color="#FDEB78"/>
<stop offset="0.45" stop-color="#FAE674"/>
<stop offset="0.49" stop-color="#F4DA68"/>
<stop offset="0.53" stop-color="#E9C554"/>
<stop offset="0.56" stop-color="#DAA838"/>
<stop offset="0.57" stop-color="#D8A535"/>
<stop offset="0.59" stop-color="#BB8C27"/>
<stop offset="0.62" stop-color="#9E741A"/>
<stop offset="0.65" stop-color="#896210"/>
<stop offset="0.67" stop-color="#7D580A"/>
<stop offset="0.7" stop-color="#795509"/>
<stop offset="0.76" stop-color="#7D5709"/>
<stop offset="0.82" stop-color="#895F0C"/>
<stop offset="0.88" stop-color="#9E6C0F"/>
<stop offset="0.89" stop-color="#A57111"/>
<stop offset="0.9" stop-color="#AF7F22"/>
<stop offset="0.94" stop-color="#D1AD58"/>
<stop offset="0.96" stop-color="#EACE80"/>
<stop offset="0.99" stop-color="#F9E399"/>
<stop offset="1" stop-color="#FFEBA2"/>
</linearGradient>
<linearGradient id="paint13_linear_1_66434" x1="455.84" y1="63.8486" x2="509.247" y2="104.801" gradientUnits="userSpaceOnUse">
<stop stop-color="#B38626"/>
<stop offset="0.574644" stop-color="#F4E98F"/>
<stop offset="0.982562" stop-color="#A7791C"/>
</linearGradient>
</defs>
</svg>
