<svg width="201" height="205" viewBox="0 0 201 205" fill="none" xmlns="http://www.w3.org/2000/svg">
<path d="M199.122 181.792C189.624 196.181 175.738 208.98 161.397 217.353L95.8965 114.113L199.122 181.792Z" fill="url(#paint0_linear_1_65752)"/>
<path d="M42.4483 201.532C33.7001 192.626 26.7234 182.134 21.752 170.688L95.8947 114.113L42.4483 201.532Z" fill="#501F9E"/>
<path d="M28.3535 69.0677C34.1731 59.038 41.4927 49.9365 50.0185 42.1953L95.8965 114.117L28.3535 69.0677Z" fill="#501F9E"/>
<path d="M152.66 21.2773C165.531 26.2114 177.389 33.9826 187.366 44.3243L95.8965 114.119L152.66 21.2773Z" fill="#501F9E"/>
<path d="M199.015 182.669C208.611 168.137 213.145 150.719 215.448 133.437L91.6621 112.75L199.019 182.669H199.015Z" fill="url(#paint1_linear_1_65752)"/>
<path d="M152.66 21.2775C140.467 16.6027 127.599 14.5697 114.799 15.0808L95.8965 114.115L152.66 21.2775Z" fill="url(#paint2_linear_1_65752)"/>
<path d="M28.3618 69.0703C22.5838 79.0324 18.2982 89.8888 15.7051 101.159L95.9048 114.119L28.3618 69.0703Z" fill="url(#paint3_linear_1_65752)"/>
<path d="M42.4473 201.532C51.6553 210.904 62.6913 218.386 75.0428 223.366L95.8937 114.117L42.4473 201.536V201.532Z" fill="url(#paint4_linear_1_65752)"/>
<path d="M210.949 83.7305C216.117 99.4496 217.704 116.424 215.439 133.432L95.8965 114.113L210.949 83.7305Z" fill="url(#paint5_linear_1_65752)"/>
<path d="M116.845 230.024C102.311 230.971 88.0938 228.623 75.0488 223.366L95.8997 114.117L116.845 230.024Z" fill="url(#paint6_linear_1_65752)"/>
<path d="M13.1312 135.973C12.1927 124.327 13.0784 112.543 15.7017 101.156L95.9015 114.117L13.135 135.973H13.1312Z" fill="#501F9E"/>
<path d="M79.4629 23.1688C90.6459 18.3587 102.617 15.5666 114.799 15.0781L95.8963 114.113L79.4629 23.1688Z" fill="#501F9E"/>
<path d="M210.953 83.7328C205.978 68.6 197.867 55.2032 187.366 44.3242L95.8965 114.119L210.949 83.7366L210.953 83.7328Z" fill="url(#paint7_linear_1_65752)"/>
<path d="M79.4621 23.1717C68.7012 27.8014 58.7431 34.2687 50.0176 42.194L95.8955 114.116L79.4621 23.168V23.1717Z" fill="url(#paint8_linear_1_65752)"/>
<path d="M13.1309 135.973C14.0958 147.942 16.9829 159.711 21.7547 170.692L95.8974 114.117L13.1309 135.973Z" fill="url(#paint9_linear_1_65752)"/>
<path d="M115.666 230.882C130.927 229.887 148.084 225.264 161.958 217.166L95.0371 110.391L115.666 230.882Z" fill="url(#paint10_linear_1_65752)"/>
<path d="M96.6692 6.95187C158.803 -8.70334 224.665 29.4013 232.995 106.099C241.992 190.177 172.312 260.926 95.0409 245.82C35.138 234.11 -0.254226 176.228 4.4082 119.349C8.6711 67.3331 46.2532 19.6497 96.6692 6.95187Z" stroke="url(#paint11_linear_1_65752)" stroke-width="6.96706"/>
<path d="M96.662 13.6798C154.499 -0.164175 216.539 37.6774 223.524 108.314C230.425 188.243 165.882 248.519 95.1543 235.998C39.258 226.104 5.51667 172.562 9.67026 119.088C13.4846 69.9273 49.1143 25.0585 96.662 13.6798Z" stroke="url(#paint12_linear_1_65752)" stroke-width="13.9341"/>
<path d="M97.2745 20.8991C152.376 8.12988 210.047 41.5146 216.255 108.348C223.232 183.509 161.881 240.516 95.2014 229.52C44.3068 220.832 12.7704 170.608 14.9866 118.562C21.5939 71.7015 51.1214 31.7442 97.2782 20.8991H97.2745Z" stroke="#331C57" stroke-width="1.39416"/>
<path d="M99.7993 20.0764C155.58 8.80679 209.207 40.7895 217.754 107.733C223.118 182.291 162.431 239.893 95.7087 229.821C43.2523 217.982 15.0033 174.222 15.7021 121.669C19.279 74.0977 53.832 30.7662 99.7993 20.0764Z" fill="url(#paint13_radial_1_65752)"/>
<path d="M97.977 20.3598C158.288 7.63745 211.52 44.1979 217.771 111.612C222.942 186.956 162.645 241.344 95.8608 230.177C50.2949 223.416 11.4282 173.695 15.2817 122.05C20.5967 70.9223 51.8221 31.4525 97.977 20.3598Z" fill="url(#paint14_radial_1_65752)"/>
<path d="M91.7351 130.828C94.8446 130.967 95.8321 127.13 95.8246 127.123C95.8321 127.115 96.7895 131.192 99.9254 130.775C103.906 130.245 104.957 124.47 101.716 120.595C99.3073 117.717 96.062 114.782 96.0583 114.797C96.0583 114.812 91.9047 118.465 89.9033 121.505C87.4722 125.199 88.0941 130.663 91.7351 130.828Z" fill="url(#paint15_linear_1_65752)"/>
<g style="mix-blend-mode:multiply" opacity="0.3">
<path d="M95.5291 121.075C95.5932 117.971 95.8344 115.461 96.0719 115.453C96.3093 115.446 96.4525 117.945 96.3922 121.056C96.3319 124.179 96.0869 126.727 95.8495 126.727C95.612 126.727 95.4688 124.194 95.5329 121.075H95.5291Z" fill="#A7781B"/>
</g>
<path d="M81.871 119.848C81.7541 116.605 85.0973 115.444 85.1011 115.455C85.1086 115.444 81.5619 114.617 81.9237 111.412C82.376 107.421 87.3174 106.049 90.7887 109.097C93.4535 111.434 96.2766 114.733 96.2615 114.733C96.2465 114.733 92.9899 119.329 90.2347 121.58C86.9028 124.305 82.0066 123.715 81.8672 119.844L81.871 119.848Z" fill="url(#paint16_linear_1_65752)"/>
<g style="mix-blend-mode:multiply" opacity="0.3">
<path d="M90.4957 115.547C93.3301 115.363 95.6481 115.009 95.6443 114.754C95.6406 114.498 93.3225 114.449 90.4919 114.637C87.6914 114.821 85.4375 115.175 85.4375 115.423C85.4375 115.671 87.6877 115.727 90.4919 115.547H90.4957Z" fill="#A7781B"/>
</g>
<path d="M111.285 118.615C111.459 115.177 107.791 114.309 107.784 114.32C107.776 114.309 111.704 113.046 111.346 109.702C110.901 105.545 105.518 104.816 101.81 108.416C99.028 111.114 96.1295 114.737 96.1446 114.741C96.1597 114.741 99.3936 119.062 102.22 121.129C105.714 123.684 111.082 122.715 111.289 118.615H111.285Z" fill="url(#paint17_linear_1_65752)"/>
<g style="mix-blend-mode:multiply" opacity="0.3">
<path d="M102.017 114.978C99.0888 115.079 96.7444 114.952 96.752 114.7C96.7595 114.448 99.1077 114.155 102.033 114.05C104.988 113.945 107.407 114.065 107.404 114.324C107.4 114.583 104.976 114.876 102.017 114.978Z" fill="#A7781B"/>
</g>
<path d="M92.061 99.4563C95.0952 99.0242 96.0073 102.59 95.9998 102.598C96.0073 102.602 96.9911 98.6184 100.048 98.7085C103.923 98.825 104.955 104.259 101.751 108.351C99.343 111.429 96.0714 114.672 96.0714 114.657C96.0714 114.642 91.9894 111.425 90.0672 108.629C87.7567 105.27 88.5105 99.9599 92.0648 99.4526L92.061 99.4563Z" fill="url(#paint18_linear_1_65752)"/>
<g style="mix-blend-mode:multiply" opacity="0.3">
<path d="M95.6107 108.497C95.6296 111.548 95.8369 114.021 96.0744 114.006C96.3118 113.987 96.4852 111.488 96.4663 108.433C96.4437 105.393 96.2364 102.958 96.0027 102.977C95.7691 102.999 95.5919 105.461 95.6107 108.497Z" fill="#A7781B"/>
</g>
<path d="M95.5687 115.839C96.0926 116.143 96.7711 115.914 97.0801 115.335C97.393 114.753 97.2121 114.042 96.6881 113.742C96.1642 113.441 95.4896 113.67 95.1805 114.249C94.8714 114.828 95.0448 115.538 95.5687 115.842V115.839Z" fill="url(#paint19_linear_1_65752)"/>
<path d="M91.7351 130.828C94.8446 130.967 95.8321 127.13 95.8246 127.123C95.8321 127.115 96.7895 131.192 99.9254 130.775C103.906 130.245 104.957 124.47 101.716 120.595C99.3073 117.717 96.062 114.782 96.0583 114.797C96.0583 114.812 91.9047 118.465 89.9033 121.505C87.4722 125.199 88.0941 130.663 91.7351 130.828Z" fill="url(#paint20_linear_1_65752)"/>
<g style="mix-blend-mode:multiply" opacity="0.3">
<path d="M95.5291 121.075C95.5932 117.971 95.8344 115.461 96.0719 115.453C96.3093 115.446 96.4525 117.945 96.3922 121.056C96.3319 124.179 96.0869 126.727 95.8495 126.727C95.612 126.727 95.4688 124.194 95.5329 121.075H95.5291Z" fill="#A7781B"/>
</g>
<path d="M81.871 119.848C81.7541 116.605 85.0973 115.444 85.1011 115.455C85.1086 115.444 81.5619 114.617 81.9237 111.412C82.376 107.421 87.3174 106.049 90.7887 109.097C93.4535 111.434 96.2766 114.733 96.2615 114.733C96.2465 114.733 92.9899 119.329 90.2347 121.58C86.9028 124.305 82.0066 123.715 81.8672 119.844L81.871 119.848Z" fill="url(#paint21_linear_1_65752)"/>
<g style="mix-blend-mode:multiply" opacity="0.3">
<path d="M90.4957 115.547C93.3301 115.363 95.6481 115.009 95.6443 114.754C95.6406 114.498 93.3225 114.449 90.4919 114.637C87.6914 114.821 85.4375 115.175 85.4375 115.423C85.4375 115.671 87.6877 115.727 90.4919 115.547H90.4957Z" fill="#A7781B"/>
</g>
<path d="M111.285 118.615C111.459 115.177 107.791 114.309 107.784 114.32C107.776 114.309 111.704 113.046 111.346 109.702C110.901 105.545 105.518 104.816 101.81 108.416C99.028 111.114 96.1295 114.737 96.1446 114.741C96.1597 114.741 99.3936 119.062 102.22 121.129C105.714 123.684 111.082 122.715 111.289 118.615H111.285Z" fill="url(#paint22_linear_1_65752)"/>
<g style="mix-blend-mode:multiply" opacity="0.3">
<path d="M102.017 114.978C99.0888 115.079 96.7444 114.952 96.752 114.7C96.7595 114.448 99.1077 114.155 102.033 114.05C104.988 113.945 107.407 114.065 107.404 114.324C107.4 114.583 104.976 114.876 102.017 114.978Z" fill="#A7781B"/>
</g>
<path d="M92.061 99.4563C95.0952 99.0242 96.0073 102.59 95.9998 102.598C96.0073 102.602 96.9911 98.6184 100.048 98.7085C103.923 98.825 104.955 104.259 101.751 108.351C99.343 111.429 96.0714 114.672 96.0714 114.657C96.0714 114.642 91.9894 111.425 90.0672 108.629C87.7567 105.27 88.5105 99.9599 92.0648 99.4526L92.061 99.4563Z" fill="url(#paint23_linear_1_65752)"/>
<g style="mix-blend-mode:multiply" opacity="0.3">
<path d="M95.6107 108.497C95.6296 111.548 95.8369 114.021 96.0744 114.006C96.3118 113.987 96.4852 111.488 96.4663 108.433C96.4437 105.393 96.2364 102.958 96.0027 102.977C95.7691 102.999 95.5919 105.461 95.6107 108.497Z" fill="#A7781B"/>
</g>
<path d="M95.5687 115.839C96.0926 116.143 96.7711 115.914 97.0801 115.335C97.393 114.753 97.2121 114.042 96.6881 113.742C96.1642 113.441 95.4896 113.67 95.1805 114.249C94.8714 114.828 95.0448 115.538 95.5687 115.842V115.839Z" fill="url(#paint24_linear_1_65752)"/>
<g filter="url(#filter0_dddd_1_65752)">
<path d="M96.462 20.1864L102.685 2.03861C101.353 1.98228 99.2998 1.91013 97.1471 2.44347C94.4658 3.10827 91.9478 4.16036 90.4941 5.03549C92.3408 9.97451 94.5492 15.0671 96.462 20.1826V20.1864Z" fill="url(#paint25_linear_1_65752)"/>
</g>
<path d="M92.7397 31.7213C92.7435 31.2177 92.8415 30.7593 93.0262 30.3497C93.2184 29.9438 93.4747 29.6094 93.7989 29.3463C94.1192 29.0833 94.4848 28.9104 94.8881 28.824L94.8768 30.2294C94.6017 30.2858 94.3793 30.4248 94.2059 30.6465C94.0363 30.8645 93.9534 31.1426 93.9496 31.4732C93.9496 31.695 93.9873 31.8716 94.0702 32.0106C94.1532 32.1497 94.2625 32.2436 94.4057 32.3C94.5527 32.3526 94.7185 32.3601 94.907 32.3225C95.1934 32.2624 95.4309 32.1234 95.6156 31.8979C95.8041 31.6799 95.8983 31.4056 95.8983 31.0712C95.8983 30.8908 95.8757 30.7405 95.8191 30.6127C95.7664 30.4924 95.7023 30.3947 95.6231 30.3158L96.7501 29.4215L98.0392 31.1313L98.1937 31.0185L98.2088 28.3918L99.4752 28.125L99.4563 32.5555L98.0731 32.8373L96.622 30.8457L96.8255 30.0866C96.8594 30.1993 96.8858 30.3196 96.9046 30.4474C96.9273 30.5789 96.9386 30.7254 96.9386 30.8795C96.9386 31.3868 96.8481 31.8415 96.6785 32.2399C96.5089 32.6382 96.2677 32.9689 95.9624 33.2282C95.6608 33.4912 95.3103 33.6641 94.9108 33.7468L94.8052 33.7693C94.4057 33.852 94.0476 33.8219 93.7348 33.6829C93.422 33.5513 93.177 33.3184 92.996 32.9877C92.8227 32.6607 92.736 32.2436 92.7435 31.7325L92.7397 31.7213ZM92.6757 38.0194C92.6794 37.4971 92.7699 37.0349 92.9395 36.629C93.1167 36.2232 93.3503 35.8737 93.6443 35.5843C93.9383 35.2987 94.2775 35.062 94.6582 34.8703C95.0465 34.6862 95.4573 34.5472 95.8907 34.4607L96.4033 34.3593C97.0064 34.239 97.5492 34.2353 98.0392 34.348C98.5291 34.4607 98.9174 34.705 99.2076 35.0845C99.4978 35.4641 99.641 35.9864 99.641 36.6628C99.641 37.3393 99.4903 37.918 99.1963 38.4065C98.9023 38.9025 98.5065 39.3009 98.0128 39.609C97.519 39.9171 96.9687 40.1276 96.3657 40.2403L95.8493 40.338C95.4158 40.4207 95.005 40.4395 94.613 40.4019C94.2285 40.3643 93.8931 40.2591 93.6029 40.0787C93.3127 39.9059 93.0827 39.6503 92.9131 39.3084C92.751 38.9739 92.6719 38.5455 92.6757 38.0232V38.0194ZM94.025 37.7564C94.0212 38.2449 94.1833 38.5718 94.5188 38.7447C94.858 38.9213 95.3857 38.9401 96.1018 38.8011C96.8632 38.6545 97.4097 38.4253 97.7452 38.1134C98.0844 37.8052 98.2578 37.4107 98.2615 36.9334C98.2653 36.4562 98.0957 36.1104 97.7602 35.9338C97.4285 35.7572 96.8896 35.7459 96.1433 35.8925C95.397 36.039 94.8919 36.257 94.5489 36.5576C94.2059 36.8658 94.0326 37.2641 94.0288 37.7564H94.025ZM92.604 44.9264C92.6078 44.3965 92.6983 43.9305 92.8679 43.5247C93.045 43.1151 93.2825 42.7694 93.5765 42.4762C93.8705 42.1906 94.2135 41.9539 94.5979 41.766C94.9899 41.5819 95.4045 41.4503 95.838 41.3714L96.3543 41.2737C96.9612 41.161 97.5077 41.1648 98.0015 41.285C98.4952 41.4053 98.8872 41.6608 99.1774 42.0478C99.4677 42.4349 99.6146 42.9685 99.6109 43.6525C99.6071 44.3364 99.4563 44.9226 99.1623 45.4111C98.8646 45.9072 98.4688 46.3093 97.9713 46.6099C97.4738 46.9143 96.9235 47.1172 96.3129 47.2262L95.7927 47.3164C95.3555 47.3953 94.9409 47.4103 94.5489 47.3615C94.1645 47.3201 93.8253 47.2074 93.5313 47.0195C93.2373 46.8391 93.0074 46.5761 92.8377 46.2303C92.6757 45.8884 92.5927 45.4562 92.6003 44.9264H92.604ZM93.9647 44.6821C93.9609 45.1744 94.1268 45.5126 94.4622 45.6892C94.8052 45.8733 95.3329 45.8997 96.0566 45.7681C96.8217 45.6291 97.372 45.4074 97.7112 45.0955C98.0542 44.7873 98.2276 44.3927 98.2314 43.908C98.2351 43.4232 98.0655 43.0737 97.7263 42.8896C97.3946 42.7055 96.8519 42.6867 96.098 42.8257C95.3442 42.9648 94.8392 43.179 94.4924 43.4758C94.1494 43.784 93.9723 44.1861 93.9685 44.6821H93.9647ZM92.6757 51.3974C92.6832 50.7961 92.7699 50.2813 92.9433 49.8529C93.1204 49.4245 93.3692 49.0826 93.682 48.8233C94.0024 48.564 94.3793 48.3986 94.809 48.3235L94.7977 49.68C94.6281 49.7101 94.466 49.7815 94.3152 49.9018C94.1682 50.0183 94.0514 50.1874 93.9572 50.4053C93.8705 50.6233 93.8253 50.8901 93.8215 51.202C93.8177 51.6191 93.8856 51.9272 94.0326 52.1264C94.1758 52.3293 94.368 52.412 94.613 52.3707C94.8241 52.3369 95.0012 52.2091 95.1331 51.9949C95.2726 51.7807 95.3668 51.4575 95.4121 51.0329L95.4535 50.5556C95.5176 49.8867 95.7174 49.3268 96.049 48.8834C96.3883 48.4362 96.8594 48.1619 97.47 48.0529C97.8922 47.9777 98.2427 48.0116 98.5254 48.1544C98.8118 48.2972 99.0267 48.5339 99.1661 48.8684C99.3131 49.2028 99.3847 49.6199 99.381 50.1235C99.381 50.6646 99.2943 51.1343 99.1247 51.5289C98.9551 51.9235 98.7138 52.2429 98.401 52.4797C98.0844 52.7239 97.7037 52.8855 97.2552 52.9607L97.2627 51.5928C97.4399 51.5627 97.5982 51.4913 97.7339 51.3824C97.8771 51.2771 97.9901 51.1381 98.0768 50.9615C98.1635 50.7849 98.2088 50.5744 98.2088 50.3264C98.2088 50.1084 98.1786 49.9281 98.1183 49.7853C98.058 49.6425 97.9713 49.5373 97.8545 49.4771C97.7452 49.417 97.6132 49.3982 97.4587 49.4245C97.2702 49.4583 97.0969 49.556 96.9423 49.7251C96.7953 49.8905 96.7011 50.1423 96.6634 50.4767L96.622 50.9577C96.5579 51.7093 96.3543 52.3406 96.0151 52.8404C95.6759 53.344 95.201 53.6446 94.5942 53.7423C94.1758 53.8099 93.8215 53.7648 93.535 53.6033C93.2448 53.4417 93.03 53.1711 92.883 52.7953C92.736 52.427 92.6644 51.9573 92.6719 51.3936L92.6757 51.3974ZM91.5562 50.9352L92.8717 50.7097L92.8604 51.916L91.5449 52.1377L91.56 50.9314L91.5562 50.9352ZM98.9324 49.635L100.286 49.402V50.6233L98.9287 50.8525V49.6312L98.9324 49.635Z" fill="#34D097"/>
<path d="M63.998 43.6001L68.6605 40.575L68.5361 41.0597L67.982 39.7069L69.0525 39.0117L69.9684 41.2289L64.473 44.7838L64.0018 43.6038L63.998 43.6001ZM65.7055 48.3124C65.5359 47.8878 65.4605 47.4782 65.4793 47.0836C65.5019 46.689 65.5999 46.317 65.7695 45.9675C65.9392 45.6255 66.1691 45.3024 66.4518 45.0055C66.742 44.7086 67.0699 44.4418 67.4317 44.2088L67.8614 43.9307C68.3665 43.6076 68.8565 43.3971 69.3351 43.3032C69.8138 43.2092 70.2511 43.2619 70.6393 43.4535C71.0275 43.6489 71.3366 44.0172 71.5627 44.5621C71.7889 45.107 71.8492 45.6368 71.7512 46.1404C71.6532 46.6514 71.4308 47.1287 71.0878 47.5646C70.7448 48.0005 70.3189 48.38 69.8101 48.707L69.3766 48.9851C69.011 49.218 68.6454 49.3909 68.276 49.5074C67.9142 49.6239 67.575 49.6652 67.247 49.6314C66.9229 49.6013 66.6289 49.4811 66.3613 49.2669C66.1012 49.0565 65.8864 48.737 65.713 48.3124H65.7055ZM66.8437 47.5834C67.0021 47.9817 67.2621 48.1846 67.624 48.1959C67.9933 48.2072 68.4758 48.0231 69.0788 47.6397C69.7196 47.2301 70.138 46.8356 70.334 46.456C70.5375 46.0765 70.5601 45.6932 70.4018 45.3061C70.2397 44.9078 69.9759 44.7049 69.6103 44.6898C69.2522 44.6748 68.7585 44.8665 68.1328 45.2685C67.526 45.6556 67.1227 46.0389 66.9116 46.4147C66.7043 46.7942 66.6817 47.185 66.8437 47.5871V47.5834ZM67.9217 53.502C67.7257 53.0135 67.6353 52.5625 67.6466 52.1492C67.6654 51.7321 67.771 51.36 67.9707 51.0293C68.1743 50.6949 68.4569 50.413 68.815 50.1838L69.2598 51.2811C69.1165 51.3713 68.9959 51.4953 68.9017 51.6494C68.8112 51.7997 68.7585 51.9838 68.7472 52.198C68.7434 52.4085 68.7924 52.6414 68.8942 52.8932C69.0299 53.2352 69.1957 53.4569 69.3917 53.5584C69.5877 53.6673 69.7912 53.6561 69.9947 53.5283C70.1757 53.4156 70.2887 53.2465 70.3377 53.021C70.3943 52.7918 70.3679 52.4949 70.2661 52.1304L70.1417 51.7283C69.9759 51.1609 69.9684 50.6348 70.1154 50.1462C70.2699 49.654 70.6016 49.2481 71.1142 48.9249C71.4685 48.6995 71.7926 48.5905 72.0942 48.5942C72.3995 48.5942 72.6708 48.7032 72.9083 48.9174C73.1533 49.1279 73.3568 49.436 73.5227 49.8419C73.7036 50.2778 73.7827 50.6874 73.7677 51.0707C73.7488 51.454 73.6395 51.8072 73.4397 52.1229C73.24 52.446 72.9498 52.7241 72.5728 52.9609L72.1205 51.8523C72.2713 51.7584 72.3881 51.6419 72.4711 51.4991C72.5615 51.36 72.6181 51.2022 72.6369 51.0256C72.6558 50.849 72.6218 50.6611 72.5427 50.4619C72.4711 50.2853 72.3844 50.1538 72.2788 50.0598C72.1771 49.9659 72.064 49.9208 71.9396 49.917C71.819 49.9095 71.6984 49.9471 71.5702 50.0297C71.4119 50.1312 71.2913 50.2778 71.2084 50.4732C71.133 50.6648 71.133 50.9053 71.2084 51.1872L71.3328 51.5893C71.525 52.2243 71.5552 52.8106 71.4195 53.3479C71.2838 53.8891 70.9596 54.3175 70.4433 54.6406C70.089 54.8623 69.7535 54.9638 69.4407 54.9488C69.1278 54.93 68.8414 54.7985 68.5813 54.5542C68.325 54.3137 68.1064 53.9642 67.9217 53.502ZM66.7608 53.5696L67.8727 52.8707L68.2647 53.8515L67.1528 54.5504L66.7608 53.5696ZM72.9535 49.6239L74.0843 48.9099L74.4913 49.8945L73.3568 50.6085L72.9498 49.6239H72.9535Z" fill="white"/>
<path d="M47.7666 60.089C48.0455 60.3596 48.2339 60.6527 48.3357 60.9721C48.4412 61.2878 48.4638 61.6222 48.4035 61.9717C48.3545 62.3212 48.2415 62.6707 48.0643 63.0239C47.8909 63.3809 47.6723 63.7266 47.4047 64.0611L47.171 64.3542C46.4964 65.2034 45.8292 65.6844 45.1658 65.8047C44.51 65.9174 43.8768 65.6657 43.2624 65.0569C43.138 64.9329 43.0174 64.8051 42.9044 64.6736C42.7913 64.5421 42.682 64.4143 42.584 64.279L43.334 63.3283C43.4358 63.4523 43.5413 63.5838 43.662 63.7266C43.7826 63.8619 43.9107 63.9972 44.0464 64.1325C44.3178 64.403 44.5779 64.5533 44.8304 64.5872C45.0867 64.6172 45.343 64.5421 45.6068 64.3579C45.8707 64.1738 46.1421 63.9032 46.4323 63.5387L46.8544 63.0089L47.1748 63.0239C46.8921 63.3696 46.6057 63.6139 46.3154 63.7492C46.0327 63.8844 45.7538 63.922 45.4862 63.8657C45.2148 63.8055 44.9661 63.6627 44.7362 63.4373C44.4761 63.178 44.3065 62.8886 44.2236 62.5617C44.1482 62.231 44.1595 61.889 44.2613 61.5358C44.363 61.1825 44.5477 60.8293 44.8229 60.4836C45.1131 60.1153 45.4259 59.856 45.7651 59.702C46.1081 59.5404 46.4511 59.4953 46.7903 59.5591C47.1371 59.623 47.465 59.8034 47.7666 60.0965V60.089ZM47.0353 61.066C46.8846 60.9195 46.7263 60.8331 46.5604 60.803C46.3984 60.7767 46.2363 60.803 46.078 60.8744C45.9234 60.9458 45.7802 61.0698 45.6408 61.2427C45.5013 61.4193 45.4071 61.5997 45.3581 61.7838C45.3128 61.9642 45.3091 62.137 45.3505 62.3099C45.3958 62.479 45.4938 62.6368 45.6408 62.7796C45.7727 62.9112 45.9197 62.9976 46.078 63.0464C46.2438 63.0915 46.4059 63.084 46.5717 63.0201C46.7413 62.9525 46.9034 62.821 47.058 62.6256C47.1899 62.4565 47.2803 62.2798 47.3293 62.0957C47.3821 61.9153 47.3821 61.7349 47.3369 61.5546C47.2879 61.378 47.1899 61.2126 47.0353 61.0623V61.066ZM47.3067 69.2544C47.0052 68.9538 46.8017 68.6306 46.6923 68.2886C46.5868 67.9392 46.5567 67.5859 46.6057 67.2252C46.6584 66.8682 46.7677 66.5074 46.9411 66.1429C47.122 65.7784 47.3444 65.4289 47.612 65.0907L47.9286 64.6924C48.3018 64.2264 48.6975 63.8581 49.1234 63.5988C49.5494 63.3396 49.9753 63.2155 50.405 63.2343C50.8384 63.2531 51.2492 63.4523 51.6412 63.8281C52.0332 64.2076 52.2631 64.6323 52.3347 65.102C52.4101 65.5755 52.3536 66.064 52.1727 66.5675C51.9918 67.0711 51.7128 67.5596 51.3322 68.0293L51.008 68.4314C50.7366 68.7696 50.4464 69.059 50.1336 69.2995C49.8283 69.5363 49.5154 69.7054 49.1951 69.7993C48.8784 69.897 48.5581 69.9045 48.2339 69.8256C47.9173 69.7467 47.6082 69.555 47.3067 69.2544ZM48.1548 68.1947C48.4375 68.4728 48.7503 68.5517 49.0971 68.4239C49.4514 68.2962 49.8509 67.9504 50.2994 67.3905C50.7743 66.7968 51.0419 66.3007 51.1022 65.9024C51.1739 65.5003 51.0683 65.1659 50.7894 64.8953C50.5067 64.6172 50.1863 64.5458 49.8396 64.6698C49.4928 64.7901 49.0895 65.1433 48.6259 65.7258C48.1774 66.2895 47.9173 66.7667 47.8382 67.1688C47.7628 67.5747 47.8683 67.9166 48.1548 68.1985V68.1947ZM51.3208 73.2565C51.0118 72.9484 50.8007 72.6215 50.6876 72.2682C50.5783 71.915 50.5482 71.5505 50.5934 71.1859C50.6462 70.8214 50.7555 70.4569 50.9326 70.0887C51.1135 69.7204 51.3397 69.3634 51.6148 69.0252L51.939 68.6231C52.3159 68.1496 52.723 67.7851 53.1527 67.522C53.5861 67.259 54.0233 67.1387 54.4605 67.1613C54.8978 67.1838 55.3237 67.3905 55.7232 67.7776C56.1265 68.1646 56.364 68.6005 56.4356 69.0778C56.5147 69.5588 56.462 70.0586 56.2773 70.5659C56.0926 71.077 55.8099 71.5692 55.4254 72.0465L55.0975 72.4523C54.8224 72.7943 54.5246 73.0874 54.208 73.3279C53.8989 73.5684 53.5786 73.7338 53.2544 73.8277C52.9303 73.9254 52.6024 73.9292 52.2707 73.8465C51.9465 73.7601 51.6299 73.5647 51.3208 73.2565ZM52.1802 72.1855C52.4704 72.4711 52.7908 72.5538 53.1413 72.426C53.5032 72.2983 53.9103 71.9526 54.3625 71.3851C54.845 70.7876 55.1164 70.2841 55.1805 69.8782C55.2521 69.4724 55.1428 69.1304 54.8563 68.8523C54.5661 68.5667 54.2419 68.4916 53.8839 68.6156C53.5296 68.7358 53.1187 69.0891 52.6476 69.6753C52.1915 70.2427 51.9277 70.7275 51.8485 71.1371C51.7731 71.5467 51.8825 71.8962 52.1764 72.1855H52.1802ZM55.2257 76.958C54.8714 76.6048 54.6264 76.2403 54.4982 75.8757C54.3739 75.5037 54.3512 75.1355 54.4342 74.7709C54.5171 74.3989 54.698 74.0457 54.9694 73.7112L55.7684 74.5004C55.6591 74.6357 55.5875 74.786 55.5461 74.9588C55.5084 75.1279 55.5197 75.3083 55.5837 75.4962C55.6516 75.6803 55.776 75.8682 55.9607 76.0524C56.2094 76.3004 56.4469 76.4319 56.6693 76.4469C56.8992 76.4657 57.0876 76.3793 57.2459 76.1914C57.3816 76.0261 57.4344 75.8307 57.408 75.6127C57.3816 75.391 57.261 75.1392 57.0386 74.8611L56.7823 74.5567C56.428 74.1246 56.2433 73.6661 56.2207 73.1814C56.2019 72.6928 56.3866 72.2118 56.771 71.7346C57.0386 71.4039 57.3138 71.1859 57.6078 71.077C57.9018 70.9642 58.2033 70.953 58.5048 71.0507C58.8101 71.1409 59.1154 71.3325 59.4132 71.6219C59.7336 71.9338 59.9522 72.2607 60.069 72.6027C60.1821 72.9446 60.1972 73.2941 60.1105 73.6473C60.0276 74.0043 59.8429 74.3576 59.5602 74.7108L58.7423 73.9141C58.8554 73.7751 58.927 73.6286 58.9609 73.4707C59.0024 73.3129 59.0024 73.1551 58.9609 72.9935C58.9194 72.8319 58.8252 72.6816 58.6782 72.5388C58.5501 72.4148 58.4181 72.3283 58.29 72.287C58.1581 72.2457 58.0337 72.2457 57.9131 72.2908C57.7962 72.3321 57.6869 72.411 57.5927 72.5313C57.4721 72.6778 57.408 72.8544 57.3929 73.0574C57.3854 73.2565 57.4646 73.4632 57.6379 73.6812L57.8942 73.9855C58.2975 74.4666 58.5274 74.9701 58.5764 75.4962C58.6292 76.0223 58.4596 76.5259 58.0714 77.0031C57.8038 77.3338 57.5135 77.5518 57.2007 77.657C56.8879 77.7622 56.5675 77.7547 56.232 77.6382C55.9004 77.5254 55.5687 77.3 55.2332 76.9655L55.2257 76.958ZM54.1213 77.4653L54.9618 76.4244L55.678 77.1384L54.8337 78.1793L54.1213 77.4653ZM58.7837 71.6444L59.6318 70.5922L60.3592 71.2949L59.5074 72.3471L58.78 71.6444H58.7837Z" fill="#34D097"/>
<path d="M29.6904 90.836C29.3097 90.6932 29.0044 90.494 28.7745 90.2423C28.5484 89.9905 28.4089 89.6974 28.3561 89.3629C28.3072 89.0285 28.3562 88.664 28.5107 88.2656C28.6087 88.0101 28.7255 87.7997 28.8612 87.6306C29.0007 87.4577 29.1552 87.3224 29.3248 87.2247C29.4982 87.1308 29.6791 87.0744 29.8676 87.0556L29.909 86.9466C29.8148 86.8377 29.7357 86.7061 29.6791 86.5596C29.6226 86.4055 29.6 86.2364 29.6075 86.0523C29.615 85.8644 29.6603 85.6614 29.7432 85.4435C29.8864 85.0677 30.0786 84.7859 30.3236 84.598C30.5724 84.4101 30.8513 84.3049 31.1604 84.2786C31.477 84.2485 31.8011 84.2936 32.1328 84.4138C32.4721 84.5378 32.751 84.7107 32.9696 84.9324C33.192 85.1504 33.3314 85.4097 33.3917 85.7103C33.452 86.0109 33.4106 86.3491 33.2673 86.7287C33.1844 86.9504 33.0789 87.1345 32.9583 87.2811C32.8414 87.4276 32.7095 87.5441 32.5663 87.623C32.423 87.6982 32.2761 87.7433 32.1215 87.7658L32.0801 87.8748C32.212 88.0139 32.3137 88.1754 32.3816 88.3596C32.4532 88.5437 32.4796 88.7504 32.472 88.9759C32.4645 89.1938 32.4117 89.4343 32.3137 89.6899C32.1592 90.0919 31.9519 90.4001 31.6805 90.618C31.4167 90.836 31.1152 90.9638 30.7722 91.0013C30.4329 91.0389 30.0711 90.9826 29.6867 90.836H29.6904ZM30.1163 89.7124C30.2935 89.78 30.4631 89.8026 30.6176 89.7876C30.7722 89.7688 30.9154 89.7086 31.0398 89.6034C31.1679 89.4907 31.2659 89.3404 31.3413 89.145C31.4167 88.9496 31.4393 88.7767 31.4129 88.6189C31.3941 88.461 31.33 88.322 31.2207 88.2055C31.1189 88.0853 30.9757 87.9913 30.7986 87.9237C30.6252 87.8598 30.4556 87.8372 30.2935 87.8598C30.139 87.8786 29.9995 87.9425 29.8827 88.0477C29.7658 88.1491 29.6678 88.2957 29.5962 88.4911C29.5208 88.6865 29.4944 88.8631 29.5095 89.0285C29.5284 89.1863 29.5887 89.3253 29.6942 89.4381C29.8035 89.5546 29.943 89.6448 30.1163 89.7124ZM31.183 86.9166C31.4092 86.9992 31.6089 87.0068 31.7861 86.9391C31.9632 86.864 32.0951 86.7136 32.1818 86.4882C32.2685 86.2627 32.2685 86.0635 32.1818 85.9019C32.0951 85.7366 31.9368 85.6163 31.7107 85.5337C31.4845 85.451 31.2848 85.4472 31.1076 85.5224C30.9342 85.59 30.8023 85.7366 30.7194 85.9583C30.6327 86.1838 30.6327 86.3829 30.7156 86.5521C30.8061 86.7174 30.9606 86.8414 31.183 86.9241V86.9166ZM34.4094 92.606C34.0249 92.4594 33.7234 92.2565 33.5086 91.9934C33.2975 91.7266 33.158 91.426 33.0902 91.084C33.0261 90.7458 33.0223 90.3851 33.0751 89.9942C33.1354 89.6034 33.241 89.2051 33.3917 88.803L33.5726 88.3258C33.7837 87.7658 34.0551 87.2924 34.3792 86.894C34.7072 86.4994 35.0803 86.2251 35.5024 86.071C35.9246 85.917 36.3844 85.932 36.8782 86.1086C37.3757 86.289 37.73 86.5708 37.9486 86.9541C38.171 87.3412 38.2728 87.7921 38.2577 88.307C38.2426 88.8218 38.1258 89.3629 37.9109 89.9266L37.7262 90.4076C37.5717 90.8135 37.3832 91.1855 37.1571 91.5199C36.9385 91.8506 36.6897 92.1212 36.4108 92.3316C36.1357 92.5421 35.8266 92.6774 35.4874 92.7375C35.1557 92.7901 34.7976 92.745 34.4094 92.5984V92.606ZM34.8918 91.3358C35.2537 91.4711 35.5778 91.4147 35.8718 91.1629C36.1733 90.9074 36.4485 90.4489 36.7048 89.7763C36.9762 89.0661 37.0779 88.5249 37.0101 88.1491C36.9498 87.7696 36.7425 87.5141 36.392 87.3863C36.0301 87.2548 35.7022 87.3149 35.4044 87.5629C35.1104 87.8072 34.8315 88.2731 34.5677 88.9683C34.3114 89.641 34.2096 90.1671 34.2624 90.5504C34.3189 90.9375 34.5262 91.1968 34.8918 91.3358ZM39.558 94.5638C39.1623 94.4135 38.8532 94.2068 38.6308 93.94C38.4122 93.6694 38.269 93.3613 38.1974 93.0156C38.1295 92.6736 38.122 92.3053 38.1748 91.9107C38.2351 91.5124 38.3406 91.1103 38.4951 90.7007L38.6798 90.216C38.8947 89.6523 39.1698 89.1675 39.5015 88.7692C39.8332 88.3671 40.2176 88.0928 40.6473 87.9387C41.077 87.7846 41.5481 87.7997 42.057 87.9838C42.5658 88.1679 42.9352 88.4535 43.1576 88.8481C43.3875 89.2427 43.493 89.7011 43.4817 90.2235C43.4666 90.7458 43.3536 91.2945 43.1349 91.8657L42.9503 92.3542C42.7957 92.7675 42.5997 93.1433 42.3736 93.4815C42.1512 93.816 41.8987 94.0903 41.6122 94.3045C41.3295 94.5187 41.0167 94.654 40.6699 94.7141C40.3307 94.7667 39.9613 94.7179 39.5656 94.5676L39.558 94.5638ZM40.048 93.2711C40.4174 93.4101 40.7529 93.3538 41.0544 93.102C41.3597 92.8465 41.6424 92.3767 41.9024 91.7003C42.1738 90.9826 42.2756 90.4302 42.2077 90.0469C42.1437 89.6598 41.9326 89.4005 41.5708 89.269C41.2014 89.1337 40.8622 89.1938 40.5606 89.4418C40.2591 89.6861 39.9764 90.1596 39.7088 90.8661C39.4487 91.5462 39.347 92.0836 39.4035 92.4707C39.4638 92.8615 39.6786 93.1283 40.0518 93.2711H40.048ZM44.5145 96.2962C44.0584 96.1233 43.7079 95.8978 43.4666 95.6235C43.2292 95.3417 43.0897 95.026 43.0483 94.669C43.0106 94.3083 43.0671 93.925 43.2216 93.5154L44.2468 93.8987C44.1865 94.0602 44.1639 94.2256 44.179 94.3947C44.1978 94.56 44.2657 94.7141 44.3863 94.8569C44.5107 94.9959 44.6916 95.1087 44.9291 95.1989C45.2494 95.3191 45.517 95.3417 45.7394 95.2665C45.9656 95.1914 46.1239 95.041 46.2106 94.8081C46.2859 94.6051 46.2784 94.4135 46.1804 94.2331C46.0862 94.0452 45.8864 93.8723 45.5811 93.7145L45.2344 93.5454C44.7557 93.3012 44.4278 92.9705 44.2544 92.5533C44.081 92.1287 44.1036 91.6327 44.3185 91.0577C44.4692 90.6631 44.6652 90.3588 44.9102 90.1483C45.1552 89.9304 45.4417 89.8064 45.762 89.7725C46.0862 89.7312 46.4367 89.78 46.8174 89.9191C47.2282 90.0656 47.5411 90.2686 47.7597 90.5241C47.9783 90.7796 48.1064 91.084 48.1366 91.4297C48.1705 91.7792 48.1102 92.1625 47.9481 92.5872L46.9079 92.2039C46.9719 92.0348 46.9945 91.8769 46.9757 91.7266C46.9644 91.5725 46.9116 91.4297 46.8212 91.3057C46.7307 91.1817 46.5912 91.084 46.4028 91.0164C46.2369 90.9563 46.0862 90.9337 45.9467 90.9487C45.8073 90.9638 45.6867 91.0126 45.5849 91.1028C45.4831 91.1855 45.4077 91.2982 45.355 91.441C45.2871 91.6176 45.2796 91.798 45.3324 91.9821C45.3889 92.1588 45.5321 92.3128 45.7696 92.4369L46.1163 92.6022C46.6591 92.869 47.0398 93.2222 47.2584 93.6657C47.477 94.1091 47.477 94.6239 47.2584 95.2026C47.1076 95.601 46.8965 95.9129 46.6327 96.1271C46.3689 96.345 46.0523 96.469 45.6942 96.4953C45.3399 96.5254 44.9441 96.4578 44.5145 96.2962ZM43.6099 97.1868L44.0885 95.9241L45.0082 96.2736L44.5295 97.54L43.6099 97.1905V97.1868ZM46.2294 90.1859L46.7081 88.927L47.6315 89.2577L47.1529 90.5203L46.2294 90.1859Z" fill="white"/>
<path d="M23.4503 120.976C23.0319 120.995 22.6776 120.912 22.3874 120.728C22.1009 120.54 21.8861 120.277 21.7466 119.943C21.6109 119.612 21.5581 119.24 21.5883 118.826L22.7228 118.77C22.7077 118.973 22.7341 119.15 22.7944 119.304C22.8623 119.45 22.9603 119.563 23.0884 119.646C23.2166 119.725 23.3673 119.758 23.5407 119.751C23.7329 119.743 23.8988 119.687 24.0345 119.586C24.1777 119.477 24.2908 119.338 24.3737 119.165C24.4566 118.988 24.5056 118.793 24.5207 118.575C24.5358 118.357 24.5132 118.161 24.4491 117.996C24.3925 117.827 24.3021 117.695 24.1739 117.598C24.0496 117.504 23.895 117.459 23.7066 117.47C23.5332 117.477 23.3749 117.53 23.2279 117.628C23.0847 117.725 22.9716 117.842 22.8962 117.985L21.7918 118.041L22.3044 114.362L25.4931 114.174L25.4102 115.426L22.6851 115.58L23.1638 115.181L22.866 117.305L22.5984 117.229C22.7567 117.008 22.9414 116.82 23.1525 116.666C23.3673 116.504 23.6425 116.418 23.9742 116.399C24.3586 116.376 24.679 116.459 24.9391 116.639C25.2029 116.816 25.3951 117.064 25.5195 117.387C25.6477 117.703 25.7004 118.064 25.6741 118.466L25.6665 118.582C25.6401 118.984 25.5346 119.364 25.3537 119.721C25.1728 120.078 24.9165 120.371 24.5923 120.6C24.2719 120.829 23.895 120.953 23.454 120.976H23.4503ZM28.565 120.747C28.1353 120.766 27.7772 120.698 27.4832 120.54C27.1892 120.378 26.9593 120.153 26.7859 119.867C26.6201 119.582 26.5033 119.247 26.4354 118.868C26.3713 118.481 26.3563 118.071 26.3826 117.639L26.4166 117.124C26.4543 116.523 26.5749 115.978 26.7746 115.482C26.9744 114.986 27.2609 114.588 27.6302 114.279C27.9996 113.971 28.4557 113.802 28.9984 113.768C29.5412 113.735 29.9822 113.855 30.3139 114.122C30.6531 114.388 30.8943 114.764 31.0375 115.241C31.1808 115.722 31.2335 116.264 31.1996 116.869L31.1695 117.387C31.1431 117.823 31.0715 118.24 30.9546 118.642C30.8415 119.037 30.6795 119.386 30.4684 119.695C30.2611 120.003 30.001 120.251 29.6806 120.439C29.3678 120.623 28.9984 120.724 28.5687 120.743L28.565 120.747ZM28.6479 119.375C29.0474 119.356 29.3527 119.172 29.5676 118.823C29.7862 118.469 29.9181 117.928 29.9633 117.211C30.0086 116.448 29.9407 115.907 29.7598 115.587C29.5826 115.26 29.3 115.11 28.9117 115.132C28.5235 115.155 28.2069 115.339 27.9921 115.689C27.7772 116.031 27.6453 116.572 27.5963 117.32C27.5473 118.067 27.6114 118.571 27.781 118.905C27.9544 119.24 28.2446 119.398 28.6479 119.379V119.375ZM33.8682 120.371C33.3744 120.393 32.9711 120.326 32.6545 120.168C32.3379 120.006 32.108 119.77 31.9647 119.462C31.8177 119.146 31.7612 118.774 31.7838 118.342L32.8844 118.285C32.8731 118.454 32.9033 118.616 32.9673 118.766C33.0352 118.909 33.1483 119.022 33.3066 119.105C33.4686 119.183 33.6759 119.214 33.9322 119.202C34.2752 119.187 34.5428 119.101 34.7313 118.943C34.9273 118.785 35.0328 118.586 35.0441 118.342C35.0554 118.127 34.9876 117.958 34.8406 117.831C34.6936 117.699 34.4486 117.62 34.1094 117.594L33.7287 117.579C33.1973 117.545 32.7826 117.372 32.4849 117.06C32.1909 116.741 32.0627 116.282 32.0967 115.674C32.123 115.256 32.221 114.903 32.3907 114.618C32.5603 114.325 32.7977 114.099 33.0955 113.945C33.3932 113.783 33.7438 113.689 34.1508 113.667C34.5881 113.641 34.9499 113.701 35.2364 113.847C35.5228 113.994 35.7339 114.219 35.8696 114.52C36.009 114.821 36.0656 115.196 36.0392 115.644L34.9273 115.704C34.9386 115.527 34.9122 115.373 34.8481 115.245C34.7916 115.11 34.6974 115.001 34.573 114.922C34.4486 114.843 34.2828 114.809 34.083 114.824C33.9058 114.836 33.7551 114.873 33.6269 114.941C33.4988 115.008 33.397 115.102 33.3254 115.223C33.2538 115.335 33.2123 115.467 33.2048 115.621C33.1935 115.809 33.2425 115.978 33.348 116.121C33.4536 116.26 33.6382 116.343 33.9021 116.365L34.2828 116.38C34.8821 116.41 35.357 116.583 35.7 116.899C36.0467 117.218 36.2013 117.684 36.1673 118.297C36.1447 118.721 36.0354 119.086 35.847 119.386C35.6585 119.691 35.3947 119.927 35.0554 120.093C34.7238 120.262 34.3242 120.356 33.8606 120.378L33.8682 120.371ZM33.2651 121.547L33.3442 120.206L34.3355 120.16L34.2601 121.506L33.2689 121.547H33.2651ZM33.6646 114.137L33.74 112.81L34.7238 112.75L34.6484 114.08L33.6646 114.137Z" fill="#34D097"/>
<path d="M124.595 30.1046C124.799 29.5785 125.07 29.1425 125.413 28.7893C125.76 28.4473 126.159 28.2068 126.615 28.064C127.068 27.9288 127.565 27.9137 128.104 28.0152L128.455 28.0791L127.859 29.6273L127.426 29.5446C127.124 29.4883 126.845 29.5296 126.589 29.6724C126.336 29.8227 126.148 30.0557 126.027 30.3751C125.907 30.687 125.903 30.9501 126.016 31.1605C126.133 31.3822 126.34 31.5213 126.642 31.5776L130.109 32.2465L129.502 33.8248L126.125 33.1597C125.586 33.0545 125.172 32.8591 124.878 32.5772C124.584 32.2991 124.41 31.9497 124.361 31.525C124.316 31.1079 124.395 30.6344 124.599 30.1008L124.595 30.1046ZM130.987 29.4281L132.356 29.6837L130.671 34.0616L129.306 33.7948L130.987 29.4281ZM123.574 33.2424L129.567 36.9326L128.583 39.4917L120.799 40.4387L121.425 38.819L127.961 38.09L127.569 38.5485L128.048 37.3046V37.8645L122.974 34.7981L123.577 33.2386L123.574 33.2424ZM124.591 35.3242L125.684 36.0608L124.629 38.8002L123.167 39.0219L124.591 35.3242ZM119.16 44.204C119.401 43.5765 119.714 43.0579 120.098 42.652C120.487 42.2462 120.913 41.9418 121.369 41.7276C121.832 41.5172 122.292 41.3856 122.752 41.333C123.216 41.2879 123.641 41.3067 124.026 41.3894L124.233 41.4345C124.659 41.5247 125.051 41.6863 125.413 41.9192C125.782 42.1522 126.08 42.4491 126.31 42.8136C126.536 43.1819 126.668 43.614 126.698 44.1026C126.732 44.5986 126.634 45.1548 126.397 45.7673C126.152 46.4061 125.816 46.9435 125.394 47.3832C124.972 47.8191 124.497 48.1347 123.969 48.3301C123.445 48.5331 122.899 48.597 122.33 48.518L122.94 46.9285C123.234 46.9473 123.509 46.8984 123.766 46.7819C124.022 46.6654 124.252 46.4888 124.459 46.2558C124.663 46.0303 124.825 45.7598 124.946 45.4441C125.066 45.1285 125.123 44.8353 125.108 44.5685C125.093 44.3017 125.021 44.0612 124.893 43.8508C124.761 43.6479 124.576 43.4712 124.339 43.3209C124.109 43.1781 123.83 43.0729 123.502 43.0015C123.182 42.9301 122.873 42.9076 122.575 42.9339C122.281 42.9677 121.998 43.0428 121.738 43.1669C121.478 43.2984 121.248 43.475 121.048 43.7005C120.852 43.9259 120.694 44.2003 120.573 44.5197C120.389 45.0044 120.343 45.4366 120.445 45.8199C120.543 46.2107 120.781 46.485 121.158 46.6466L120.551 48.2212C120.076 48.0483 119.688 47.7702 119.386 47.3907C119.088 47.0187 118.907 46.5564 118.851 46.0115C118.798 45.4742 118.9 44.8729 119.156 44.204H119.16ZM115.862 53.2567L119.944 51.6032L120.317 50.6337L122.827 54.4592L122.126 56.2818L119.876 52.8283L120.547 52.9673L115.131 55.1469L115.858 53.2567H115.862ZM117.626 48.6759L124.44 50.2654L123.83 51.855L117.023 50.2429L117.626 48.6759ZM116.25 57.7173L117.562 58.0517L117.076 59.3143C116.981 59.5586 116.947 59.7803 116.974 59.9757C116.996 60.1787 117.076 60.3515 117.204 60.4906C117.339 60.6334 117.52 60.7311 117.743 60.7874C117.98 60.8475 118.199 60.8513 118.402 60.7987C118.613 60.7461 118.798 60.6409 118.953 60.483C119.115 60.3327 119.239 60.1336 119.333 59.8893L119.82 58.6229L121.154 58.9611L120.694 60.1561C120.464 60.7574 120.166 61.2459 119.808 61.6217C119.446 62.005 119.047 62.2605 118.602 62.3958C118.157 62.5348 117.686 62.5386 117.192 62.4071L117.045 62.3695C116.563 62.2417 116.186 62.0162 115.918 61.6931C115.655 61.3774 115.511 60.9791 115.485 60.4981C115.459 60.0246 115.557 59.491 115.787 58.8972L116.243 57.7173H116.25ZM114.859 55.8534L121.693 57.5632L121.082 59.1528L114.256 57.4204L114.859 55.8534ZM110.939 65.5373C111.184 64.906 111.497 64.3799 111.885 63.9666C112.277 63.557 112.703 63.2451 113.163 63.0309C113.631 62.8167 114.094 62.6851 114.558 62.64C115.018 62.5987 115.44 62.6288 115.813 62.7302L116.016 62.7828C116.435 62.8956 116.819 63.0797 117.17 63.3428C117.524 63.6133 117.807 63.9515 118.022 64.3574C118.236 64.7632 118.353 65.2292 118.372 65.7553C118.395 66.2852 118.289 66.8601 118.048 67.4802C117.807 68.104 117.494 68.6226 117.109 69.0359C116.729 69.453 116.31 69.7725 115.851 69.9979C115.395 70.2196 114.927 70.3549 114.452 70.4C113.985 70.4451 113.54 70.4113 113.122 70.2948L112.918 70.2384C112.545 70.1332 112.187 69.9453 111.844 69.6785C111.501 69.4117 111.215 69.0773 110.988 68.6714C110.766 68.2693 110.642 67.8033 110.612 67.2697C110.585 66.7474 110.694 66.1687 110.939 65.5373ZM112.334 65.9169C112.206 66.2513 112.146 66.5632 112.153 66.8564C112.161 67.157 112.225 67.4238 112.349 67.6643C112.47 67.9123 112.639 68.119 112.862 68.2843C113.08 68.4534 113.34 68.5775 113.634 68.6601C113.947 68.7466 114.252 68.7766 114.55 68.7428C114.852 68.7202 115.138 68.6376 115.402 68.4985C115.673 68.367 115.911 68.1829 116.118 67.9461C116.326 67.7094 116.495 67.4238 116.623 67.0893C116.751 66.7549 116.816 66.4392 116.812 66.1461C116.812 65.853 116.744 65.5824 116.62 65.3344C116.499 65.0939 116.326 64.891 116.096 64.7257C115.873 64.5603 115.606 64.4325 115.293 64.3499C114.999 64.271 114.701 64.2447 114.407 64.271C114.113 64.2973 113.83 64.3799 113.563 64.5115C113.291 64.6505 113.054 64.8384 112.843 65.0714C112.632 65.3044 112.462 65.5862 112.334 65.9207V65.9169ZM108.753 71.704L114.309 73.3048L113.698 74.8982L108.146 73.2785L108.753 71.7077V71.704ZM114.889 71.2643L116.22 71.6401L114.068 77.2355L112.745 76.841L114.893 71.2606L114.889 71.2643Z" fill="white"/>
<path d="M156.888 41.4492L162.022 45.3048L161.385 45.4664L162.889 43.873L164.083 44.7636L161.615 47.3716L155.603 42.8246L156.892 41.4492H156.888ZM151.747 46.6538C152.203 46.1691 152.667 45.8121 153.142 45.5791C153.624 45.3536 154.095 45.2296 154.566 45.2146C155.03 45.2033 155.486 45.2785 155.935 45.4363C156.383 45.6054 156.805 45.8384 157.197 46.139L157.665 46.496C158.211 46.9131 158.618 47.3904 158.878 47.9278C159.138 48.4651 159.21 49.0401 159.089 49.6489C158.969 50.2576 158.614 50.8777 158.023 51.5015C157.431 52.1253 156.817 52.5349 156.176 52.7303C155.531 52.9295 154.898 52.9558 154.272 52.8055C153.65 52.6589 153.066 52.3733 152.527 51.9487L152.067 51.5879C151.679 51.2835 151.363 50.9453 151.118 50.5658C150.869 50.1975 150.718 49.8029 150.662 49.382C150.597 48.9687 150.65 48.529 150.82 48.063C150.989 47.6083 151.299 47.1386 151.755 46.6538H151.747ZM152.961 47.5933C152.535 48.0443 152.373 48.4952 152.467 48.9461C152.565 49.4084 152.931 49.8856 153.571 50.3854C154.254 50.9153 154.853 51.1821 155.369 51.1858C155.886 51.1971 156.353 50.9829 156.775 50.5395C157.205 50.0848 157.374 49.6263 157.28 49.1641C157.19 48.7094 156.809 48.2209 156.131 47.7023C155.479 47.2025 154.894 46.9432 154.382 46.9244C153.865 46.9131 153.39 47.1349 152.961 47.5933ZM145.811 52.9933C146.259 52.5123 146.719 52.1629 147.186 51.9374C147.661 51.7157 148.129 51.5992 148.589 51.5879C149.045 51.5841 149.493 51.6631 149.934 51.8247C150.375 51.9975 150.786 52.238 151.17 52.5386L151.63 52.8994C152.165 53.324 152.561 53.805 152.814 54.3462C153.066 54.8873 153.134 55.4623 153.013 56.0673C152.893 56.676 152.539 57.2886 151.954 57.9049C151.37 58.5211 150.763 58.9232 150.13 59.1111C149.497 59.3028 148.871 59.3216 148.257 59.1637C147.642 59.0097 147.073 58.7166 146.546 58.2882L146.097 57.9236C145.72 57.6155 145.407 57.2735 145.166 56.8902C144.925 56.5182 144.778 56.1236 144.721 55.7028C144.661 55.2856 144.714 54.8497 144.883 54.3838C145.053 53.9328 145.358 53.4668 145.807 52.9858L145.811 52.9933ZM146.998 53.9441C146.58 54.3913 146.414 54.8385 146.508 55.2894C146.602 55.7516 146.96 56.2364 147.59 56.7399C148.257 57.2773 148.845 57.5516 149.354 57.5591C149.862 57.5779 150.322 57.3675 150.737 56.9278C151.163 56.4769 151.329 56.0222 151.238 55.56C151.152 55.1015 150.778 54.6092 150.115 54.0831C149.474 53.5758 148.905 53.309 148.4 53.2865C147.891 53.2677 147.424 53.4856 146.998 53.9366V53.9441ZM140.47 58.912C140.971 58.3784 141.461 57.9913 141.936 57.7545C142.418 57.5216 142.882 57.4239 143.319 57.4652C143.764 57.5103 144.171 57.6831 144.544 57.9838L143.406 59.1938C143.259 59.0736 143.086 59.0022 142.878 58.9796C142.675 58.9608 142.452 59.0059 142.204 59.1262C141.962 59.2464 141.71 59.4456 141.45 59.7237C141.103 60.0957 140.896 60.4301 140.835 60.727C140.771 61.0314 140.839 61.2681 141.046 61.441C141.227 61.5913 141.454 61.6289 141.729 61.5537C142.008 61.4823 142.339 61.2757 142.724 60.9337L143.15 60.5391C143.753 59.9942 144.36 59.6673 144.966 59.5508C145.581 59.4418 146.154 59.5997 146.681 60.0318C147.047 60.3287 147.269 60.6631 147.352 61.0352C147.439 61.4109 147.394 61.8093 147.213 62.2264C147.039 62.651 146.738 63.0869 146.316 63.5304C145.863 64.0076 145.411 64.3533 144.963 64.5563C144.514 64.7629 144.081 64.8343 143.655 64.778C143.229 64.7254 142.826 64.5412 142.445 64.2218L143.583 63.0155C143.734 63.1396 143.903 63.2147 144.092 63.2335C144.28 63.2636 144.476 63.2335 144.687 63.1546C144.895 63.0719 145.106 62.9216 145.313 62.7036C145.494 62.512 145.626 62.3241 145.701 62.1437C145.781 61.9633 145.799 61.7942 145.769 61.6402C145.743 61.4899 145.664 61.3621 145.532 61.2531C145.37 61.1178 145.162 61.0615 144.91 61.0802C144.665 61.1028 144.39 61.2456 144.084 61.5124L143.658 61.907C142.988 62.5195 142.324 62.9066 141.668 63.0606C141.013 63.2147 140.428 63.0794 139.916 62.6473C139.561 62.3504 139.347 62.0084 139.275 61.6176C139.203 61.2268 139.267 60.8022 139.471 60.3437C139.671 59.889 140.002 59.4118 140.474 58.912H140.47ZM140.051 57.5366L141.175 58.461L140.172 59.532L139.049 58.6038L140.048 57.5366H140.051ZM146.406 62.7074L147.567 63.6619L146.542 64.7442L145.385 63.7859L146.406 62.7036V62.7074Z" fill="#34D097"/>
<path d="M183.233 66.1602L183.908 67.3664L182.118 74.1118L181.974 73.9276L182.57 74.1681L182.223 74.1193L186.373 72.1164L187.123 73.4542L180.655 76.5657L179.988 75.3406L181.79 68.6028L181.955 68.7982L181.322 68.5464L181.699 68.599L177.448 70.6846L176.728 69.3656L183.233 66.1602ZM175.408 70.0195L179.313 77.212L177.497 78.0876L173.622 70.8988L175.408 70.0195ZM173.844 70.7898L174.56 72.1164L171.01 73.86L170.305 72.5372L173.844 70.7936V70.7898ZM175.442 73.751L176.166 75.0888L172.845 76.7009L172.133 75.3631L175.442 73.7473V73.751ZM176.992 76.6258L177.723 77.9786L174.199 79.6734L173.479 78.3243L176.988 76.6295L176.992 76.6258ZM168.82 73.2663L172.642 80.4926L170.81 81.3719L167.018 74.1531L168.816 73.2663H168.82ZM163.98 75.6525L167.912 77.5615L165.937 78.5235L161.926 76.6634L163.984 75.6487L163.98 75.6525ZM168.699 76.1936L169.363 77.4563L167.38 78.422C167.116 78.5498 166.913 78.7076 166.77 78.8918C166.623 79.0872 166.543 79.2939 166.528 79.5118C166.51 79.741 166.562 79.9703 166.679 80.1995C166.8 80.4287 166.958 80.6016 167.154 80.7181C167.35 80.8458 167.569 80.9097 167.817 80.9022C168.059 80.9097 168.315 80.8458 168.579 80.7181L170.573 79.7561L171.296 81.1352L169.438 82.0296C168.767 82.3527 168.134 82.5406 167.546 82.5932C166.962 82.6534 166.445 82.5669 165.997 82.3377C165.552 82.1085 165.19 81.7252 164.911 81.1878L164.829 81.03C164.557 80.5001 164.463 79.9928 164.55 79.5118C164.633 79.0383 164.874 78.5949 165.269 78.1815C165.661 77.7757 166.189 77.4112 166.856 77.088L168.692 76.1899L168.699 76.1936ZM157.124 78.8016C157.829 78.4559 158.5 78.2604 159.137 78.2191C159.774 78.189 160.358 78.268 160.886 78.4596C161.421 78.6588 161.881 78.9293 162.277 79.2751C162.661 79.6208 162.959 79.9966 163.163 80.3911L163.272 80.6053C163.498 81.0488 163.637 81.5298 163.683 82.0446C163.728 82.5707 163.66 83.0968 163.487 83.6267C163.313 84.1528 163.012 84.6488 162.59 85.1148C162.171 85.5883 161.613 85.9904 160.92 86.321C160.226 86.6555 159.563 86.8396 158.93 86.8734C158.3 86.9148 157.724 86.8434 157.196 86.6592C156.672 86.4751 156.208 86.2083 155.816 85.8551C155.425 85.5093 155.119 85.1185 154.901 84.6751L154.795 84.4609C154.599 84.0663 154.478 83.6116 154.437 83.1043C154.396 82.597 154.452 82.0747 154.607 81.5411C154.765 81.015 155.051 80.5114 155.462 80.0266C155.869 79.5531 156.423 79.1435 157.124 78.7978V78.8016ZM157.871 80.2784C157.501 80.4588 157.2 80.6805 156.966 80.9398C156.725 81.2028 156.555 81.4884 156.453 81.7966C156.344 82.1085 156.303 82.4241 156.333 82.7473C156.363 83.0705 156.453 83.3899 156.612 83.7018C156.778 84.0325 156.985 84.3068 157.237 84.5248C157.486 84.754 157.765 84.9156 158.082 85.0171C158.395 85.126 158.726 85.1636 159.077 85.1336C159.427 85.1035 159.789 84.9983 160.162 84.8179C160.535 84.6375 160.845 84.4196 161.082 84.164C161.319 83.9085 161.497 83.6267 161.606 83.311C161.711 83.0066 161.749 82.6872 161.715 82.3527C161.685 82.0258 161.583 81.6951 161.414 81.3644C161.255 81.0525 161.052 80.7857 160.803 80.564C160.554 80.3423 160.275 80.1807 159.963 80.0755C159.642 79.974 159.307 79.9364 158.952 79.9628C158.602 79.9891 158.24 80.0943 157.867 80.2784H157.871Z" fill="white"/>
<path d="M197.652 104.324L197.795 106.15C197.825 106.534 197.784 106.868 197.667 107.161C197.543 107.454 197.335 107.717 197.041 107.954C196.751 108.198 196.359 108.431 195.865 108.653L194.313 109.356C193.917 109.532 193.634 109.735 193.465 109.972C193.284 110.209 193.204 110.502 193.231 110.851C193.257 111.201 193.4 111.498 193.661 111.712C193.921 111.93 194.286 112.024 194.757 112.005C195.229 111.986 195.579 111.847 195.805 111.599C196.031 111.351 196.129 111.024 196.099 110.626L198.274 110.521C198.319 111.088 198.221 111.603 197.98 112.065C197.743 112.539 197.362 112.918 196.845 113.204C196.329 113.489 195.673 113.651 194.886 113.685C194.098 113.719 193.434 113.621 192.892 113.392C192.341 113.162 191.919 112.843 191.618 112.433C191.309 112.024 191.135 111.558 191.098 111.028L191.086 110.881C191.037 110.201 191.203 109.63 191.58 109.164C191.961 108.706 192.568 108.285 193.404 107.898L194.938 107.195C195.202 107.075 195.387 106.954 195.496 106.834C195.594 106.714 195.639 106.556 195.624 106.364L195.579 105.756L196.141 106.128L190.755 106.428L190.634 104.73L197.656 104.316L197.652 104.324ZM184.897 104.846C185.659 104.801 186.318 104.876 186.876 105.064C187.438 105.263 187.905 105.549 188.274 105.921C188.636 106.293 188.923 106.733 189.126 107.236C189.322 107.751 189.443 108.296 189.481 108.875L189.53 109.562C189.586 110.37 189.484 111.107 189.217 111.776C188.953 112.445 188.512 112.99 187.901 113.407C187.291 113.824 186.495 114.053 185.515 114.098C184.535 114.143 183.729 113.982 183.084 113.625C182.432 113.268 181.935 112.772 181.588 112.14C181.245 111.509 181.045 110.795 180.996 109.998L180.955 109.318C180.917 108.747 180.966 108.198 181.098 107.672C181.222 107.157 181.437 106.695 181.75 106.289C182.055 105.883 182.466 105.549 182.99 105.286C183.506 105.034 184.14 104.884 184.901 104.839L184.897 104.846ZM185.018 106.646C184.309 106.688 183.804 106.939 183.491 107.402C183.175 107.875 183.047 108.585 183.107 109.532C183.171 110.539 183.397 111.253 183.785 111.678C184.166 112.11 184.701 112.309 185.395 112.279C186.088 112.249 186.624 111.994 186.948 111.528C187.272 111.069 187.396 110.34 187.328 109.341C187.261 108.341 187.042 107.676 186.669 107.24C186.288 106.804 185.738 106.605 185.018 106.646ZM175.075 105.425C175.81 105.38 176.451 105.455 176.99 105.643C177.532 105.838 177.981 106.12 178.339 106.488C178.69 106.857 178.961 107.289 179.153 107.785C179.342 108.292 179.451 108.83 179.485 109.401L179.526 110.081C179.575 110.874 179.47 111.603 179.21 112.261C178.95 112.918 178.52 113.456 177.924 113.865C177.329 114.275 176.56 114.5 175.61 114.542C174.66 114.583 173.884 114.429 173.258 114.076C172.629 113.722 172.15 113.238 171.818 112.614C171.49 111.99 171.302 111.287 171.261 110.506L171.223 109.837C171.193 109.273 171.242 108.736 171.374 108.217C171.498 107.71 171.709 107.255 172.014 106.853C172.312 106.451 172.712 106.124 173.221 105.868C173.722 105.62 174.336 105.474 175.071 105.429L175.075 105.425ZM175.177 107.199C174.491 107.236 173.997 107.484 173.695 107.943C173.383 108.409 173.254 109.108 173.307 110.04C173.364 111.032 173.579 111.734 173.948 112.152C174.314 112.576 174.83 112.775 175.501 112.742C176.172 112.708 176.696 112.463 177.008 112.001C177.325 111.55 177.453 110.833 177.393 109.852C177.333 108.871 177.125 108.213 176.767 107.785C176.402 107.357 175.87 107.161 175.173 107.199H175.177ZM166.229 106.124C167.035 106.075 167.71 106.146 168.26 106.331C168.811 106.522 169.233 106.815 169.531 107.202C169.828 107.601 169.99 108.074 170.021 108.627L168.189 108.724C168.177 108.506 168.106 108.303 167.97 108.116C167.834 107.935 167.631 107.796 167.352 107.695C167.073 107.601 166.726 107.567 166.304 107.589C165.746 107.62 165.324 107.736 165.038 107.939C164.744 108.142 164.604 108.397 164.619 108.706C164.634 108.976 164.77 109.19 165.034 109.344C165.298 109.51 165.709 109.604 166.27 109.626L166.903 109.638C167.793 109.668 168.509 109.882 169.056 110.276C169.602 110.678 169.9 111.272 169.941 112.054C169.972 112.595 169.866 113.053 169.625 113.425C169.387 113.805 169.029 114.098 168.554 114.301C168.083 114.511 167.51 114.632 166.839 114.662C166.119 114.696 165.513 114.617 165.015 114.425C164.521 114.237 164.141 113.948 163.873 113.564C163.598 113.181 163.451 112.704 163.421 112.14L165.226 112.05C165.237 112.276 165.305 112.471 165.43 112.636C165.547 112.809 165.712 112.948 165.935 113.046C166.153 113.144 166.429 113.185 166.76 113.17C167.05 113.155 167.295 113.106 167.499 113.016C167.702 112.929 167.853 112.805 167.955 112.655C168.057 112.509 168.102 112.339 168.091 112.144C168.079 111.904 167.97 111.689 167.77 111.501C167.571 111.325 167.25 111.223 166.809 111.197L166.176 111.182C165.185 111.156 164.386 110.941 163.775 110.547C163.168 110.152 162.844 109.57 162.806 108.8C162.78 108.27 162.897 107.811 163.157 107.424C163.417 107.041 163.805 106.736 164.325 106.511C164.838 106.289 165.471 106.154 166.225 106.109L166.229 106.124ZM167.028 104.625L167.115 106.316L165.501 106.41L165.415 104.722L167.028 104.625ZM167.571 114.061L167.661 115.778L166.033 115.845L165.946 114.132L167.571 114.057V114.061Z" fill="#34D097"/>
<path d="M99.1882 210.527C99.1882 211.214 99.0751 211.797 98.8527 212.278C98.6266 212.751 98.3213 213.093 97.9406 213.311C97.5599 213.529 97.134 213.604 96.6553 213.541L96.6666 211.628C96.987 211.669 97.2508 211.579 97.4544 211.357C97.6504 211.132 97.7521 210.794 97.7521 210.343C97.7521 210.046 97.7069 209.786 97.6089 209.565C97.5109 209.343 97.379 209.166 97.2131 209.031C97.0398 208.896 96.8438 208.817 96.6289 208.791C96.2935 208.749 96.0183 208.839 95.8035 209.061C95.5849 209.275 95.4756 209.606 95.4756 210.053C95.4756 210.294 95.502 210.512 95.566 210.703C95.6263 210.887 95.7017 211.053 95.7922 211.192L94.4843 211.913L93.0143 209.069L92.8372 209.155L92.807 212.669L91.3634 212.477L91.42 206.607L92.9804 206.799L94.6313 210.061L94.3976 210.993C94.3561 210.827 94.326 210.654 94.3071 210.478C94.2808 210.29 94.2694 210.091 94.2694 209.884C94.2732 209.204 94.375 208.633 94.571 208.171C94.767 207.708 95.0421 207.366 95.3964 207.145C95.7432 206.915 96.1502 206.829 96.6176 206.885L96.742 206.9C97.2094 206.957 97.624 207.145 97.9934 207.464C98.3627 207.776 98.6567 208.193 98.8716 208.719C99.0789 209.238 99.1844 209.843 99.1806 210.538L99.1882 210.527ZM99.2221 202.053C99.2221 202.748 99.1203 203.33 98.9206 203.804C98.717 204.277 98.4419 204.649 98.0989 204.92C97.7559 205.183 97.3601 205.363 96.9154 205.461C96.4631 205.551 95.9882 205.566 95.4906 205.506L94.8989 205.435C94.2091 205.352 93.591 205.138 93.0369 204.796C92.4866 204.454 92.0494 203.981 91.729 203.372C91.4087 202.767 91.2504 202.026 91.2617 201.155C91.273 200.283 91.4388 199.588 91.7705 199.069C92.1022 198.539 92.5432 198.167 93.0972 197.953C93.6513 197.735 94.2732 197.664 94.9554 197.735L95.5434 197.795C96.0372 197.848 96.5083 197.972 96.9568 198.171C97.3978 198.359 97.7898 198.626 98.129 198.971C98.4683 199.31 98.7359 199.734 98.9394 200.249C99.1316 200.756 99.2296 201.354 99.2259 202.049L99.2221 202.053ZM97.6428 201.876C97.6428 201.234 97.4544 200.734 97.0661 200.384C96.6742 200.023 96.0673 199.802 95.2457 199.712C94.3825 199.618 93.7606 199.712 93.3799 199.993C92.9955 200.264 92.7995 200.711 92.7957 201.335C92.7919 201.959 92.9766 202.474 93.3573 202.831C93.7305 203.191 94.3448 203.421 95.1967 203.518C96.0485 203.616 96.6402 203.53 97.036 203.267C97.4318 202.992 97.6353 202.53 97.6391 201.88L97.6428 201.876ZM99.256 192.993C99.256 193.676 99.1543 194.255 98.9583 194.725C98.7547 195.195 98.4833 195.563 98.1404 195.837C97.8011 196.104 97.4091 196.288 96.9644 196.39C96.5159 196.484 96.0447 196.506 95.5472 196.457L94.9592 196.397C94.277 196.326 93.6588 196.127 93.1086 195.796C92.562 195.465 92.1286 195.007 91.8082 194.413C91.4878 193.823 91.3333 193.094 91.3446 192.237C91.3559 191.38 91.5217 190.689 91.8497 190.17C92.1776 189.644 92.6186 189.269 93.1689 189.047C93.7192 188.825 94.3335 188.742 95.0157 188.803L95.6 188.855C96.0899 188.9 96.5611 189.013 97.0058 189.201C97.4431 189.381 97.8313 189.637 98.1667 189.971C98.5022 190.298 98.7698 190.715 98.9696 191.219C99.1618 191.715 99.256 192.305 99.2523 192.989L99.256 192.993ZM97.6881 192.842C97.6881 192.207 97.4996 191.719 97.1151 191.38C96.7269 191.031 96.1239 190.821 95.3097 190.745C94.4504 190.666 93.836 190.768 93.4591 191.054C93.0784 191.328 92.8824 191.771 92.8786 192.384C92.8749 192.996 93.0596 193.504 93.4365 193.849C93.8096 194.199 94.4164 194.413 95.2645 194.499C96.1126 194.586 96.6968 194.488 97.0925 194.221C97.4883 193.947 97.6881 193.485 97.6881 192.842ZM99.1316 184.676C99.1316 185.436 99.0299 186.063 98.8339 186.552C98.6303 187.04 98.3514 187.397 97.9934 187.623C97.6278 187.848 97.2018 187.938 96.7156 187.897L96.7269 186.187C96.9192 186.202 97.1001 186.161 97.2735 186.059C97.4393 185.958 97.575 185.781 97.6767 185.533C97.7747 185.285 97.8238 184.962 97.8275 184.567C97.8275 184.041 97.7484 183.632 97.5863 183.342C97.4242 183.046 97.2056 182.884 96.9342 182.865C96.6968 182.846 96.5008 182.952 96.35 183.177C96.1917 183.403 96.0862 183.778 96.0372 184.297L95.9919 184.883C95.9166 185.702 95.6942 186.341 95.3248 186.8C94.9479 187.254 94.4202 187.453 93.7418 187.393C93.2744 187.352 92.8862 187.202 92.5809 186.935C92.268 186.668 92.0344 186.307 91.8836 185.849C91.7253 185.39 91.6499 184.853 91.6574 184.233C91.665 183.568 91.7592 183.015 91.9439 182.58C92.1286 182.144 92.3924 181.824 92.7392 181.621C93.0822 181.411 93.5005 181.324 93.9943 181.358L93.9792 183.046C93.7832 183.03 93.6098 183.072 93.4628 183.166C93.3083 183.252 93.1802 183.391 93.0859 183.583C92.9917 183.775 92.9389 184.023 92.9389 184.331C92.9389 184.598 92.9691 184.834 93.0332 185.03C93.0972 185.229 93.1952 185.383 93.3234 185.492C93.444 185.601 93.5872 185.665 93.7568 185.676C93.9679 185.695 94.1564 185.62 94.326 185.458C94.4918 185.293 94.5936 185.011 94.6388 184.605L94.6841 184.019C94.7594 183.102 94.9856 182.38 95.3625 181.858C95.7394 181.332 96.2671 181.095 96.9493 181.148C97.4204 181.182 97.82 181.343 98.1479 181.629C98.4758 181.914 98.7246 182.316 98.8942 182.831C99.0638 183.339 99.1467 183.951 99.1467 184.665L99.1316 184.676ZM100.424 185.608L98.9093 185.484L98.9168 183.959L100.428 184.079V185.608H100.424ZM92.1361 184.977L90.6699 184.857L90.685 183.357L92.1512 183.474L92.1361 184.977Z" fill="#34D097"/>
<path d="M137.393 206.375L130.673 208.757L130.82 208.088L131.743 210.384L130.221 210.922L128.724 207.175L136.568 204.368L137.393 206.371V206.375ZM134.412 198.57C134.702 199.269 134.849 199.907 134.853 200.482C134.853 201.061 134.74 201.568 134.517 202.016C134.291 202.451 133.982 202.827 133.586 203.15C133.179 203.466 132.72 203.714 132.207 203.898L131.596 204.12C130.884 204.375 130.183 204.466 129.497 204.39C128.811 204.315 128.181 204.049 127.612 203.594C127.043 203.139 126.583 202.466 126.229 201.58C125.875 200.693 125.754 199.907 125.863 199.22C125.969 198.524 126.252 197.931 126.704 197.446C127.156 196.961 127.737 196.582 128.438 196.322L129.037 196.097C129.542 195.909 130.059 195.804 130.579 195.781C131.091 195.755 131.581 195.834 132.056 196.014C132.527 196.187 132.972 196.484 133.383 196.905C133.782 197.318 134.129 197.878 134.416 198.577L134.412 198.57ZM132.795 199.163C132.527 198.513 132.132 198.107 131.608 197.942C131.072 197.773 130.386 197.844 129.546 198.152C128.656 198.479 128.087 198.881 127.835 199.347C127.571 199.81 127.563 200.358 127.816 200.99C128.076 201.64 128.468 202.049 128.992 202.23C129.512 202.41 130.209 202.339 131.091 202.019C131.947 201.707 132.512 201.32 132.791 200.858C133.066 200.388 133.07 199.821 132.799 199.163H132.795ZM130.771 190.178C131.087 190.949 131.253 191.629 131.268 192.215C131.276 192.805 131.148 193.301 130.888 193.699C130.62 194.101 130.236 194.395 129.738 194.582L129.03 192.843C129.226 192.767 129.388 192.64 129.516 192.456C129.636 192.275 129.697 192.035 129.693 191.734C129.685 191.437 129.599 191.088 129.437 190.689C129.218 190.156 128.969 189.78 128.687 189.566C128.4 189.34 128.117 189.284 127.838 189.389C127.594 189.483 127.447 189.678 127.39 189.979C127.33 190.284 127.382 190.708 127.548 191.261L127.752 191.877C128.023 192.745 128.072 193.496 127.895 194.135C127.71 194.778 127.269 195.229 126.572 195.492C126.09 195.672 125.641 195.702 125.223 195.578C124.797 195.458 124.416 195.199 124.073 194.804C123.726 194.413 123.425 193.899 123.172 193.267C122.901 192.587 122.769 191.986 122.769 191.456C122.769 190.926 122.901 190.479 123.157 190.111C123.41 189.735 123.79 189.449 124.292 189.258L124.981 190.971C124.782 191.046 124.627 191.17 124.518 191.336C124.401 191.497 124.333 191.7 124.318 191.937C124.303 192.177 124.36 192.452 124.484 192.764C124.593 193.038 124.721 193.26 124.872 193.429C125.019 193.598 125.181 193.711 125.355 193.76C125.52 193.812 125.69 193.808 125.863 193.744C126.078 193.662 126.237 193.5 126.338 193.252C126.433 193.008 126.418 192.67 126.289 192.241L126.09 191.629C125.781 190.667 125.701 189.833 125.856 189.126C126.01 188.42 126.433 187.935 127.126 187.664C127.605 187.48 128.068 187.454 128.509 187.589C128.954 187.724 129.369 188.014 129.749 188.453C130.13 188.886 130.469 189.464 130.767 190.186L130.771 190.178ZM132.441 190.513L130.895 191.099L130.262 189.554L131.804 188.965L132.444 190.509L132.441 190.513ZM123.964 193.786L122.452 194.357L121.842 192.824L123.346 192.249L123.96 193.782L123.964 193.786Z" fill="white"/>
<path d="M161.752 188.065C161.232 187.539 160.859 187.009 160.64 186.479C160.414 185.953 160.327 185.434 160.372 184.919C160.406 184.404 160.546 183.912 160.795 183.439C161.036 182.958 161.36 182.511 161.767 182.093L162.125 181.729C163.154 180.673 164.236 180.169 165.37 180.222C166.501 180.278 167.662 180.891 168.853 182.056C169.098 182.296 169.332 182.537 169.562 182.781C169.788 183.025 170.003 183.27 170.206 183.514L169.019 184.72C168.819 184.487 168.6 184.239 168.367 183.976C168.129 183.717 167.877 183.461 167.613 183.202C167.089 182.687 166.599 182.356 166.151 182.21C165.694 182.071 165.257 182.097 164.831 182.281C164.405 182.469 163.972 182.789 163.527 183.24L162.879 183.901L162.325 183.762C162.758 183.333 163.214 183.067 163.697 182.965C164.168 182.86 164.647 182.905 165.125 183.093C165.608 183.281 166.071 183.597 166.516 184.036C167.021 184.536 167.372 185.055 167.568 185.596C167.76 186.141 167.794 186.674 167.677 187.193C167.556 187.711 167.281 188.189 166.852 188.625C166.396 189.087 165.883 189.369 165.306 189.474C164.726 189.587 164.134 189.523 163.527 189.282C162.909 189.042 162.317 188.636 161.748 188.061L161.752 188.065ZM162.864 186.832C163.15 187.118 163.437 187.317 163.731 187.426C164.017 187.527 164.296 187.554 164.568 187.501C164.828 187.448 165.061 187.313 165.272 187.099C165.491 186.877 165.627 186.633 165.683 186.366C165.732 186.107 165.71 185.832 165.612 185.551C165.502 185.269 165.306 184.987 165.027 184.709C164.775 184.457 164.507 184.265 164.225 184.134C163.931 184.002 163.644 183.954 163.369 183.987C163.086 184.029 162.826 184.168 162.589 184.412C162.385 184.622 162.253 184.859 162.2 185.122C162.14 185.382 162.163 185.656 162.272 185.949C162.381 186.242 162.581 186.535 162.871 186.825L162.864 186.832ZM161.156 174.307C161.71 174.848 162.11 175.397 162.347 175.949C162.581 176.505 162.687 177.05 162.66 177.58C162.626 178.106 162.491 178.614 162.253 179.102C162.001 179.594 161.673 180.045 161.266 180.462L160.783 180.959C160.222 181.537 159.6 181.947 158.921 182.191C158.247 182.435 157.546 182.465 156.822 182.285C156.102 182.105 155.393 181.665 154.7 180.966C154.01 180.271 153.577 179.561 153.4 178.843C153.219 178.121 153.245 177.419 153.475 176.738C153.705 176.058 154.097 175.431 154.647 174.86L155.118 174.371C155.518 173.958 155.955 173.623 156.434 173.368C156.901 173.112 157.395 172.962 157.911 172.92C158.424 172.872 158.955 172.954 159.509 173.172C160.052 173.386 160.599 173.766 161.153 174.307H161.156ZM159.886 175.619C159.374 175.115 158.838 174.901 158.281 174.984C157.711 175.062 157.097 175.446 156.434 176.13C155.733 176.855 155.359 177.501 155.31 178.072C155.25 178.644 155.465 179.177 155.959 179.673C156.468 180.181 157.003 180.402 157.568 180.331C158.13 180.267 158.755 179.876 159.453 179.162C160.127 178.471 160.501 177.836 160.572 177.261C160.636 176.678 160.41 176.133 159.89 175.622L159.886 175.619ZM153.988 167.302C154.523 167.829 154.907 168.358 155.137 168.896C155.363 169.437 155.461 169.971 155.431 170.489C155.397 171.004 155.261 171.5 155.028 171.985C154.779 172.466 154.459 172.917 154.063 173.326L153.592 173.815C153.041 174.386 152.435 174.796 151.775 175.044C151.115 175.292 150.437 175.329 149.736 175.16C149.035 174.991 148.353 174.57 147.682 173.894C147.015 173.221 146.596 172.533 146.43 171.831C146.257 171.124 146.287 170.44 146.513 169.771C146.739 169.103 147.124 168.486 147.663 167.919L148.123 167.434C148.511 167.024 148.941 166.694 149.408 166.438C149.864 166.183 150.343 166.029 150.844 165.983C151.342 165.931 151.858 166.006 152.397 166.213C152.925 166.419 153.452 166.78 153.988 167.306V167.302ZM152.747 168.599C152.25 168.11 151.73 167.911 151.187 167.994C150.633 168.08 150.034 168.46 149.385 169.136C148.703 169.85 148.334 170.489 148.285 171.049C148.221 171.609 148.432 172.128 148.907 172.605C149.397 173.097 149.917 173.308 150.467 173.232C151.014 173.165 151.624 172.774 152.303 172.067C152.962 171.384 153.328 170.756 153.4 170.192C153.467 169.625 153.245 169.091 152.744 168.595L152.747 168.599ZM147.418 161.125C148.002 161.7 148.417 162.256 148.658 162.797C148.892 163.345 148.967 163.864 148.888 164.356C148.801 164.852 148.564 165.303 148.179 165.705L146.86 164.401C147.011 164.244 147.109 164.048 147.154 163.819C147.192 163.593 147.154 163.342 147.037 163.064C146.917 162.789 146.702 162.504 146.4 162.207C145.997 161.809 145.624 161.572 145.281 161.5C144.934 161.421 144.655 161.493 144.44 161.718C144.256 161.917 144.192 162.166 144.259 162.474C144.32 162.786 144.531 163.158 144.896 163.597L145.319 164.078C145.899 164.766 146.234 165.446 146.321 166.126C146.4 166.81 146.174 167.438 145.635 168.001C145.266 168.392 144.862 168.625 144.433 168.697C143.999 168.776 143.547 168.708 143.083 168.494C142.612 168.283 142.141 167.941 141.666 167.46C141.157 166.945 140.803 166.442 140.6 165.946C140.4 165.45 140.347 164.969 140.441 164.51C140.532 164.044 140.769 163.605 141.154 163.195L142.443 164.48C142.288 164.642 142.194 164.826 142.16 165.033C142.115 165.239 142.13 165.457 142.209 165.687C142.288 165.92 142.443 166.153 142.68 166.386C142.887 166.592 143.091 166.739 143.291 166.833C143.49 166.923 143.683 166.953 143.86 166.923C144.033 166.897 144.188 166.814 144.32 166.675C144.486 166.498 144.568 166.273 144.565 165.999C144.557 165.728 144.414 165.42 144.131 165.074L143.713 164.589C143.061 163.83 142.669 163.086 142.541 162.357C142.412 161.628 142.612 160.986 143.14 160.422C143.506 160.035 143.916 159.802 144.372 159.727C144.829 159.651 145.315 159.734 145.835 159.967C146.347 160.196 146.879 160.58 147.429 161.117L147.418 161.125ZM149.065 160.681L147.885 161.925L146.713 160.775L147.889 159.531L149.065 160.677V160.681ZM142.59 167.588L141.425 168.817L140.275 167.656L141.436 166.427L142.59 167.584V167.588Z" fill="#34D097"/>
<path d="M188.932 146.507C189.697 146.789 190.33 147.142 190.831 147.563C191.325 147.98 191.664 148.45 191.849 148.965C192.022 149.479 192.007 150.024 191.804 150.596C191.672 150.96 191.491 151.257 191.261 151.486C191.027 151.723 190.756 151.896 190.451 152.005C190.134 152.11 189.795 152.159 189.433 152.144L189.376 152.298C189.588 152.486 189.765 152.7 189.908 152.933C190.051 153.177 190.134 153.44 190.164 153.722C190.194 154.004 190.149 154.305 190.036 154.624C189.844 155.165 189.531 155.552 189.098 155.781C188.657 156.011 188.14 156.108 187.548 156.074C186.945 156.048 186.316 155.905 185.66 155.65C184.989 155.387 184.424 155.064 183.964 154.68C183.504 154.305 183.188 153.884 183.01 153.421C182.837 152.959 182.845 152.463 183.037 151.93C183.15 151.614 183.304 151.362 183.5 151.17C183.689 150.975 183.907 150.832 184.164 150.742C184.416 150.659 184.684 150.618 184.967 150.618L185.023 150.464C184.744 150.235 184.522 149.975 184.352 149.686C184.183 149.401 184.085 149.089 184.058 148.758C184.028 148.435 184.077 148.093 184.209 147.732C184.412 147.168 184.74 146.747 185.2 146.477C185.649 146.199 186.195 146.064 186.836 146.071C187.469 146.071 188.17 146.218 188.943 146.503L188.932 146.507ZM188.359 148.104C188.004 147.973 187.68 147.905 187.386 147.901C187.092 147.901 186.84 147.965 186.625 148.1C186.406 148.243 186.252 148.45 186.15 148.724C186.052 148.998 186.045 149.254 186.124 149.491C186.195 149.731 186.346 149.949 186.58 150.145C186.802 150.344 187.089 150.513 187.443 150.648C187.79 150.78 188.114 150.844 188.423 150.844C188.717 150.847 188.969 150.78 189.177 150.644C189.38 150.517 189.535 150.31 189.633 150.036C189.731 149.758 189.746 149.494 189.678 149.243C189.606 149.002 189.456 148.784 189.229 148.589C188.996 148.393 188.702 148.232 188.355 148.1L188.359 148.104ZM186.934 152.084C186.486 151.911 186.101 151.858 185.784 151.926C185.464 152.001 185.245 152.2 185.129 152.523C185.012 152.846 185.053 153.14 185.253 153.406C185.453 153.673 185.777 153.891 186.225 154.064C186.674 154.237 187.062 154.29 187.383 154.214C187.703 154.147 187.918 153.955 188.035 153.639C188.151 153.316 188.11 153.016 187.91 152.741C187.699 152.471 187.375 152.253 186.934 152.084ZM179.769 143.136C180.5 143.407 181.088 143.749 181.533 144.158C181.974 144.579 182.294 145.041 182.486 145.549C182.671 146.052 182.754 146.582 182.735 147.146C182.705 147.71 182.588 148.277 182.388 148.841L182.147 149.51C181.868 150.291 181.465 150.945 180.941 151.464C180.417 151.982 179.784 152.313 179.045 152.452C178.306 152.591 177.47 152.478 176.543 152.117C175.619 151.757 174.929 151.276 174.477 150.674C174.017 150.073 173.753 149.404 173.689 148.668C173.625 147.931 173.735 147.18 174.01 146.409L174.247 145.752C174.447 145.199 174.714 144.699 175.054 144.26C175.382 143.824 175.774 143.474 176.23 143.219C176.682 142.96 177.202 142.813 177.801 142.779C178.386 142.753 179.045 142.873 179.773 143.144L179.769 143.136ZM179.136 144.891C178.457 144.636 177.881 144.666 177.398 144.978C176.908 145.293 176.497 145.909 176.166 146.83C175.815 147.803 175.732 148.57 175.921 149.126C176.098 149.686 176.512 150.096 177.172 150.351C177.85 150.614 178.435 150.592 178.928 150.284C179.418 149.983 179.837 149.352 180.184 148.386C180.519 147.45 180.602 146.699 180.432 146.131C180.255 145.56 179.822 145.147 179.136 144.891ZM170.35 139.641C171.055 139.904 171.62 140.235 172.05 140.633C172.476 141.043 172.781 141.494 172.962 141.99C173.139 142.482 173.214 143.001 173.192 143.553C173.158 144.109 173.045 144.662 172.845 145.214L172.608 145.872C172.329 146.639 171.937 147.281 171.428 147.792C170.919 148.303 170.305 148.63 169.585 148.769C168.865 148.908 168.062 148.803 167.169 148.457C166.275 148.108 165.616 147.642 165.179 147.056C164.738 146.469 164.489 145.816 164.429 145.094C164.372 144.373 164.481 143.636 164.753 142.881L164.986 142.234C165.182 141.689 165.446 141.201 165.774 140.765C166.091 140.337 166.475 139.991 166.92 139.739C167.357 139.48 167.866 139.337 168.443 139.299C169.012 139.269 169.645 139.382 170.346 139.645L170.35 139.641ZM169.728 141.366C169.076 141.122 168.514 141.152 168.047 141.46C167.568 141.772 167.169 142.381 166.841 143.283C166.494 144.241 166.411 144.989 166.588 145.534C166.754 146.082 167.157 146.481 167.791 146.725C168.443 146.977 169.008 146.95 169.487 146.65C169.962 146.353 170.372 145.733 170.715 144.782C171.047 143.865 171.134 143.129 170.972 142.573C170.806 142.016 170.388 141.611 169.724 141.362L169.728 141.366ZM161.832 136.673C162.6 136.958 163.204 137.3 163.637 137.702C164.07 138.112 164.349 138.559 164.466 139.051C164.583 139.547 164.545 140.066 164.349 140.6L162.608 139.942C162.683 139.732 162.698 139.51 162.646 139.277C162.593 139.051 162.457 138.833 162.239 138.627C162.016 138.424 161.707 138.251 161.308 138.101C160.776 137.902 160.339 137.841 159.992 137.913C159.638 137.984 159.408 138.168 159.302 138.469C159.208 138.728 159.25 138.988 159.431 139.243C159.608 139.506 159.955 139.765 160.467 140.017L161.048 140.288C161.858 140.679 162.438 141.175 162.789 141.768C163.136 142.373 163.173 143.054 162.902 143.805C162.714 144.327 162.435 144.711 162.065 144.966C161.692 145.226 161.247 145.353 160.731 145.35C160.211 145.35 159.634 145.233 159.001 144.985C158.323 144.722 157.795 144.399 157.41 144.019C157.026 143.64 156.788 143.215 156.694 142.745C156.592 142.272 156.641 141.765 156.837 141.22L158.545 141.874C158.466 142.092 158.451 142.302 158.5 142.509C158.537 142.719 158.639 142.918 158.805 143.099C158.971 143.283 159.208 143.433 159.517 143.553C159.789 143.659 160.037 143.711 160.26 143.711C160.482 143.711 160.671 143.659 160.825 143.557C160.976 143.459 161.085 143.32 161.153 143.132C161.236 142.899 161.225 142.655 161.112 142.396C160.995 142.148 160.739 141.919 160.343 141.716L159.762 141.441C158.854 141.009 158.198 140.483 157.791 139.859C157.384 139.239 157.316 138.555 157.584 137.811C157.768 137.296 158.059 136.913 158.451 136.654C158.843 136.395 159.325 136.267 159.898 136.267C160.463 136.267 161.104 136.398 161.824 136.665L161.832 136.673ZM163.173 135.579L162.578 137.221L161.04 136.65L161.632 135.012L163.17 135.579H163.173ZM159.921 144.714L159.325 146.36L157.795 145.759L158.39 144.117L159.921 144.711V144.714Z" fill="white"/>
<path d="M65.9345 200.294C65.7234 200.847 65.452 201.267 65.1204 201.564C64.7887 201.85 64.4118 201.997 63.9934 202C63.5788 202 63.1303 201.85 62.6553 201.546L62.35 201.35L62.9682 199.746L63.3489 199.986C63.6165 200.155 63.869 200.197 64.1065 200.118C64.3402 200.027 64.5248 199.817 64.6492 199.486C64.7736 199.163 64.7925 198.855 64.702 198.569C64.6078 198.272 64.4306 198.043 64.163 197.874L61.1364 195.984L61.7583 194.372L64.7133 196.202C65.192 196.499 65.5576 196.86 65.8101 197.288C66.0626 197.709 66.2021 198.179 66.2285 198.693C66.2511 199.201 66.1531 199.731 65.9383 200.29L65.9345 200.294ZM60.2016 198.945L59.0332 198.205L60.7482 193.752L61.9204 194.477L60.1979 198.945H60.2016ZM67.0276 196.946L61.8751 190.839L62.874 188.243L69.9185 189.426L69.2702 191.118L63.3451 190.001L63.7145 189.596L63.2245 190.862L63.2546 190.227L67.6532 195.315L67.0238 196.946H67.0276ZM66.2059 194.195L65.2598 193.004L66.3491 190.178L67.6834 190.358L66.2059 194.191V194.195ZM71.6033 185.56C71.3508 186.214 71.0379 186.721 70.6648 187.078C70.2841 187.431 69.8808 187.664 69.4511 187.773C69.0139 187.878 68.588 187.897 68.1658 187.826C67.7437 187.743 67.3592 187.6 67.0125 187.394L66.8278 187.285C66.4509 187.059 66.1041 186.766 65.795 186.405C65.4784 186.041 65.2297 185.624 65.045 185.154C64.8641 184.677 64.7698 184.162 64.7698 183.609C64.7661 183.046 64.8791 182.456 65.1204 181.836C65.3691 181.189 65.6895 180.678 66.0853 180.302C66.481 179.927 66.9182 179.694 67.3969 179.611C67.8718 179.517 68.3694 179.585 68.8782 179.814L68.2525 181.437C67.9887 181.34 67.7399 181.325 67.5062 181.388C67.2725 181.452 67.0577 181.588 66.8617 181.794C66.6695 181.993 66.5112 182.253 66.3868 182.576C66.2624 182.895 66.2021 183.207 66.1983 183.512C66.1983 183.816 66.2473 184.102 66.3566 184.376C66.4659 184.643 66.6205 184.891 66.824 185.124C67.0238 185.345 67.2688 185.545 67.559 185.714C67.8454 185.883 68.1244 185.996 68.3957 186.052C68.6671 186.097 68.9234 186.09 69.1722 186.022C69.4134 185.947 69.6358 185.808 69.828 185.609C70.0165 185.406 70.1748 185.135 70.3029 184.808C70.4952 184.305 70.5555 183.824 70.4763 183.358C70.4009 182.888 70.1974 182.508 69.8582 182.226L70.4801 180.607C70.906 180.926 71.2528 181.34 71.5204 181.854C71.7842 182.358 71.9274 182.933 71.9614 183.572C71.9877 184.203 71.8709 184.868 71.6033 185.563V185.56ZM75.0483 176.094L71.1887 176.958L70.8042 177.954L68.701 173.121L69.4096 171.287L71.298 175.613L70.6912 175.297L75.8021 174.14L75.0483 176.101V176.094ZM73.2165 180.851L67.0728 177.345L67.6909 175.744L73.8422 179.224L73.2165 180.851ZM74.8447 170.998L73.6386 170.34L74.1361 169.051C74.2304 168.803 74.2718 168.567 74.253 168.345C74.2379 168.116 74.1738 167.909 74.0608 167.729C73.9401 167.545 73.7781 167.398 73.5745 167.289C73.3597 167.173 73.1599 167.124 72.9677 167.139C72.7717 167.154 72.6021 167.229 72.4513 167.368C72.3006 167.499 72.1762 167.687 72.082 167.935L71.5882 169.217L70.3972 168.57L70.8608 167.372C71.0945 166.767 71.3809 166.297 71.7164 165.962C72.0593 165.621 72.4325 165.421 72.8396 165.361C73.2504 165.297 73.6801 165.388 74.1324 165.628L74.2681 165.699C74.7091 165.936 75.0483 166.259 75.2857 166.669C75.5194 167.071 75.6438 167.541 75.6513 168.074C75.6626 168.604 75.5496 169.172 75.3121 169.784L74.8447 170.998ZM76.0848 173.399L69.8544 169.976L70.4725 168.375L76.7105 171.772L76.0848 173.396V173.399ZM80.1215 163.422C79.869 164.076 79.5524 164.595 79.1679 164.978C78.7797 165.354 78.3651 165.613 77.9241 165.76C77.4756 165.902 77.0346 165.951 76.5936 165.91C76.1602 165.861 75.7682 165.745 75.4214 165.56L75.233 165.463C74.8485 165.256 74.498 164.978 74.1851 164.625C73.8723 164.26 73.6235 163.839 73.4426 163.358C73.2617 162.881 73.175 162.355 73.1788 161.787C73.1788 161.216 73.2956 160.619 73.5368 159.995C73.7781 159.371 74.0796 158.871 74.449 158.492C74.8108 158.112 75.2066 157.838 75.6325 157.676C76.0622 157.515 76.4956 157.447 76.9366 157.481C77.3738 157.511 77.7884 157.624 78.1729 157.819L78.3613 157.917C78.7081 158.094 79.0436 158.36 79.3602 158.71C79.6768 159.059 79.9406 159.476 80.1479 159.961C80.3477 160.442 80.457 160.98 80.4721 161.57C80.4834 162.152 80.3628 162.768 80.114 163.422H80.1215ZM78.7986 162.731C78.9305 162.389 78.9946 162.058 78.9946 161.735C78.9946 161.404 78.9418 161.1 78.8325 160.814C78.7232 160.521 78.5687 160.266 78.3689 160.044C78.1654 159.822 77.9279 159.642 77.6528 159.499C77.3625 159.349 77.0761 159.266 76.7972 159.247C76.5145 159.221 76.2506 159.258 75.9981 159.364C75.7456 159.458 75.5194 159.615 75.3197 159.833C75.1199 160.051 74.9578 160.329 74.8259 160.668C74.694 161.006 74.6261 161.333 74.6186 161.652C74.6111 161.968 74.6601 162.272 74.7656 162.565C74.8674 162.847 75.0219 163.099 75.2254 163.324C75.4252 163.546 75.6702 163.734 75.9604 163.888C76.2318 164.031 76.5069 164.117 76.7859 164.147C77.0648 164.174 77.3286 164.144 77.5849 164.046C77.845 163.945 78.0787 163.787 78.2822 163.572C78.4895 163.358 78.6591 163.08 78.791 162.738L78.7986 162.731ZM82.3868 157.026L77.1665 154.4L77.7809 152.799L83.0087 155.407L82.3868 157.026ZM76.5635 156.481L75.3536 155.865L77.5095 150.273L78.727 150.875L76.5672 156.481H76.5635Z" fill="white"/>
<path d="M40.7339 179.014L37.4886 174.137L37.9372 174.11L36.7763 175.343L36.0488 174.242L37.9447 172.224L41.7628 177.932L40.7339 179.014ZM44.8498 174.941C44.4804 175.328 44.1148 175.587 43.7529 175.715C43.3873 175.839 43.0368 175.858 42.6976 175.775C42.3621 175.685 42.0455 175.516 41.7402 175.264C41.4349 175.005 41.156 174.685 40.9035 174.309L40.6057 173.866C40.2552 173.347 40.014 172.799 39.8783 172.228C39.7426 171.656 39.7426 171.085 39.8745 170.522C40.0064 169.958 40.3042 169.428 40.7678 168.936C41.2314 168.443 41.695 168.162 42.1586 168.094C42.6297 168.019 43.0783 168.113 43.5117 168.372C43.9452 168.631 44.3409 169.022 44.6952 169.537L45.0005 169.98C45.2568 170.352 45.4641 170.751 45.6149 171.175C45.7694 171.589 45.8486 172.013 45.8599 172.442C45.875 172.87 45.8034 173.295 45.6413 173.727C45.483 174.148 45.2191 174.55 44.8498 174.941ZM44.0432 173.75C44.3862 173.389 44.5407 172.975 44.503 172.509C44.4691 172.032 44.2392 171.487 43.817 170.867C43.3723 170.213 42.9652 169.838 42.5996 169.736C42.234 169.627 41.8872 169.747 41.5555 170.097C41.2163 170.458 41.0618 170.867 41.0919 171.333C41.1183 171.795 41.3482 172.348 41.7817 172.99C42.2038 173.614 42.5996 173.99 42.9652 174.114C43.3346 174.234 43.6964 174.114 44.0432 173.746V173.75ZM49.7308 169.808C49.3577 170.198 48.9883 170.461 48.6189 170.597C48.2495 170.724 47.8915 170.747 47.5485 170.668C47.2093 170.582 46.8851 170.416 46.5723 170.168C46.2632 169.909 45.9767 169.597 45.7204 169.221L45.4151 168.778C45.0571 168.263 44.8083 167.718 44.6689 167.143C44.5294 166.572 44.5256 166.001 44.6575 165.437C44.7895 164.87 45.091 164.34 45.5584 163.844C46.0257 163.348 46.4969 163.062 46.968 162.987C47.4429 162.908 47.9028 162.995 48.3438 163.25C48.7848 163.506 49.1881 163.893 49.5499 164.404L49.8627 164.843C50.1266 165.215 50.3339 165.61 50.4922 166.035C50.6505 166.448 50.7334 166.869 50.7485 167.301C50.7635 167.729 50.6919 168.158 50.5336 168.59C50.3753 169.011 50.1077 169.421 49.7346 169.811L49.7308 169.808ZM48.9054 168.624C49.2521 168.259 49.4067 167.842 49.369 167.376C49.3313 166.899 49.0976 166.354 48.6641 165.742C48.2081 165.095 47.7935 164.719 47.4241 164.625C47.0547 164.52 46.7004 164.644 46.3687 164.998C46.0257 165.362 45.8712 165.775 45.9014 166.241C45.9277 166.704 46.1652 167.252 46.61 167.891C47.0396 168.511 47.4429 168.883 47.8161 169.003C48.193 169.12 48.5548 168.992 48.9054 168.624ZM54.2274 164.87C53.8052 165.317 53.3982 165.614 53.0137 165.764C52.6255 165.907 52.2637 165.922 51.932 165.802C51.5965 165.678 51.295 165.43 51.0349 165.061L51.981 164.062C52.0827 164.205 52.2147 164.31 52.3692 164.37C52.5237 164.426 52.6971 164.419 52.8969 164.344C53.0929 164.265 53.2964 164.111 53.5188 163.878C53.8128 163.57 53.9937 163.269 54.0578 162.983C54.1294 162.69 54.0879 162.442 53.9409 162.236C53.8128 162.055 53.6394 161.98 53.4246 162.006C53.206 162.029 52.9383 162.175 52.618 162.45L52.2674 162.765C51.7699 163.198 51.2875 163.419 50.8201 163.427C50.3489 163.427 49.9343 163.175 49.5687 162.664C49.32 162.311 49.1767 161.95 49.139 161.574C49.1014 161.195 49.1617 160.815 49.3275 160.439C49.4858 160.056 49.7383 159.68 50.0813 159.316C50.4507 158.921 50.8125 158.662 51.1631 158.53C51.5136 158.399 51.8453 158.395 52.1619 158.519C52.4823 158.635 52.7763 158.88 53.0439 159.252L52.0978 160.255C51.9923 160.109 51.8679 160.011 51.7284 159.962C51.589 159.906 51.4382 159.898 51.2762 159.943C51.1141 159.988 50.9482 160.105 50.7786 160.285C50.6279 160.443 50.5186 160.605 50.4507 160.77C50.3791 160.935 50.3527 161.093 50.3678 161.251C50.3791 161.401 50.4281 161.54 50.5186 161.668C50.6316 161.826 50.7824 161.916 50.9708 161.942C51.1555 161.961 51.3742 161.867 51.6229 161.657L51.9734 161.341C52.5237 160.849 53.0552 160.578 53.5716 160.529C54.0842 160.484 54.5289 160.717 54.9021 161.228C55.1584 161.582 55.3054 161.961 55.3355 162.367C55.3694 162.769 55.2903 163.186 55.1018 163.611C54.9171 164.032 54.6269 164.453 54.2274 164.874V164.87ZM54.4648 166.332L53.6469 165.193L54.4988 164.299L55.3167 165.437L54.4648 166.332ZM49.9645 160.105L49.1692 158.996L50.0022 158.109L50.7975 159.218L49.9607 160.109L49.9645 160.105Z" fill="#34D097"/>
<path d="M25.996 151.95L25.7171 150.856L27.3792 145.392L27.4471 145.558L27.1192 145.302L27.3152 145.374L24.7371 146.633L24.4355 145.456L28.4497 143.483L28.7324 144.566L27.0626 150.045L26.9835 149.864L27.334 150.146L27.1154 150.06L29.833 148.752L30.1496 149.958L25.9884 151.95H25.996ZM31.0127 149.545L29.3015 143.066L30.4586 142.499L32.1849 148.985L31.0127 149.549V149.545ZM32.0417 149.056L31.7175 147.839L34.0657 146.711L34.3936 147.933L32.0417 149.06V149.056ZM31.3218 146.347L31.0014 145.141L33.1649 144.088L33.4928 145.298L31.3218 146.351V146.347ZM30.6358 143.769L30.3154 142.57L32.5882 141.454L32.9123 142.657L30.6358 143.769ZM35.3924 147.448L33.6096 140.891L34.8158 140.297L36.6136 146.862L35.3924 147.448ZM38.698 145.866L36.3234 143.814L37.6652 143.164L40.1302 145.178L38.7017 145.862L38.698 145.866ZM35.709 144.923L35.3962 143.769L36.7305 143.123C36.9076 143.036 37.0509 142.92 37.1564 142.773C37.2657 142.619 37.3335 142.446 37.3599 142.258C37.3901 142.063 37.375 141.86 37.3185 141.65C37.2619 141.443 37.1752 141.278 37.0584 141.161C36.9453 141.033 36.8096 140.962 36.6551 140.947C36.5006 140.921 36.3385 140.951 36.1576 141.037L34.8271 141.687L34.4916 140.458L35.7203 139.853C36.1689 139.632 36.5797 139.523 36.9566 139.526C37.3335 139.526 37.6539 139.639 37.9215 139.868C38.1891 140.101 38.3927 140.462 38.5284 140.947L38.5698 141.09C38.7055 141.571 38.7244 142.018 38.6301 142.431C38.5397 142.833 38.3474 143.198 38.0572 143.521C37.7708 143.837 37.4014 144.1 36.9491 144.321L35.709 144.919V144.923ZM43.5074 143.758C43.0023 143.998 42.535 144.107 42.1015 144.081C41.6718 144.047 41.2911 143.919 40.9519 143.698C40.6127 143.472 40.33 143.19 40.0963 142.852C39.8702 142.514 39.7043 142.161 39.6026 141.796L39.546 141.601C39.433 141.195 39.3802 140.766 39.3915 140.316C39.4028 139.857 39.4895 139.406 39.644 138.966C39.7986 138.527 40.0322 138.121 40.3413 137.753C40.6504 137.377 41.0461 137.073 41.5286 136.836C42.011 136.599 42.4633 136.486 42.8892 136.501C43.3114 136.509 43.6958 136.614 44.0351 136.813C44.3781 137.012 44.6683 137.283 44.9133 137.621C45.1545 137.956 45.3354 138.324 45.4523 138.733L45.5088 138.933C45.6143 139.297 45.6633 139.711 45.6558 140.165C45.6483 140.624 45.5729 141.082 45.4259 141.544C45.2789 141.999 45.0452 142.424 44.7286 142.818C44.4158 143.202 44.0049 143.513 43.5036 143.758H43.5074ZM43.1116 142.375C43.3755 142.247 43.5979 142.082 43.775 141.871C43.9559 141.661 44.0954 141.424 44.1858 141.157C44.2838 140.891 44.3328 140.612 44.3366 140.323C44.3404 140.034 44.2989 139.744 44.216 139.459C44.1293 139.154 44.0087 138.895 43.8542 138.685C43.7034 138.463 43.5262 138.298 43.3227 138.189C43.1229 138.068 42.9043 138.008 42.6669 138.008C42.4332 138.008 42.1807 138.072 41.9206 138.2C41.6605 138.328 41.4381 138.493 41.261 138.696C41.0838 138.899 40.9481 139.132 40.8501 139.395C40.7559 139.65 40.7107 139.925 40.7069 140.218C40.7032 140.503 40.7446 140.8 40.8275 141.105C40.9105 141.39 41.0235 141.642 41.1705 141.856C41.3175 142.07 41.4909 142.24 41.6907 142.36C41.898 142.48 42.1203 142.544 42.3578 142.551C42.5953 142.559 42.8478 142.499 43.1116 142.375Z" fill="white"/>
<defs>
<filter id="filter0_dddd_1_65752" x="90.1612" y="1.66701" width="18.1852" height="24.5133" filterUnits="userSpaceOnUse" color-interpolation-filters="sRGB">
<feFlood flood-opacity="0" result="BackgroundImageFix"/>
<feColorMatrix in="SourceAlpha" type="matrix" values="0 0 0 0 0 0 0 0 0 0 0 0 0 0 0 0 0 0 127 0" result="hardAlpha"/>
<feOffset dx="0.332986" dy="0.332986"/>
<feGaussianBlur stdDeviation="0.332986"/>
<feColorMatrix type="matrix" values="0 0 0 0 0 0 0 0 0 0 0 0 0 0 0 0 0 0 0.1 0"/>
<feBlend mode="normal" in2="BackgroundImageFix" result="effect1_dropShadow_1_65752"/>
<feColorMatrix in="SourceAlpha" type="matrix" values="0 0 0 0 0 0 0 0 0 0 0 0 0 0 0 0 0 0 127 0" result="hardAlpha"/>
<feOffset dx="0.998959" dy="0.998959"/>
<feGaussianBlur stdDeviation="0.665973"/>
<feColorMatrix type="matrix" values="0 0 0 0 0 0 0 0 0 0 0 0 0 0 0 0 0 0 0.09 0"/>
<feBlend mode="normal" in2="effect1_dropShadow_1_65752" result="effect2_dropShadow_1_65752"/>
<feColorMatrix in="SourceAlpha" type="matrix" values="0 0 0 0 0 0 0 0 0 0 0 0 0 0 0 0 0 0 127 0" result="hardAlpha"/>
<feOffset dx="1.99792" dy="2.3309"/>
<feGaussianBlur stdDeviation="0.832466"/>
<feColorMatrix type="matrix" values="0 0 0 0 0 0 0 0 0 0 0 0 0 0 0 0 0 0 0.05 0"/>
<feBlend mode="normal" in2="effect2_dropShadow_1_65752" result="effect3_dropShadow_1_65752"/>
<feColorMatrix in="SourceAlpha" type="matrix" values="0 0 0 0 0 0 0 0 0 0 0 0 0 0 0 0 0 0 127 0" result="hardAlpha"/>
<feOffset dx="3.66285" dy="3.99584"/>
<feGaussianBlur stdDeviation="0.998959"/>
<feColorMatrix type="matrix" values="0 0 0 0 0 0 0 0 0 0 0 0 0 0 0 0 0 0 0.01 0"/>
<feBlend mode="normal" in2="effect3_dropShadow_1_65752" result="effect4_dropShadow_1_65752"/>
<feBlend mode="normal" in="SourceGraphic" in2="effect4_dropShadow_1_65752" result="shape"/>
</filter>
<linearGradient id="paint0_linear_1_65752" x1="181.912" y1="202.021" x2="114.497" y2="101.619" gradientUnits="userSpaceOnUse">
<stop stop-color="#3A2956"/>
<stop offset="0.3" stop-color="#501F9E"/>
</linearGradient>
<linearGradient id="paint1_linear_1_65752" x1="213.206" y1="162.335" x2="105.857" y2="91.2898" gradientUnits="userSpaceOnUse">
<stop stop-color="#1F976B"/>
<stop offset="0.3" stop-color="#34D399"/>
</linearGradient>
<linearGradient id="paint2_linear_1_65752" x1="140.026" y1="12.8599" x2="79.7401" y2="103.351" gradientUnits="userSpaceOnUse">
<stop stop-color="#1F976B"/>
<stop offset="0.3" stop-color="#34D399"/>
</linearGradient>
<linearGradient id="paint3_linear_1_65752" x1="18.6073" y1="84.3873" x2="98.6054" y2="101.433" gradientUnits="userSpaceOnUse">
<stop stop-color="#1F976B"/>
<stop offset="0.3" stop-color="#34D399"/>
</linearGradient>
<linearGradient id="paint4_linear_1_65752" x1="56.9924" y1="221.25" x2="78.9112" y2="110.74" gradientUnits="userSpaceOnUse">
<stop stop-color="#1F976B"/>
<stop offset="0.3" stop-color="#34D399"/>
</linearGradient>
<linearGradient id="paint5_linear_1_65752" x1="215.947" y1="108.04" x2="99.2698" y2="131.16" gradientUnits="userSpaceOnUse">
<stop stop-color="#3A2956"/>
<stop offset="0.3" stop-color="#501F9E"/>
</linearGradient>
<linearGradient id="paint6_linear_1_65752" x1="98.7153" y1="232.993" x2="75.2296" y2="118.343" gradientUnits="userSpaceOnUse">
<stop stop-color="#3A2956"/>
<stop offset="0.3" stop-color="#501F9E"/>
</linearGradient>
<linearGradient id="paint7_linear_1_65752" x1="221.036" y1="94.5442" x2="104.101" y2="71.8437" gradientUnits="userSpaceOnUse">
<stop stop-color="#1F976B"/>
<stop offset="0.3" stop-color="#34D399"/>
</linearGradient>
<linearGradient id="paint8_linear_1_65752" x1="63.4734" y1="26.3434" x2="81.4462" y2="116.985" gradientUnits="userSpaceOnUse">
<stop stop-color="#1F976B"/>
<stop offset="0.3" stop-color="#34D399"/>
</linearGradient>
<linearGradient id="paint9_linear_1_65752" x1="11.4498" y1="157.351" x2="89.4979" y2="104.641" gradientUnits="userSpaceOnUse">
<stop stop-color="#1F976B"/>
<stop offset="0.3" stop-color="#34D399"/>
</linearGradient>
<linearGradient id="paint10_linear_1_65752" x1="140.244" y1="231.014" x2="114.836" y2="106.351" gradientUnits="userSpaceOnUse">
<stop stop-color="#1F976B"/>
<stop offset="0.3" stop-color="#34D399"/>
</linearGradient>
<linearGradient id="paint11_linear_1_65752" x1="27.4075" y1="25.1775" x2="210.21" y2="224.567" gradientUnits="userSpaceOnUse">
<stop stop-color="#B38626"/>
<stop offset="0.57" stop-color="#F4E98F"/>
<stop offset="0.98" stop-color="#A7791C"/>
</linearGradient>
<linearGradient id="paint12_linear_1_65752" x1="28.1466" y1="27.798" x2="204.488" y2="220.137" gradientUnits="userSpaceOnUse">
<stop stop-color="#3E2764"/>
<stop offset="0.57" stop-color="#501F9E"/>
<stop offset="0.98" stop-color="#42266F"/>
</linearGradient>
<radialGradient id="paint13_radial_1_65752" cx="0" cy="0" r="1" gradientTransform="matrix(0.295302 108.865 109.205 -0.294453 116.592 125.099)" gradientUnits="userSpaceOnUse">
<stop offset="0.504808" stop-color="#D9D9D9" stop-opacity="0"/>
<stop offset="0.98" stop-color="#020202" stop-opacity="0.16"/>
<stop offset="1" stop-color="#D9D9D9" stop-opacity="0.08"/>
</radialGradient>
<radialGradient id="paint14_radial_1_65752" cx="0" cy="0" r="1" gradientTransform="matrix(0.296276 109.205 109.565 -0.295373 116.253 125.434)" gradientUnits="userSpaceOnUse">
<stop offset="0.504808" stop-color="#D9D9D9" stop-opacity="0"/>
<stop offset="0.98" stop-color="#020202" stop-opacity="0.16"/>
<stop offset="1" stop-color="#D9D9D9" stop-opacity="0.08"/>
</radialGradient>
<linearGradient id="paint15_linear_1_65752" x1="96.2053" y1="114.41" x2="95.9655" y2="131.534" gradientUnits="userSpaceOnUse">
<stop stop-color="#B38626"/>
<stop offset="1" stop-color="#FCEE96"/>
</linearGradient>
<linearGradient id="paint16_linear_1_65752" x1="96.6234" y1="115.203" x2="81.2265" y2="115.422" gradientUnits="userSpaceOnUse">
<stop stop-color="#B38626"/>
<stop offset="1" stop-color="#FCEE96"/>
</linearGradient>
<linearGradient id="paint17_linear_1_65752" x1="95.7828" y1="114.162" x2="111.96" y2="114.393" gradientUnits="userSpaceOnUse">
<stop stop-color="#B38626"/>
<stop offset="1" stop-color="#FCEE96"/>
</linearGradient>
<linearGradient id="paint18_linear_1_65752" x1="96.3579" y1="115.044" x2="96.1181" y2="98.1223" gradientUnits="userSpaceOnUse">
<stop stop-color="#B38626"/>
<stop offset="1" stop-color="#FCEE96"/>
</linearGradient>
<linearGradient id="paint19_linear_1_65752" x1="98.2839" y1="116.685" x2="92.6048" y2="112.296" gradientUnits="userSpaceOnUse">
<stop stop-color="#A15707"/>
<stop offset="1" stop-color="#E8C928"/>
</linearGradient>
<linearGradient id="paint20_linear_1_65752" x1="96.2053" y1="114.41" x2="95.9655" y2="131.534" gradientUnits="userSpaceOnUse">
<stop stop-color="#B38626"/>
<stop offset="1" stop-color="#FCEE96"/>
</linearGradient>
<linearGradient id="paint21_linear_1_65752" x1="96.6234" y1="115.203" x2="81.2265" y2="115.422" gradientUnits="userSpaceOnUse">
<stop stop-color="#B38626"/>
<stop offset="1" stop-color="#FCEE96"/>
</linearGradient>
<linearGradient id="paint22_linear_1_65752" x1="95.7828" y1="114.162" x2="111.96" y2="114.393" gradientUnits="userSpaceOnUse">
<stop stop-color="#B38626"/>
<stop offset="1" stop-color="#FCEE96"/>
</linearGradient>
<linearGradient id="paint23_linear_1_65752" x1="96.3579" y1="115.044" x2="96.1181" y2="98.1223" gradientUnits="userSpaceOnUse">
<stop stop-color="#B38626"/>
<stop offset="1" stop-color="#FCEE96"/>
</linearGradient>
<linearGradient id="paint24_linear_1_65752" x1="98.2839" y1="116.685" x2="92.6048" y2="112.296" gradientUnits="userSpaceOnUse">
<stop stop-color="#A15707"/>
<stop offset="1" stop-color="#E8C928"/>
</linearGradient>
<linearGradient id="paint25_linear_1_65752" x1="92.3653" y1="5.16648" x2="104.181" y2="13.5569" gradientUnits="userSpaceOnUse">
<stop stop-color="#B38626"/>
<stop offset="0.57" stop-color="#F4E98F"/>
<stop offset="0.98" stop-color="#A7791C"/>
</linearGradient>
</defs>
</svg>
